<svg xmlns="http://www.w3.org/2000/svg" width="47" height="47" viewBox="0 0 47 47">
    <g id="Group_1779" data-name="Group 1779" transform="translate(-298 -366)">
        <rect id="Rectangle_1813" data-name="Rectangle 1813" width="47" height="47" rx="9" transform="translate(298 366)" fill="#e9f0ff"/>
        <g id="Icon_ionic-ios-bed" data-name="Icon ionic-ios-bed" transform="translate(307.974 375.375)">
            <path id="Path_3615" data-name="Path 3615" d="M23.7,14.625h-.02a1.1,1.1,0,0,0-1.1,1.1.112.112,0,0,1-.111.111H4.576a.112.112,0,0,1-.111-.111,1.1,1.1,0,0,0-1.1-1.1h-.02a1.1,1.1,0,0,0-1.1,1.1V24.8a1.1,1.1,0,0,0,1.1,1.1h.02a1.1,1.1,0,0,0,1.1-1.1v-.312a.2.2,0,0,1,.2-.2H22.385a.2.2,0,0,1,.2.2V24.8a1.1,1.1,0,0,0,1.1,1.1h.02a1.1,1.1,0,0,0,1.1-1.1V15.722A1.1,1.1,0,0,0,23.7,14.625Z" transform="translate(0 -2.557)" fill="none" stroke="#005eaa" stroke-width="1.5"/>
            <path id="Path_3616" data-name="Path 3616" d="M5.746,12.37H6.879a.2.2,0,0,0,.2-.2v-.654a.808.808,0,0,1,.805-.805h4.908a.808.808,0,0,1,.805.805v.654a.2.2,0,0,0,.2.2h1.208a.2.2,0,0,0,.2-.2v-.654a.808.808,0,0,1,.805-.805h4.908a.808.808,0,0,1,.805.805v.654a.2.2,0,0,0,.2.2h1.133a.4.4,0,0,0,.4-.4V7.236a1.616,1.616,0,0,0-1.611-1.611H6.955A1.616,1.616,0,0,0,5.344,7.236v4.732A.4.4,0,0,0,5.746,12.37Z" transform="translate(-0.879)" fill="none" stroke="#005eaa" stroke-width="1.5"/>
        </g>
    </g>
</svg>
