<svg xmlns="http://www.w3.org/2000/svg" width="13.233" height="20.531" viewBox="0 0 13.233 20.531">
    <g id="tag" transform="translate(-91)">
        <path id="Path_823" d="M92.8,20.531h9.624a1.807,1.807,0,0,0,1.8-1.8V7.012a2.988,2.988,0,0,0-.881-2.127L98.89.519A1.79,1.79,0,0,0,97.616,0H94.007a3.005,3.005,0,0,0-2.243,5.008,2.985,2.985,0,0,0-.765,2V18.727A1.807,1.807,0,0,0,92.8,20.531Zm9.7-14.793a1.793,1.793,0,0,1,.526,1.274V18.727a.6.6,0,0,1-.6.6H92.8a.6.6,0,0,1-.6-.6V7.012a1.793,1.793,0,0,1,.526-1.274l.006-.006a2.983,2.983,0,0,0,1.272.283h1.908a1.8,1.8,0,1,0,1.7-1.2H94.007a1.809,1.809,0,0,1-.305-.026l3.489-3.413a.619.619,0,0,1,.851,0Zm-4.286.879a.6.6,0,1,1-.6-.6A.6.6,0,0,1,98.218,6.616ZM94.007,1.2h1.637L92.621,4.161A1.8,1.8,0,0,1,94.007,1.2Z" fill="#afafaf"/>
        <path id="Path_824"  d="M186.413,391H181.6a.6.6,0,1,0,0,1.2h4.812a.6.6,0,0,0,0-1.2Z" transform="translate(-86.391 -375.321)" fill="#afafaf"/>
        <path id="Path_825"  d="M181,331.6a.6.6,0,0,0,.6.6h4.812a.6.6,0,0,0,0-1.2H181.6A.6.6,0,0,0,181,331.6Z" transform="translate(-86.391 -317.727)" fill="#afafaf"/>
    </g>
</svg>
