<svg xmlns="http://www.w3.org/2000/svg" width="215.477" height="215.477" viewBox="0 0 215.477 215.477">
    <g id="logo" transform="translate(-104.189 -108.132)">
        <path id="Path_76"  d="M108.664,212.041a99.868,99.868,0,1,0,99.869-99.867,99.868,99.868,0,0,0-99.869,99.867" transform="translate(4.24 3.83)" fill="none"/>
        <path id="Path_77"  d="M224.636,225.929c-23.345-12.581-39.293-13.373-49.64-10.68a49.8,49.8,0,0,0-35.555,29.976c-15.194-13.488-8.47-32.582-7.936-33.881,4.074-11.177,18.133-30.346,19.469-32.157,32.215-46.621-.761-65.806-.761-65.806,14.489,15.327,9.79,37.472-15.153,69.185-14.482,18.415-18.1,32.471-17.868,42.194a48.442,48.442,0,0,0,5.471,23.1c8.213,15.621,23.5,25.617,38.934,23.962a19.839,19.839,0,0,0-9.979-19.085,35.765,35.765,0,0,1,9.611-14.961c.183-.175.384-.339.574-.51a29.583,29.583,0,0,1,12.224-7.163,36.164,36.164,0,0,1,18.924-1.235c12.982,2.049,37.03,13.944,39.3,15.076,57.983,26.581,70.223-17.266,70.223-17.266-12.758,20.982-37.633,20.918-77.839-.752" transform="translate(12.31 4.973)" fill="#1D405C"/>
        <path id="Path_78"  d="M144.725,198.479c.136-.138.249-.243.339-.319a.512.512,0,0,1,.339-.113.285.285,0,0,1,.193.072.9.9,0,0,1,.134.144,5.9,5.9,0,0,0,.948.857,5.96,5.96,0,0,0,1.1.629,6.314,6.314,0,0,0,1.186.391,5.633,5.633,0,0,0,1.2.132,7.421,7.421,0,0,0,1.644-.183,4.677,4.677,0,0,0,1.463-.59,3.293,3.293,0,0,0,1.046-1.04,2.839,2.839,0,0,0,.4-1.54,2.085,2.085,0,0,0-.2-.927,2.222,2.222,0,0,0-.549-.707,3.579,3.579,0,0,0-.81-.524,7.7,7.7,0,0,0-.98-.384c-.345-.111-.7-.208-1.059-.292s-.715-.167-1.057-.242a16.985,16.985,0,0,1-2.22-.645,6.384,6.384,0,0,1-1.574-.834,3.1,3.1,0,0,1-.933-1.075,3.046,3.046,0,0,1-.308-1.4,3.8,3.8,0,0,1,.374-1.7,3.689,3.689,0,0,1,1.061-1.293,4.965,4.965,0,0,1,1.661-.82,7.688,7.688,0,0,1,2.173-.286,7.057,7.057,0,0,1,2.538.456,6.128,6.128,0,0,1,2.138,1.389c.09.09.156.16.2.21a.254.254,0,0,1,.066.16.3.3,0,0,1-.1.189c-.068.072-.169.173-.308.3-.06.057-.113.1-.154.134a.189.189,0,0,1-.123.053.647.647,0,0,1-.358-.2q-.359-.307-.754-.584a5.627,5.627,0,0,0-.867-.491,5.3,5.3,0,0,0-1.04-.345,5.776,5.776,0,0,0-1.268-.127,6.045,6.045,0,0,0-1.753.228,3.79,3.79,0,0,0-1.25.633,2.567,2.567,0,0,0-.754.933,2.615,2.615,0,0,0-.253,1.128,1.926,1.926,0,0,0,.166.816,2.1,2.1,0,0,0,.456.635,3.076,3.076,0,0,0,.687.491,7.284,7.284,0,0,0,.851.382c.3.113.623.212.958.3s.67.169,1,.245c.4.1.808.2,1.237.308s.845.24,1.256.384a8.85,8.85,0,0,1,1.163.514,4.067,4.067,0,0,1,.964.7,3.027,3.027,0,0,1,.656.952,3.072,3.072,0,0,1,.241,1.262,4.057,4.057,0,0,1-1.681,3.4,5.558,5.558,0,0,1-1.833.865,8.554,8.554,0,0,1-3.766.154,6.318,6.318,0,0,1-1.431-.44,6.167,6.167,0,0,1-2.393-1.881.88.88,0,0,1-.113-.154.3.3,0,0,1-.043-.164.233.233,0,0,1,.094-.164" transform="translate(38.319 73.585)" fill="#FFBF18"/>
        <path id="Path_79"  d="M155.532,196.1h6.715l-3.342-8.2Zm-3.272,4.674c.047-.158.1-.3.148-.436s.1-.253.15-.362l5.763-13.8a1.074,1.074,0,0,1,.123-.2.285.285,0,0,1,.236-.092h.421a.293.293,0,0,1,.245.092c.049.062.093.123.134.185l6.02,14.5a.4.4,0,0,1,.02.1.766.766,0,0,1,.01.107c0,.166-.109.261-.327.288h-.543l-.041,0a.148.148,0,0,1-.041.006.386.386,0,0,1-.37-.288l-1.435-3.486H155q-.4.984-.765,1.877c-.242.594-.462,1.139-.66,1.632a.376.376,0,0,1-.358.255.34.34,0,0,1-.092-.01h-.543c-.22-.021-.329-.111-.329-.269v-.045a.118.118,0,0,1,.01-.047" transform="translate(45.538 73.66)" fill="#FFBF18"/>
        <path id="Path_80"  d="M176.261,193.521q.339,3.584.687,7.223v.021a.327.327,0,0,1-.37.37h-.43a.352.352,0,0,1-.389-.38l-1.149-12.583-5.208,11.6a.412.412,0,0,1-.191.2.514.514,0,0,1-.23.078h-.267a.612.612,0,0,1-.236-.037.525.525,0,0,1-.185-.241q-1.312-2.91-2.61-5.8t-2.61-5.8l-1.149,12.583a.34.34,0,0,1-.378.389h-.432a.328.328,0,0,1-.277-.119.452.452,0,0,1-.092-.292L162.1,186.3a.384.384,0,0,1,.154-.3.477.477,0,0,1,.277-.093h.676a.39.39,0,0,1,.277.257l5.354,12,5.354-11.987a.375.375,0,0,1,.164-.2.617.617,0,0,1,.251-.082,2.036,2.036,0,0,1,.292-.01c.1,0,.195,0,.277,0a.423.423,0,0,1,.292.1.351.351,0,0,1,.119.241v.072q.339,3.64.676,7.223" transform="translate(53.588 73.667)" fill="#FFBF18"/>
        <path id="Path_81"  d="M174.095,196.1h6.715l-3.342-8.2Zm-3.272,4.674c.047-.158.1-.3.148-.436s.1-.253.15-.362l5.763-13.8a1.074,1.074,0,0,1,.123-.2.285.285,0,0,1,.236-.092h.421a.293.293,0,0,1,.245.092c.049.062.094.123.134.185l6.02,14.5a.4.4,0,0,1,.02.1.766.766,0,0,1,.01.107c0,.166-.109.261-.327.288h-.543l-.041,0a.148.148,0,0,1-.041.006.386.386,0,0,1-.37-.288l-1.435-3.486h-7.772q-.4.984-.765,1.877c-.241.594-.462,1.139-.66,1.632a.376.376,0,0,1-.358.255.368.368,0,0,1-.093-.01h-.541c-.22-.021-.329-.111-.329-.269v-.045a.118.118,0,0,1,.01-.047" transform="translate(63.126 73.66)" fill="#FFBF18"/>
        <path id="Path_82"  d="M213.382,128.183c-5.708-2.429-9.44-2.271-11.792-1.42a11.642,11.642,0,0,0-7.745,8.137,11.643,11.643,0,0,0-10.413-4.214c-2.493.195-5.957,1.591-10.154,6.16-7.229,7.866-12.723,9.782-17.148,6.121,0,0,6.061,8.756,16.842-1.556.417-.425,4.822-4.894,7.533-6.341a8.476,8.476,0,0,1,4.279-1.174,6.909,6.909,0,0,1,3.25.648c.055.021.111.043.166.068,1.813.8,7.587,6.417,7.587,6.4-.259-.911,1.761-7.231,3.081-8.707.039-.047.082-.088.123-.132a6.951,6.951,0,0,1,2.693-1.932,8.472,8.472,0,0,1,4.382-.693c3.067.2,8.923,2.45,9.478,2.664,14.076,4.945,15.985-5.531,15.985-5.531-2.522,5.159-8.316,5.681-18.147,1.5" transform="translate(49.214 17.115)" fill="#FFBF18"/>
        <path id="Path_83"  d="M104.189,215.871A107.738,107.738,0,1,0,211.928,108.132,107.738,107.738,0,0,0,104.189,215.871Z" transform="translate(0 0)" fill="none"/>
    </g>
</svg>
