<svg xmlns="http://www.w3.org/2000/svg" width="200.486" height="177.365" viewBox="0 0 200.486 177.365">
  <g id="Contact_us-pana" data-name="Contact us-pana" transform="translate(-16.629 -31.167)">
    <g id="freepik--background-complete--inject-65" transform="translate(27.025 31.167)">
      <rect id="Rectangle_2156" data-name="Rectangle 2156" width="74.784" height="66.905" transform="translate(0.168 24.846)" fill="#fafafa"/>
      <path id="Path_6129" data-name="Path 6129" d="M115.712,155.4v-4.825c0-3.141-.026-7.733-.043-13.579-.022-11.692-.052-28.395-.086-48.5l.168.168-74.814.03h0l.2-.2v66.9l-.177-.172,54.088.086,15.259.047h4.075l-4,.022-15.216.047-54.2.086h-.177v-.177c0-19.658,0-42.564-.022-66.9v-.2h.207l74.776.03h.172v.168c-.034,20.149-.065,36.89-.086,48.6,0,5.833-.034,10.413-.043,13.545v3.554A8.686,8.686,0,0,1,115.712,155.4Z" transform="translate(-40.76 -63.653)" fill="#e0e0e0"/>
      <path id="Path_6130" data-name="Path 6130" d="M84.481,116.185c0,.112-3.938.2-8.789.2s-8.793-.09-8.793-.2S70.82,116,75.693,116,84.481,116.078,84.481,116.185Z" transform="translate(-55.639 -79.453)" fill="#e0e0e0"/>
      <path id="Path_6131" data-name="Path 6131" d="M117.471,127.832c0,.108-10.813.2-24.125.2s-24.155-.09-24.155-.2,10.813-.2,24.155-.2S117.471,127.72,117.471,127.832Z" transform="translate(-56.942 -86.073)" fill="#e0e0e0"/>
      <rect id="Rectangle_2157" data-name="Rectangle 2157" width="3.149" height="3.149" transform="translate(11.391 50.268)" fill="#e0e0e0"/>
      <rect id="Rectangle_2158" data-name="Rectangle 2158" width="3.149" height="3.149" transform="translate(19.145 50.268)" fill="#e0e0e0"/>
      <rect id="Rectangle_2159" data-name="Rectangle 2159" width="3.149" height="3.149" transform="translate(27.042 50.126)" fill="#e0e0e0"/>
      <rect id="Rectangle_2160" data-name="Rectangle 2160" width="3.149" height="3.149" transform="translate(34.654 50.268)" fill="#e0e0e0"/>
      <rect id="Rectangle_2161" data-name="Rectangle 2161" width="3.149" height="3.149" transform="translate(42.413 50.268)" fill="#e0e0e0"/>
      <rect id="Rectangle_2162" data-name="Rectangle 2162" width="3.149" height="3.149" transform="translate(50.168 50.268)" fill="#e0e0e0"/>
      <rect id="Rectangle_2163" data-name="Rectangle 2163" width="3.149" height="3.149" transform="translate(57.922 50.268)" fill="#ebebeb"/>
      <rect id="Rectangle_2164" data-name="Rectangle 2164" width="3.149" height="3.149" transform="translate(11.391 56.967)" fill="#ebebeb"/>
      <rect id="Rectangle_2165" data-name="Rectangle 2165" width="3.149" height="3.149" transform="translate(19.145 56.967)" fill="#e0e0e0"/>
      <rect id="Rectangle_2166" data-name="Rectangle 2166" width="3.149" height="3.149" transform="translate(26.9 56.967)" fill="#ebebeb"/>
      <rect id="Rectangle_2167" data-name="Rectangle 2167" width="3.149" height="3.149" transform="translate(34.654 56.967)" fill="#e0e0e0"/>
      <rect id="Rectangle_2168" data-name="Rectangle 2168" width="3.149" height="3.149" transform="translate(42.413 56.967)" fill="#e0e0e0"/>
      <rect id="Rectangle_2169" data-name="Rectangle 2169" width="3.149" height="3.149" transform="translate(50.31 56.821)" fill="#e0e0e0"/>
      <rect id="Rectangle_2170" data-name="Rectangle 2170" width="3.149" height="3.149" transform="translate(57.922 56.967)" fill="#e0e0e0"/>
      <rect id="Rectangle_2171" data-name="Rectangle 2171" width="3.149" height="3.149" transform="translate(11.391 63.662)" fill="#e0e0e0"/>
      <rect id="Rectangle_2172" data-name="Rectangle 2172" width="3.149" height="3.149" transform="translate(19.287 63.52)" fill="#e0e0e0"/>
      <rect id="Rectangle_2173" data-name="Rectangle 2173" width="3.149" height="3.149" transform="translate(26.9 63.662)" fill="#e0e0e0"/>
      <rect id="Rectangle_2174" data-name="Rectangle 2174" width="3.149" height="3.149" transform="translate(34.654 63.662)" fill="#ebebeb"/>
      <rect id="Rectangle_2175" data-name="Rectangle 2175" width="3.149" height="3.149" transform="translate(42.413 63.662)" fill="#e0e0e0"/>
      <rect id="Rectangle_2176" data-name="Rectangle 2176" width="3.149" height="3.149" transform="translate(50.168 63.662)" fill="#e0e0e0"/>
      <rect id="Rectangle_2177" data-name="Rectangle 2177" width="3.149" height="3.149" transform="translate(57.922 63.662)" fill="#e0e0e0"/>
      <rect id="Rectangle_2178" data-name="Rectangle 2178" width="3.149" height="3.149" transform="translate(11.391 70.361)" fill="#e0e0e0"/>
      <rect id="Rectangle_2179" data-name="Rectangle 2179" width="3.149" height="3.149" transform="translate(19.145 70.361)" fill="#e0e0e0"/>
      <rect id="Rectangle_2180" data-name="Rectangle 2180" width="3.149" height="3.149" transform="translate(26.9 70.361)" fill="#e0e0e0"/>
      <rect id="Rectangle_2181" data-name="Rectangle 2181" width="3.149" height="3.149" transform="translate(34.801 70.219)" fill="#e0e0e0"/>
      <rect id="Rectangle_2182" data-name="Rectangle 2182" width="3.149" height="3.149" transform="translate(42.413 70.361)" fill="#e0e0e0"/>
      <rect id="Rectangle_2183" data-name="Rectangle 2183" width="3.149" height="3.149" transform="translate(50.168 70.361)" fill="#ebebeb"/>
      <rect id="Rectangle_2184" data-name="Rectangle 2184" width="3.149" height="3.149" transform="translate(57.922 70.361)" fill="#e0e0e0"/>
      <rect id="Rectangle_2185" data-name="Rectangle 2185" width="3.149" height="3.149" transform="translate(11.391 77.06)" fill="#e0e0e0"/>
      <rect id="Rectangle_2186" data-name="Rectangle 2186" width="3.149" height="3.149" transform="translate(19.145 77.06)" fill="#ebebeb"/>
      <rect id="Rectangle_2187" data-name="Rectangle 2187" width="3.149" height="3.149" transform="translate(26.9 77.06)" fill="#e0e0e0"/>
      <rect id="Rectangle_2188" data-name="Rectangle 2188" width="3.149" height="3.149" transform="translate(34.654 77.06)" fill="#e0e0e0"/>
      <rect id="Rectangle_2189" data-name="Rectangle 2189" width="3.149" height="3.149" transform="translate(42.413 77.06)" fill="#e0e0e0"/>
      <rect id="Rectangle_2190" data-name="Rectangle 2190" width="3.149" height="3.149" transform="translate(50.31 76.918)" fill="#e0e0e0"/>
      <rect id="Rectangle_2191" data-name="Rectangle 2191" width="3.149" height="3.149" transform="translate(57.922 77.06)" fill="#e0e0e0"/>
      <rect id="Rectangle_2192" data-name="Rectangle 2192" width="4.808" height="23.914" transform="matrix(1, -0.005, 0.005, 1, 154.595, 8.943)" fill="#e0e0e0"/>
      <rect id="Rectangle_2193" data-name="Rectangle 2193" width="12.446" height="13.2" transform="matrix(1, -0.005, 0.005, 1, 112.958, 9.048)" fill="#ebebeb"/>
      <rect id="Rectangle_2194" data-name="Rectangle 2194" width="12.446" height="13.2" transform="matrix(1, -0.005, 0.005, 1, 125.347, 8.977)" fill="#f5f5f5"/>
      <path id="Path_6132" data-name="Path 6132" d="M302.881,60.126q12.407.1,24.832-.116a.134.134,0,0,0,0-.263c-8.267-.047-16.56,0-24.828.151a.116.116,0,0,0,0,.228Z" transform="translate(-189.906 -47.424)" fill="#e0e0e0"/>
      <rect id="Rectangle_2195" data-name="Rectangle 2195" width="22.613" height="10.757" transform="matrix(1, -0.005, 0.005, 1, 105.205, 22.083)" fill="#ebebeb"/>
      <rect id="Rectangle_2196" data-name="Rectangle 2196" width="22.613" height="10.757" transform="matrix(1, -0.005, 0.005, 1, 127.709, 21.961)" fill="#f5f5f5"/>
      <path id="Path_6133" data-name="Path 6133" d="M284.876,88.693c15.022.172,30.1,0,45.114-.224a.134.134,0,0,0,0-.263c-15.022-.078-30.1-.069-45.114.258a.116.116,0,0,0,0,.228Z" transform="translate(-179.655 -63.611)" fill="#e0e0e0"/>
      <rect id="Rectangle_2197" data-name="Rectangle 2197" width="87.605" height="3.856" transform="translate(96.76 32.85)" fill="#e0e0e0"/>
      <rect id="Rectangle_2198" data-name="Rectangle 2198" width="3.554" height="13.153" transform="translate(111.101 34.703)" fill="#e0e0e0"/>
      <rect id="Rectangle_2199" data-name="Rectangle 2199" width="3.558" height="13.153" transform="translate(164.19 34.703)" fill="#e0e0e0"/>
      <rect id="Rectangle_2200" data-name="Rectangle 2200" width="4.808" height="32.888" transform="matrix(1, -0.005, 0.005, 1, 159.285, 0.026)" fill="#ebebeb"/>
      <rect id="Rectangle_2201" data-name="Rectangle 2201" width="7.466" height="26.654" transform="translate(164.226 5.326) rotate(-0.573)" fill="#f5f5f5"/>
      <path id="Path_6134" data-name="Path 6134" d="M429.136,57.149a53.973,53.973,0,0,1-7.466,0,53.975,53.975,0,0,1,7.466,0Z" transform="translate(-257.57 -45.882)" fill="#e0e0e0"/>
      <path id="Path_6135" data-name="Path 6135" d="M429.136,54.549a53.973,53.973,0,0,1-7.466,0,53.975,53.975,0,0,1,7.466,0Z" transform="translate(-257.57 -44.403)" fill="#e0e0e0"/>
      <path id="Path_6136" data-name="Path 6136" d="M429.136,97.829a53.977,53.977,0,0,1-7.466,0A26.705,26.705,0,0,1,425.4,97.7,23.951,23.951,0,0,1,429.136,97.829Z" transform="translate(-257.57 -69.037)" fill="#e0e0e0"/>
      <path id="Path_6137" data-name="Path 6137" d="M429.136,95.189a53.977,53.977,0,0,1-7.466,0,53.972,53.972,0,0,1,7.466,0Z" transform="translate(-257.57 -67.534)" fill="#e0e0e0"/>
      <path id="Path_6138" data-name="Path 6138" d="M430.4,73.821c-.069,0-.129-2.688-.129-6.005s.06-6.005.129-6.005.129,2.688.129,6.005S430.472,73.821,430.4,73.821Z" transform="translate(-262.465 -48.609)" fill="#e0e0e0"/>
      <rect id="Rectangle_2202" data-name="Rectangle 2202" width="8.129" height="20.119" transform="translate(171.63 12.676)" fill="#ebebeb"/>
      <path id="Path_6139" data-name="Path 6139" d="M415.456,42.393a1.383,1.383,0,1,1-1.379-1.383A1.383,1.383,0,0,1,415.456,42.393Z" transform="translate(-252.459 -36.77)" fill="#e0e0e0"/>
      <rect id="Rectangle_2203" data-name="Rectangle 2203" width="0.853" height="19.567" transform="translate(161.187 9.423)" fill="#e0e0e0"/>
    </g>
    <g id="freepik--Plant--inject-65" transform="translate(16.629 135.046)">
      <path id="Path_6140" data-name="Path 6140" d="M70.677,341.364a11.957,11.957,0,0,1,7.414-.9,6.167,6.167,0,0,1,3.662,1.637,2.629,2.629,0,0,1,.034,3.653,3.5,3.5,0,0,1-2.3.586c-1.96-.022-4.136-.366-5.7.81-.9.676-1.491,1.792-2.555,2.124a2.5,2.5,0,0,1-2.779-1.236,4.308,4.308,0,0,1-.314-3.184,4.86,4.86,0,0,1,2.542-3.49Z" transform="translate(-45.849 -310.976)" fill="#00ae9f"/>
      <path id="Path_6141" data-name="Path 6141" d="M60.551,292.712c1.379,1.969,4.058,1.314,5.3.116a9.982,9.982,0,0,0,2.245-4.605c1.09-3.8,2.193-7.755,1.379-11.632a6.432,6.432,0,0,0-1.486-3.162,3.378,3.378,0,0,0-3.2-1.068c-1.353.358-2.189,1.68-2.8,2.942A27.714,27.714,0,0,0,59.25,287.21a9.755,9.755,0,0,0,1.292,5.514" transform="translate(-40.888 -272.292)" fill="#00ae9f"/>
      <path id="Path_6142" data-name="Path 6142" d="M32.5,303.886a7.159,7.159,0,0,0,1.116-6.6,12.6,12.6,0,0,0-3.9-5.665,21.027,21.027,0,0,0-6.992-4.123,7.411,7.411,0,0,0-3.145-.534,3.3,3.3,0,0,0-2.641,1.594c-.737,1.4-.03,3.106.732,4.5a53.273,53.273,0,0,0,4.592,6.992,12.268,12.268,0,0,0,5.053,4.308c2.1.784,4.278.711,5.411-.728" transform="translate(-16.629 -280.641)" fill="#00ae9f"/>
      <path id="Path_6143" data-name="Path 6143" d="M62.013,364.731a4.463,4.463,0,0,0,.125-.892c.06-.655.142-1.469.237-2.443a34.967,34.967,0,0,1,.547-3.584,28.045,28.045,0,0,1,1.292-4.226,15.652,15.652,0,0,1,2.154-3.826,8.026,8.026,0,0,1,2.731-2.266,7.614,7.614,0,0,1,2.309-.7,4.365,4.365,0,0,0,.892-.129,4.073,4.073,0,0,0-.9,0,7.027,7.027,0,0,0-2.4.62,8.073,8.073,0,0,0-2.878,2.288,15.32,15.32,0,0,0-2.236,3.9,25.849,25.849,0,0,0-1.292,4.308,30.5,30.5,0,0,0-.478,3.627c-.078,1.038-.1,1.878-.121,2.46a3.977,3.977,0,0,0,.022.857Z" transform="translate(-42.441 -314.611)" fill="#263238"/>
      <path id="Path_6144" data-name="Path 6144" d="M62.177,330.9a1.917,1.917,0,0,0,0-.431v-1.189c0-1.03,0-2.52.052-4.36.09-3.683.431-7.647,1.021-13.234.577-5.252,1.357-11.369,2.18-15.341.172-.9.353-1.723.517-2.43s.3-1.331.431-1.831.207-.862.28-1.15a1.723,1.723,0,0,0,.073-.431,1.543,1.543,0,0,0-.146.388c-.09.3-.2.676-.345,1.137s-.31,1.1-.487,1.818-.383,1.521-.577,2.421a136.026,136.026,0,0,0-2.292,14.217c-.612,5.6-.887,10.7-.913,14.385,0,1.848,0,3.343.065,4.373.03.482.056.862.073,1.185A1.767,1.767,0,0,0,62.177,330.9Z" transform="translate(-42.436 -282.656)" fill="#263238"/>
      <path id="Path_6145" data-name="Path 6145" d="M45.137,325.09a7.818,7.818,0,0,0,0-1.241,33.767,33.767,0,0,0-.379-3.36,44.05,44.05,0,0,0-1.09-4.894,40.011,40.011,0,0,0-2.059-5.777,30.863,30.863,0,0,0-6.031-9.362,15.81,15.81,0,0,0-1.413-1.314c-.22-.181-.409-.366-.607-.508l-.547-.379A7.754,7.754,0,0,0,32,297.57a37.024,37.024,0,0,1,3.421,3.05,32.557,32.557,0,0,1,5.855,9.327,46.142,46.142,0,0,1,2.059,5.738,49.483,49.483,0,0,1,1.159,4.847c.267,1.4.4,2.537.5,3.33a8.8,8.8,0,0,0,.151,1.228Z" transform="translate(-25.376 -286.68)" fill="#263238"/>
      <path id="Path_6146" data-name="Path 6146" d="M40.45,401.71l.982,13.5h17.34l.987-13.5Z" transform="translate(-30.187 -345.956)" fill="#ed278d"/>
      <rect id="Rectangle_2204" data-name="Rectangle 2204" width="23.053" height="5.32" transform="translate(8.587 50.434)" fill="#d60478"/>
      <path id="Path_6147" data-name="Path 6147" d="M36.56,431.84v1.473H59.234V431.84Z" transform="translate(-27.973 -363.105)" fill="#455a64"/>
      <path id="Path_6148" data-name="Path 6148" d="M40.134,437.858l-1.064-2.6H59.835l-1.241,2.6Z" transform="translate(-29.402 -365.052)" fill="#455a64"/>
      <path id="Path_6149" data-name="Path 6149" d="M59.823,409.507a.527.527,0,0,1-.082.121c-.069.095-.151.207-.258.345l-1.008,1.292-.047.06-.043-.06L55.9,407.818h.142L53.6,411.265l-.078.108-.086-.1-2.9-3.446h.168c-.052.06-.108.129-.159.2l-2.585,3.248-.086.108-.078-.112-2.447-3.446H45.5c-1.2,1.374-2.227,2.537-3.016,3.446l-.052.06-.039-.069c-.4-.663-.715-1.2-.943-1.581-.1-.172-.181-.31-.241-.431a.607.607,0,0,1-.078-.151,1.687,1.687,0,0,1,.1.134l.267.4.991,1.555H42.4l2.96-3.472.078-.086.065.095,2.469,3.446h-.172l2.585-3.253.159-.2.086-.1.082.1c1.017,1.211,1.99,2.378,2.891,3.446h-.164l2.469-3.446.073-.1.069.1,2.43,3.472h-.086l1.051-1.254.28-.327Q59.819,409.477,59.823,409.507Z" transform="translate(-30.575 -349.319)" fill="#e0e0e0"/>
      <path id="Path_6150" data-name="Path 6150" d="M60.188,401.358c0,.06-4.347.108-9.7.108s-9.706-.047-9.706-.108,4.343-.108,9.706-.108S60.188,401.3,60.188,401.358Z" transform="translate(-30.375 -345.694)" fill="#455a64"/>
      <path id="Path_6151" data-name="Path 6151" d="M59.992,435.458c0,.06-4.739.108-10.546.108s-10.546-.047-10.546-.108,4.739-.108,10.546-.108S59.992,435.4,59.992,435.458Z" transform="translate(-29.305 -365.103)" fill="#263238"/>
    </g>
    <g id="freepik--Chair--inject-65" transform="translate(159.386 150.908)">
      <path id="Path_6152" data-name="Path 6152" d="M354.505,309.11H394.8a6.518,6.518,0,0,1,6.518,6.518V366.3H348V315.628A6.518,6.518,0,0,1,354.505,309.11Z" transform="translate(-348 -309.11)" fill="#455a64"/>
      <path id="Path_6153" data-name="Path 6153" d="M461.192,309.79c.065,0,.112,12.73.112,28.433s-.047,28.433-.112,28.433-.112-12.73-.112-28.433S461.132,309.79,461.192,309.79Z" transform="translate(-412.364 -309.497)" fill="#263238"/>
    </g>
    <g id="freepik--Character--inject-65" transform="translate(94.891 78.736)">
      <path id="Path_6154" data-name="Path 6154" d="M380.127,160.68a45.261,45.261,0,0,1,8.108,23.841c.25,5.73-.521,11.834,2.2,16.883,3.9,7.246,12.343,7,14.928,14.811,1.124,3.4-.948,10.874-1.508,14.411-.633,4.015,1.822,7.388,1.189,11.408-.582,3.683-3.339,6.311-6.647,8.026a9.619,9.619,0,0,1-8.733.3c-5.842-2.417-10.7-4.967-14.859-9.723-5.842-6.678-7.608-15.94-8.616-24.741a217.071,217.071,0,0,1,1.323-58.482" transform="translate(-293.074 -150.592)" fill="#263238"/>
      <path id="Path_6155" data-name="Path 6155" d="M415.184,290.1a1.555,1.555,0,0,1,.185-.047c.125-.03.314-.06.556-.134a9.478,9.478,0,0,0,4.679-2.942,5.518,5.518,0,0,0,1.043-1.848,10.14,10.14,0,0,0,.366-2.365,23.3,23.3,0,0,0-.56-5.488,49.607,49.607,0,0,1-1.008-6.3,13.054,13.054,0,0,1,.246-3.446,22.1,22.1,0,0,1,1.094-3.446,36.939,36.939,0,0,0,1.232-3.5,8.934,8.934,0,0,0,.3-3.748,8.474,8.474,0,0,0-1.4-3.481,15.973,15.973,0,0,0-2.443-2.766c-1.779-1.663-3.7-3.016-5.351-4.575a30.307,30.307,0,0,1-6.971-9.624,29.5,29.5,0,0,1-1.6-4.308c-.207-.642-.327-1.262-.474-1.822s-.211-1.086-.306-1.551c-.134-.943-.237-1.672-.263-2.154,0-.241-.034-.431-.043-.569a1.045,1.045,0,0,1,0-.194.964.964,0,0,0,.03.194c.03.129.039.323.069.564.039.5.155,1.224.3,2.154.1.465.207.982.323,1.547a15.552,15.552,0,0,0,.491,1.809,30.045,30.045,0,0,0,1.624,4.265,30.45,30.45,0,0,0,6.966,9.538c1.637,1.525,3.567,2.891,5.364,4.562a16.307,16.307,0,0,1,2.477,2.8,8.685,8.685,0,0,1,1.435,3.576,9.134,9.134,0,0,1-.306,3.839c-.336,1.224-.806,2.382-1.241,3.52a22.458,22.458,0,0,0-1.094,3.4,12.825,12.825,0,0,0-.246,3.4,46.132,46.132,0,0,0,.987,6.277,23.471,23.471,0,0,1,.534,5.532,10.577,10.577,0,0,1-.388,2.4,5.827,5.827,0,0,1-1.081,1.883,8.926,8.926,0,0,1-2.723,2.133,8.721,8.721,0,0,1-2.046.775A5.041,5.041,0,0,1,415.184,290.1Z" transform="translate(-315.642 -189.508)" fill="#455a64"/>
      <path id="Path_6156" data-name="Path 6156" d="M243.16,335.069l20.679-9.818s8.052-39.1,9.577-42.03,7.884-5.471,7.884-5.471l-1.064,52.938-1.9,12.222-29.157,2.761Z" transform="translate(-223.831 -219.089)" fill="#00ae9f"/>
      <path id="Path_6157" data-name="Path 6157" d="M201.683,432.3c-.116,0-.689.353-.211,1.262s3.985,3.912,5.015,2.865-.543-2.322-.543-2.322Z" transform="translate(-199.996 -307.057)" fill="#ffbe9d"/>
      <path id="Path_6158" data-name="Path 6158" d="M204.388,420.842A38.507,38.507,0,0,1,210.243,422a6.16,6.16,0,0,0,5.372-.767,15.29,15.29,0,0,0,2.292-1.87l5.394-.086a6.462,6.462,0,0,0,1.051-6.682,7.251,7.251,0,0,0-1.232-2.107,5.713,5.713,0,0,0-3.4-1.555l-6.406,1.383s-9.909-.711-11.692.125c0,0-2.219,1.314-2.9,1.865-.258.211-1.047,2.736.569,4.05,0,0-1.4,1.116-.642,2.12l.362.431s-.943,1.224-.457,1.758,4.739,3.016,6.251,2.43.263-2-.409-2.262" transform="translate(-198.293 -293.755)" fill="#ffbe9d"/>
      <path id="Path_6159" data-name="Path 6159" d="M201.626,421.09a4.677,4.677,0,0,1,.526.19c.332.125.819.306,1.43.5.3.1.638.2,1,.293s.758.177,1.167.31a2.494,2.494,0,0,1,1.163.7,1.426,1.426,0,0,1,.31,1.417,1.111,1.111,0,0,1-.521.564,2.024,2.024,0,0,1-.707.2,5.978,5.978,0,0,1-1.348-.073,12.065,12.065,0,0,1-2.189-.569c-.607-.215-1.086-.431-1.417-.56a2.814,2.814,0,0,1-.5-.241,4.522,4.522,0,0,1,.53.177c.336.121.823.306,1.43.5a12.924,12.924,0,0,0,2.154.53,5.956,5.956,0,0,0,1.292.06,1.806,1.806,0,0,0,.642-.181.93.93,0,0,0,.431-.474,1.262,1.262,0,0,0-.25-1.232,2.357,2.357,0,0,0-1.081-.659c-.4-.133-.793-.22-1.155-.323s-.7-.211-1-.315c-.612-.211-1.09-.431-1.417-.556A2.942,2.942,0,0,1,201.626,421.09Z" transform="translate(-199.572 -300.676)" fill="#eb996e"/>
      <path id="Path_6160" data-name="Path 6160" d="M202.693,414a3.629,3.629,0,0,1,.521.19c.336.129.819.314,1.422.513s1.331.431,2.154.616a2.972,2.972,0,0,1,1.254.508,1.047,1.047,0,0,1,.366.651,1.34,1.34,0,0,1-.108.754,1.805,1.805,0,0,1-1.107.939,2.909,2.909,0,0,1-1.348.108,12.959,12.959,0,0,1-2.154-.629l-1.426-.5a3.983,3.983,0,0,1-.517-.2,3.288,3.288,0,0,1,.539.138l1.443.431a14.658,14.658,0,0,0,2.154.586,2.8,2.8,0,0,0,1.271-.112,1.65,1.65,0,0,0,1-.862,1,1,0,0,0-.211-1.2,2.865,2.865,0,0,0-1.18-.478,20.922,20.922,0,0,1-2.154-.655c-.6-.224-1.077-.431-1.4-.569A3.479,3.479,0,0,1,202.693,414Z" transform="translate(-200.261 -296.641)" fill="#eb996e"/>
      <path id="Path_6161" data-name="Path 6161" d="M208.135,413.723a5.364,5.364,0,0,1-.194-.862,4.739,4.739,0,0,1-.211-.862,1.52,1.52,0,0,1,.383.806,1.43,1.43,0,0,1,.022.918Z" transform="translate(-203.665 -295.503)" fill="#eb996e"/>
      <path id="Path_6162" data-name="Path 6162" d="M223.417,408.315l-3.77-1.43s-10.464-4.885-10.641-4.618-.745.233-.62,1.508,6.221,3.851,6.415,4.308-.129,2.68,2.124,4.278A7.8,7.8,0,0,0,220.8,414" transform="translate(-204.028 -289.956)" fill="#ffbe9d"/>
      <path id="Path_6163" data-name="Path 6163" d="M220.688,413.8h-.1l-.258-.026a6.266,6.266,0,0,1-.978-.237,9.568,9.568,0,0,1-3.2-1.84,4.506,4.506,0,0,1-1.292-2.2,10.005,10.005,0,0,1-.224-1.409.785.785,0,0,0-.039-.159.311.311,0,0,0-.1-.1,3.406,3.406,0,0,0-.306-.2c-.211-.125-.431-.246-.663-.366-.9-.487-1.874-.974-2.848-1.534a16.992,16.992,0,0,1-1.452-.918,5.3,5.3,0,0,1-.681-.569,1.724,1.724,0,0,1-.289-.362.707.707,0,0,1-.086-.237,1.063,1.063,0,0,1,0-.233,1.65,1.65,0,0,1,.159-.909,1.107,1.107,0,0,1,.332-.332.737.737,0,0,0,.146-.125l.034-.039a.108.108,0,0,1,.073-.022.327.327,0,0,1,.073,0l.116.03c.564.172,1.086.4,1.607.616q1.551.646,2.96,1.292c1.883.862,3.563,1.628,4.976,2.292.353.159.685.327,1,.465l.922.362,1.478.586.931.375.237.1a.089.089,0,0,1,.082.039s-.03,0-.086-.026l-.246-.082-.943-.349-1.491-.53-.931-.349c-.327-.134-.659-.3-1.012-.457l-4.989-2.253q-1.415-.646-2.964-1.292c-.517-.211-1.043-.431-1.585-.607l-.095-.022h-.034v-.043h0c.121.078.03.026.056.043h0a.789.789,0,0,1-.181.164.884.884,0,0,0-.284.28,1.5,1.5,0,0,0-.138.814.805.805,0,0,0,.09.388,1.658,1.658,0,0,0,.258.327,5.044,5.044,0,0,0,.659.547c.465.336.952.629,1.435.909.969.56,1.93,1.051,2.839,1.538.228.125.431.246.668.379a3.734,3.734,0,0,1,.323.207.431.431,0,0,1,.146.168.861.861,0,0,1,.043.194,11.17,11.17,0,0,0,.211,1.4,4.429,4.429,0,0,0,1.232,2.154,9.8,9.8,0,0,0,3.132,1.865,6.921,6.921,0,0,0,.961.263c.112.026.2.034.258.043Z" transform="translate(-203.913 -289.802)" fill="#eb996e"/>
      <path id="Path_6164" data-name="Path 6164" d="M204.748,430.56a1.293,1.293,0,0,1,.4.116,4.056,4.056,0,0,1,.987.569,3.615,3.615,0,0,1,.569.556,1.176,1.176,0,0,1,.306.862.974.974,0,0,1-.7.754,1.861,1.861,0,0,1-1.094-.034,20.054,20.054,0,0,1-3.472-1.391,10.411,10.411,0,0,1-.974-.577,1.665,1.665,0,0,1-.332-.25,2.035,2.035,0,0,1,.366.19c.233.134.569.319,1,.526a24.333,24.333,0,0,0,3.446,1.336,1.723,1.723,0,0,0,1,.039.819.819,0,0,0,.59-.612,1.056,1.056,0,0,0-.258-.767,3.588,3.588,0,0,0-.534-.547A5.983,5.983,0,0,0,204.748,430.56Z" transform="translate(-199.515 -306.067)" fill="#eb996e"/>
      <g id="Group_8032" data-name="Group 8032" transform="translate(44.16 86.272)" opacity="0.3">
        <path id="Path_6165" data-name="Path 6165" d="M311,379.389c-3.386-11.421-6.372-26.129-9.758-37.549-1.241,10.542.31,24.461,2.249,34.9.228,1.223.332,2.421,1.292,3.227l6.217-.573" transform="translate(-300.798 -341.84)" fill="#00ae9f"/>
      </g>
      <path id="Path_6166" data-name="Path 6166" d="M299.9,398.192c-.047,0-.19-.745-.651-1.887a13.391,13.391,0,0,0-.969-1.921,14.574,14.574,0,0,0-1.594-2.094,14.192,14.192,0,0,0-1.973-1.745,12.842,12.842,0,0,0-1.844-1.112c-1.1-.543-1.844-.741-1.831-.784a2.319,2.319,0,0,1,.526.125,4.381,4.381,0,0,1,.6.2,7.85,7.85,0,0,1,.775.319,12.062,12.062,0,0,1,1.9,1.086,13.787,13.787,0,0,1,2.02,1.758,13.935,13.935,0,0,1,1.6,2.154,12.322,12.322,0,0,1,.944,1.969c.116.289.185.56.258.8a4.432,4.432,0,0,1,.155.616,2.753,2.753,0,0,1,.086.521Z" transform="translate(-251.084 -282.212)" fill="#263238"/>
      <path id="Path_6167" data-name="Path 6167" d="M312.286,263.248s-10.826,24.19-10.826,28.645,8.112,35.3,8.112,35.3c-.078,1.228-.392,7.375-.392,7.375l45.489.159h0l.694-9.779-3.55-9.318,3.546-26.344s2.387-15.294,2.585-19.572c.267-5.351-17.861-11.554-17.366-12.3l-3.128-4.2-17.926,14.557-3.546-10.236-4.248,4.011Z" transform="translate(-257.015 -205.121)" fill="#00ae9f"/>
      <path id="Path_6168" data-name="Path 6168" d="M355.65,284.964c-4.924,8.328-13.932,23.5-13.932,23.5l-16.147,18.413s-1.055,9.353,1.055,12.222a19.95,19.95,0,0,0,5.734,4.829s4.261,0,9.676-4.528,20.351-23.238,20.351-23.238l5.131-6.191s6.117-15.027,4.976-22.673a7.693,7.693,0,0,0-3.369-5.527C364.917,278.381,358.4,280.307,355.65,284.964Z" transform="translate(-270.589 -220.4)" fill="#00ae9f"/>
      <path id="Path_6169" data-name="Path 6169" d="M367.917,337.4a1.33,1.33,0,0,1-.078.172c-.056.121-.138.28-.237.491-.215.431-.543,1.055-.991,1.848-.892,1.59-2.279,3.834-4.088,6.544-.909,1.353-1.921,2.822-3.037,4.381a51.718,51.718,0,0,0-3.425,5.045c-1.043,1.878-1.99,3.929-3.132,5.98a37.775,37.775,0,0,1-4.106,5.993,24.013,24.013,0,0,1-5.437,4.808,17.12,17.12,0,0,1-6.3,2.438,14.118,14.118,0,0,1-6.1-.258,11.557,11.557,0,0,1-2.585-1.047,11.8,11.8,0,0,1-2.128-1.439,9.654,9.654,0,0,1-1.6-1.693,9.519,9.519,0,0,1-1.06-1.792,11.339,11.339,0,0,1-.862-3.205,14.816,14.816,0,0,1-.073-2.1c0-.233.026-.431.034-.547a1.285,1.285,0,0,1,0-.185,1.231,1.231,0,0,1,0,.185c0,.134,0,.315,0,.547a15.944,15.944,0,0,0,.112,2.085,11.452,11.452,0,0,0,.9,3.166,9.629,9.629,0,0,0,1.06,1.758,9.44,9.44,0,0,0,1.594,1.659,11.657,11.657,0,0,0,2.107,1.409,11.522,11.522,0,0,0,2.546,1.021,14.024,14.024,0,0,0,6.031.233,16.949,16.949,0,0,0,6.212-2.421,23.889,23.889,0,0,0,5.389-4.769,37.376,37.376,0,0,0,4.08-5.954c1.142-2.038,2.064-4.106,3.145-5.975a56.061,56.061,0,0,1,3.446-5.053c1.12-1.551,2.154-3.016,3.054-4.36,1.827-2.693,3.231-4.924,4.144-6.5.461-.788.8-1.4,1.025-1.827l.263-.482a.833.833,0,0,1,.1-.159Z" transform="translate(-269.086 -253.041)" fill="#263238"/>
      <path id="Path_6170" data-name="Path 6170" d="M322.1,386.83c0,.03-.228.172-.526.5a2.585,2.585,0,0,0-.293,3.171,6.078,6.078,0,0,0,.431.59c0,.026-.271-.121-.556-.5a2.542,2.542,0,0,1,.314-3.373,1.293,1.293,0,0,1,.629-.392Z" transform="translate(-267.94 -281.176)" fill="#263238"/>
      <path id="Path_6171" data-name="Path 6171" d="M330.93,377.719a1.293,1.293,0,0,1,.254.06l.3.082.431.078a6,6,0,0,0,2.662-.25,9.749,9.749,0,0,0,3.446-2.016,25.956,25.956,0,0,0,3.21-3.727,22.521,22.521,0,0,1,3.313-3.7c.586-.491,1.159-.926,1.637-1.4a4.587,4.587,0,0,0,1.077-1.486,2.71,2.71,0,0,0-.246-2.542,2,2,0,0,0-.78-.582,1.322,1.322,0,0,1,.25.073,1.65,1.65,0,0,1,.6.457,2.783,2.783,0,0,1,.327,2.654,4.79,4.79,0,0,1-1.094,1.56c-.487.483-1.064.931-1.637,1.422a23,23,0,0,0-3.266,3.679,25.445,25.445,0,0,1-3.257,3.748,9.749,9.749,0,0,1-3.515,2.008,5.854,5.854,0,0,1-2.727.185l-.431-.1c-.121-.034-.22-.078-.3-.1A1.166,1.166,0,0,1,330.93,377.719Z" transform="translate(-273.789 -267.18)" fill="#263238"/>
      <path id="Path_6172" data-name="Path 6172" d="M380.214,285.51a2.328,2.328,0,0,1-.181.258c-.142.181-.323.431-.551.719-.491.612-1.168,1.525-1.995,2.662a87.14,87.14,0,0,0-5.743,9.336c-2.033,3.774-3.714,7.276-5,9.775-.638,1.254-1.163,2.262-1.547,2.951l-.418.788a1.581,1.581,0,0,1-.168.267,1.669,1.669,0,0,1,.125-.289l.4-.814,1.478-2.977c1.249-2.52,2.912-6.031,4.946-9.814a78.4,78.4,0,0,1,5.816-9.323c.862-1.124,1.538-2.029,2.051-2.624l.586-.694a1.368,1.368,0,0,1,.2-.224Z" transform="translate(-292.959 -223.506)" fill="#263238"/>
      <g id="Group_8033" data-name="Group 8033" transform="translate(53.621 106.744)" opacity="0.3">
        <path id="Path_6173" data-name="Path 6173" d="M322.777,392.41c2.1,1.137,4.407,1.017,6.751.56a10.477,10.477,0,0,0,6.031-3.61,10.465,10.465,0,0,1-2.787,5.506,6.661,6.661,0,0,1-5.7,1.93,5.454,5.454,0,0,1-4.308-4.386" transform="translate(-322.76 -389.36)" fill="#00ae9f"/>
      </g>
      <g id="Group_8034" data-name="Group 8034" transform="translate(71.644 85.755)" opacity="0.3">
        <path id="Path_6174" data-name="Path 6174" d="M366.449,352.246a9.258,9.258,0,0,1,1.292,6.945,13.6,13.6,0,0,0,1.723-9.387,30.788,30.788,0,0,0-3.244-9.163,30.539,30.539,0,0,0-1.62,3.016,32.79,32.79,0,0,0,.8,6.053,3.365,3.365,0,0,1,.978,3.042" transform="translate(-364.594 -340.64)" fill="#00ae9f"/>
      </g>
      <g id="Group_8035" data-name="Group 8035" transform="translate(60.756 86.556)" opacity="0.3">
        <path id="Path_6175" data-name="Path 6175" d="M339.32,377.008a14.016,14.016,0,0,0,15.32.754c4.511-2.641,7.289-7.4,9.866-11.942,3.994-7.039,8.862-15.746,11.714-23.32,0,0-7.992,10.9-10.4,15.6a77.565,77.565,0,0,1-5.454,9.168,23.5,23.5,0,0,1-20.627,10.051" transform="translate(-339.32 -342.5)" fill="#00ae9f"/>
      </g>
      <path id="Path_6176" data-name="Path 6176" d="M310.984,398.667a.43.43,0,0,1,0-.134v-.392c0-.366.03-.862.056-1.495.06-1.292.142-3.145.246-5.355v.052c-.771-2.585-1.676-5.721-2.615-9.107-1.241-4.489-2.288-8.573-2.994-11.541-.349-1.482-.625-2.688-.8-3.524-.082-.4-.146-.724-.194-.961a2.877,2.877,0,0,1-.056-.34,1.759,1.759,0,0,1,.1.327l.237.956c.211.862.5,2.042.862,3.5.745,2.96,1.818,7.035,3.059,11.52.935,3.386,1.827,6.522,2.585,9.112v.03c-.134,2.21-.246,4.05-.327,5.359-.043.625-.078,1.124-.1,1.491a3.817,3.817,0,0,1-.034.388.454.454,0,0,1-.022.112Z" transform="translate(-258.819 -269.246)" fill="#263238"/>
      <path id="Path_6177" data-name="Path 6177" d="M413.906,282.172c0,.034-.465-.129-1.211-.314a14.607,14.607,0,0,0-2.968-.431,14.3,14.3,0,0,0-2.99.233c-.758.142-1.219.271-1.228.237a1.11,1.11,0,0,1,.31-.138,8.876,8.876,0,0,1,.883-.254,11.726,11.726,0,0,1,3.016-.3,11.9,11.9,0,0,1,3.016.482,7.327,7.327,0,0,1,.862.31C413.812,282.1,413.906,282.155,413.906,282.172Z" transform="translate(-316.239 -221.051)" fill="#263238"/>
      <path id="Path_6178" data-name="Path 6178" d="M373.464,265a1.264,1.264,0,0,1-.116.224l-.366.616c-.323.534-.8,1.292-1.409,2.236-1.219,1.865-2.964,4.411-5.028,7.117-1.659,2.184-3.266,4.144-4.579,5.678l-.095.108-.056-.129c-.629-1.37-1.146-2.507-1.521-3.33-.168-.379-.3-.689-.409-.926a1.723,1.723,0,0,1-.125-.332,1.767,1.767,0,0,1,.177.31c.116.233.263.534.452.9.392.814.935,1.939,1.585,3.3l-.146-.022c1.292-1.551,2.882-3.515,4.541-5.7,2.059-2.705,3.817-5.23,5.071-7.074l1.469-2.193.4-.595A.953.953,0,0,1,373.464,265Z" transform="translate(-290.199 -211.831)" fill="#263238"/>
      <path id="Path_6179" data-name="Path 6179" d="M415.864,413.1c-.065,0,.134-2.245.431-5s.6-4.976.663-4.967-.138,2.24-.431,4.993S415.916,413.109,415.864,413.1Z" transform="translate(-322.125 -290.459)" fill="#263238"/>
      <path id="Path_6180" data-name="Path 6180" d="M343.5,424.9a32.1,32.1,0,0,1,.513,3.757,30.523,30.523,0,0,1,.289,3.778,33.238,33.238,0,0,1-.513-3.757,32.674,32.674,0,0,1-.289-3.778Z" transform="translate(-280.944 -302.845)" fill="#263238"/>
      <path id="Path_6181" data-name="Path 6181" d="M395.536,310.134a.551.551,0,0,0-.836-.332l-.03.026a.521.521,0,1,0,.862.306Z" transform="translate(-309.97 -237.282)" fill="#fff"/>
      <path id="Path_6182" data-name="Path 6182" d="M385.111,284.714a.551.551,0,0,0-.836-.332l-.026.026a.521.521,0,1,0,.862.306Z" transform="translate(-304.039 -222.813)" fill="#fff"/>
      <path id="Path_6183" data-name="Path 6183" d="M361.181,305.184a.551.551,0,0,0-.836-.332h-.026a.521.521,0,1,0,.862.31Z" transform="translate(-290.417 -234.465)" fill="#fff"/>
      <path id="Path_6184" data-name="Path 6184" d="M335.311,294.9a.547.547,0,0,0-.831-.332l-.03.026a.521.521,0,1,0,.862.306Z" transform="translate(-275.693 -228.613)" fill="#fff"/>
      <path id="Path_6185" data-name="Path 6185" d="M330.726,284.774a.551.551,0,0,0-.836-.332l-.03.026a.526.526,0,1,0,.862.306Z" transform="translate(-273.077 -222.848)" fill="#fff"/>
      <path id="Path_6186" data-name="Path 6186" d="M332.725,273.074a.551.551,0,0,0-.836-.332l-.03.022a.521.521,0,1,0,.862.31Z" transform="translate(-274.218 -216.188)" fill="#fff"/>
      <path id="Path_6187" data-name="Path 6187" d="M318.395,289.174a.551.551,0,0,0-.836-.332l-.03.022a.521.521,0,1,0,.862.31Z" transform="translate(-266.062 -225.352)" fill="#fff"/>
      <path id="Path_6188" data-name="Path 6188" d="M351.631,293.814a.547.547,0,0,0-.831-.332l-.03.026a.521.521,0,1,0,.862.306Z" transform="translate(-284.982 -227.993)" fill="#fff"/>
      <path id="Path_6189" data-name="Path 6189" d="M323.485,314.684a.551.551,0,0,0-.836-.332h-.03a.521.521,0,1,0,.862.31Z" transform="translate(-268.959 -239.872)" fill="#fff"/>
      <path id="Path_6190" data-name="Path 6190" d="M297.771,374.7a.551.551,0,0,0-.836-.332l-.026.022a.521.521,0,1,0,.862.31Z" transform="translate(-254.325 -274.035)" fill="#fff"/>
      <path id="Path_6191" data-name="Path 6191" d="M306.946,340.084a.551.551,0,0,0-.836-.332l-.03.026a.521.521,0,1,0,.862.306Z" transform="translate(-259.545 -254.329)" fill="#fff"/>
      <path id="Path_6192" data-name="Path 6192" d="M374.625,279.3a.551.551,0,0,0-.836-.332l-.03.022a.521.521,0,1,0,.862.31Z" transform="translate(-298.067 -219.734)" fill="#fff"/>
      <path id="Path_6193" data-name="Path 6193" d="M406.856,348.224a.551.551,0,0,0-.836-.332l-.03.026a.526.526,0,1,0,.862.306Z" transform="translate(-316.409 -258.963)" fill="#fff"/>
      <path id="Path_6194" data-name="Path 6194" d="M419.441,288.914a.547.547,0,0,0-.831-.332l-.03.022a.521.521,0,1,0,.862.31Z" transform="translate(-323.578 -225.204)" fill="#fff"/>
      <path id="Path_6195" data-name="Path 6195" d="M414.5,327.754a.551.551,0,0,0-.836-.332l-.03.026a.526.526,0,1,0,.862.306Z" transform="translate(-320.758 -247.311)" fill="#fff"/>
      <path id="Path_6196" data-name="Path 6196" d="M386.3,355.8a.551.551,0,0,0-.836-.332l-.03.026a.521.521,0,1,0,.862.306Z" transform="translate(-304.71 -263.277)" fill="#fff"/>
      <path id="Path_6197" data-name="Path 6197" d="M387.476,332.444a.551.551,0,0,0-.836-.332l-.03.026a.526.526,0,1,0,.862.306Z" transform="translate(-305.378 -249.981)" fill="#fff"/>
      <path id="Path_6198" data-name="Path 6198" d="M404.5,289.114a.547.547,0,0,0-.831-.332l-.03.026a.521.521,0,1,0,.862.306Z" transform="translate(-315.075 -225.318)" fill="#fff"/>
      <path id="Path_6199" data-name="Path 6199" d="M381.631,266.494a.547.547,0,0,0-.831-.332l-.03.022a.521.521,0,1,0,.862.31Z" transform="translate(-302.057 -212.442)" fill="#fff"/>
      <path id="Path_6200" data-name="Path 6200" d="M380.761,302.961a.547.547,0,0,0-.836-.332l-.026.022a.521.521,0,1,0,.862.31Z" transform="translate(-301.562 -233.198)" fill="#fff"/>
      <path id="Path_6201" data-name="Path 6201" d="M351.543,414.227a.547.547,0,0,0-.814-.332l-.03.022a.521.521,0,1,0,.862.31Z" transform="translate(-284.942 -296.536)" fill="#fff"/>
      <path id="Path_6202" data-name="Path 6202" d="M317.966,395.914a.551.551,0,0,0-.836-.332l-.03.026a.521.521,0,1,0,.862.306Z" transform="translate(-265.818 -286.107)" fill="#fff"/>
      <path id="Path_6203" data-name="Path 6203" d="M290.841,404.884a.551.551,0,0,0-.836-.332l-.026.022a.521.521,0,1,0,.862.31Z" transform="translate(-250.38 -291.213)" fill="#fff"/>
      <path id="Path_6204" data-name="Path 6204" d="M287.935,420.334A.552.552,0,0,0,287.1,420l-.03.022a.521.521,0,1,0,.862.31Z" transform="translate(-248.724 -300.007)" fill="#fff"/>
      <path id="Path_6205" data-name="Path 6205" d="M313.371,425.5a.551.551,0,0,0-.836-.332l-.026.026a.521.521,0,1,0,.862.306Z" transform="translate(-263.205 -302.95)" fill="#fff"/>
      <path id="Path_6206" data-name="Path 6206" d="M304.856,390.9a.551.551,0,0,0-.836-.332l-.03.026a.526.526,0,1,0,.862.306Z" transform="translate(-258.352 -283.256)" fill="#fff"/>
      <path id="Path_6207" data-name="Path 6207" d="M336.071,399.7a.547.547,0,0,0-.836-.332l-.026.022a.521.521,0,1,0,.862.31Z" transform="translate(-276.125 -288.261)" fill="#fff"/>
      <path id="Path_6208" data-name="Path 6208" d="M410.241,390.851a.543.543,0,0,0-.831-.332l-.03.022a.521.521,0,1,0,.862.31Z" transform="translate(-318.342 -283.223)" fill="#fff"/>
      <path id="Path_6209" data-name="Path 6209" d="M364.346,434.824a.551.551,0,0,0-.836-.332l-.03.026a.521.521,0,1,0,.862.306Z" transform="translate(-292.217 -308.255)" fill="#fff"/>
      <path id="Path_6210" data-name="Path 6210" d="M383.921,410.344a.547.547,0,0,0-.831-.332l-.03.026a.521.521,0,1,0,.862.306Z" transform="translate(-303.361 -294.32)" fill="#fff"/>
      <path id="Path_6211" data-name="Path 6211" d="M395.563,430.241a.551.551,0,0,0-.827-.349l-.026.026a.521.521,0,1,0,.862.306Z" transform="translate(-309.992 -305.64)" fill="#fff"/>
      <path id="Path_6212" data-name="Path 6212" d="M363.2,325.994a.551.551,0,0,0-.836-.332l-.03.026a.521.521,0,1,0,.862.306Z" transform="translate(-291.562 -246.31)" fill="#fff"/>
      <path id="Path_6213" data-name="Path 6213" d="M389.525,376.824a.551.551,0,0,0-.836-.332l-.03.022a.521.521,0,1,0,.862.31Z" transform="translate(-306.548 -275.242)" fill="#fff"/>
      <path id="Path_6214" data-name="Path 6214" d="M380.985,396.074a.551.551,0,0,0-.836-.332l-.03.021a.521.521,0,1,0,.862.31Z" transform="translate(-301.687 -286.198)" fill="#fff"/>
      <path id="Path_6215" data-name="Path 6215" d="M409.056,411.534a.551.551,0,0,0-.836-.332l-.03.026a.521.521,0,1,0,.862.306Z" transform="translate(-317.665 -294.998)" fill="#fff"/>
      <path id="Path_6216" data-name="Path 6216" d="M332.245,433.861a.547.547,0,0,0-.836-.332l-.03.022a.521.521,0,1,0,.862.31Z" transform="translate(-273.945 -307.705)" fill="#fff"/>
      <path id="Path_6217" data-name="Path 6217" d="M268.236,428.014a.551.551,0,0,0-.836-.332l-.03.026a.526.526,0,1,0,.862.306Z" transform="translate(-237.508 -304.378)" fill="#fff"/>
      <path id="Path_6218" data-name="Path 6218" d="M324.616,417.5a.551.551,0,0,0-.836-.332l-.03.026a.526.526,0,1,0,.862.306Z" transform="translate(-269.599 -298.396)" fill="#fff"/>
      <path id="Path_6219" data-name="Path 6219" d="M270.631,406.071a.547.547,0,0,0-.836-.332l-.026.022a.521.521,0,1,0,.862.31Z" transform="translate(-238.877 -291.887)" fill="#fff"/>
      <path id="Path_6220" data-name="Path 6220" d="M360.825,369.774a.551.551,0,0,0-.836-.332l-.03.022a.521.521,0,1,0,.862.31Z" transform="translate(-290.212 -271.229)" fill="#fff"/>
      <path id="Path_6221" data-name="Path 6221" d="M341.945,314.684a.551.551,0,0,0-.836-.332h-.03a.521.521,0,1,0,.862.31Z" transform="translate(-279.466 -239.872)" fill="#fff"/>
      <path id="Path_6222" data-name="Path 6222" d="M337.231,362.444a.551.551,0,0,0-.836-.332l-.026.026a.521.521,0,1,0,.862.306Z" transform="translate(-276.786 -267.057)" fill="#fff"/>
      <path id="Path_6223" data-name="Path 6223" d="M329.551,346.874a.551.551,0,0,0-.836-.332h-.026a.521.521,0,1,0,.862.31Z" transform="translate(-272.414 -258.194)" fill="#fff"/>
      <path id="Path_6224" data-name="Path 6224" d="M363.506,395.854a.551.551,0,0,0-.836-.332l-.03.026a.526.526,0,1,0,.862.306Z" transform="translate(-291.735 -286.073)" fill="#fff"/>
      <path id="Path_6225" data-name="Path 6225" d="M339.566,386.226a.547.547,0,0,0-.836-.345l-.03.026a.521.521,0,1,0,.862.306Z" transform="translate(-278.112 -280.585)" fill="#fff"/>
      <path id="Path_6226" data-name="Path 6226" d="M349.821,333.494a.547.547,0,0,0-.831-.332l-.03.022a.521.521,0,1,0,.862.31Z" transform="translate(-283.951 -250.578)" fill="#fff"/>
      <path id="Path_6227" data-name="Path 6227" d="M313.371,370.844a.551.551,0,0,0-.836-.332l-.026.026a.521.521,0,1,0,.862.306Z" transform="translate(-263.205 -271.838)" fill="#fff"/>
      <path id="Path_6228" data-name="Path 6228" d="M369.625,353.7a.551.551,0,0,0-.836-.332l-.03.022a.521.521,0,1,0,.862.31Z" transform="translate(-295.221 -262.082)" fill="#fff"/>
      <path id="Path_6229" data-name="Path 6229" d="M421.816,308.944a.551.551,0,0,0-.836-.332l-.03.026a.521.521,0,1,0,.862.306Z" transform="translate(-324.928 -236.605)" fill="#fff"/>
      <path id="Path_6230" data-name="Path 6230" d="M400.626,275.054a.551.551,0,0,0-.836-.332l-.03.026a.521.521,0,1,0,.862.306Z" transform="translate(-312.867 -217.315)" fill="#fff"/>
      <path id="Path_6231" data-name="Path 6231" d="M359.565,279.3a.551.551,0,0,0-.836-.332l-.03.022a.521.521,0,1,0,.862.31Z" transform="translate(-289.495 -219.734)" fill="#fff"/>
      <path id="Path_6232" data-name="Path 6232" d="M310.36,158.21a9.6,9.6,0,0,0-4.1,9.357c.327,1.348.939,2.705.672,4.063a9.717,9.717,0,0,1-1.723,3.136,9.443,9.443,0,0,0,11.8,13.639" transform="translate(-258.337 -151.048)" fill="#263238"/>
      <path id="Path_6233" data-name="Path 6233" d="M311.783,166.406c-8.254-18.154,11.382-27.275,22.092-24.25,10.068,2.843,14.363,7.854,16.022,14.587a33.239,33.239,0,0,1-1.064,20.451c-1.292,3.162-3.645,6.376-7.044,6.772" transform="translate(-261.767 -141.585)" fill="#263238"/>
      <path id="Path_6234" data-name="Path 6234" d="M323.96,218.652c-.142-8.677-.246-20.588-.246-20.541s-7.44-1.236-9-10.956c-.767-4.838-.521-12.769-.116-19.253.37-5.837,4.235-13,10.051-12.381l18.159,4.588a3.416,3.416,0,0,1,3.059,3.472h0l-1.18,37.554" transform="translate(-264.273 -149.496)" fill="#ffbe9d"/>
      <path id="Path_6235" data-name="Path 6235" d="M322.64,196.611a1.236,1.236,0,0,0,1.18,1.262,1.185,1.185,0,0,0,1.292-1.1,1.245,1.245,0,0,0-1.18-1.267,1.189,1.189,0,0,0-1.292,1.107Z" transform="translate(-269.07 -172.272)" fill="#263238"/>
      <path id="Path_6236" data-name="Path 6236" d="M352.56,196.61a1.236,1.236,0,0,0,1.18,1.258,1.185,1.185,0,0,0,1.292-1.1,1.236,1.236,0,0,0-1.18-1.262,1.185,1.185,0,0,0-1.292,1.107Z" transform="translate(-286.1 -172.272)" fill="#263238"/>
      <path id="Path_6237" data-name="Path 6237" d="M319.5,191.218c.151.168,1.12-.5,2.46-.431s2.3.75,2.456.59c.073-.069-.078-.366-.5-.694a3.4,3.4,0,0,0-1.956-.676,3.3,3.3,0,0,0-1.965.564C319.574,190.865,319.423,191.14,319.5,191.218Z" transform="translate(-267.271 -169.145)" fill="#263238"/>
      <path id="Path_6238" data-name="Path 6238" d="M349.073,191.812c.155.164,1.1-.543,2.438-.543s2.331.663,2.473.5c.073-.073-.086-.366-.517-.676a3.4,3.4,0,0,0-1.982-.6,3.265,3.265,0,0,0-1.939.638C349.133,191.446,349,191.739,349.073,191.812Z" transform="translate(-284.104 -169.421)" fill="#263238"/>
      <path id="Path_6239" data-name="Path 6239" d="M333.923,202.777a9.005,9.005,0,0,0-2.18-.4c-.345-.034-.668-.1-.724-.336a1.723,1.723,0,0,1,.228-1.017c.319-.827.659-1.7,1.012-2.611a44.333,44.333,0,0,0,2.275-6.828,44.643,44.643,0,0,0-2.817,6.63l-.974,2.628a1.973,1.973,0,0,0-.177,1.344.862.862,0,0,0,.564.5,2.189,2.189,0,0,0,.582.082A8.958,8.958,0,0,0,333.923,202.777Z" transform="translate(-273.555 -170.046)" fill="#263238"/>
      <path id="Path_6240" data-name="Path 6240" d="M336.27,249.842A24.759,24.759,0,0,0,349.3,246.37s-3.291,6.764-13.028,5.855Z" transform="translate(-276.828 -201.227)" fill="#eb996e"/>
      <path id="Path_6241" data-name="Path 6241" d="M348.32,187.79c.129.366,1.473.19,3.046.383s2.848.616,3.059.289c.095-.155-.129-.5-.642-.862a5.346,5.346,0,0,0-4.653-.513C348.552,187.329,348.259,187.618,348.32,187.79Z" transform="translate(-283.683 -167.307)" fill="#263238"/>
      <path id="Path_6242" data-name="Path 6242" d="M320.195,183.163c.237.306,1.163,0,2.275-.026s2.055.207,2.27-.112c.095-.155-.052-.461-.465-.75a3.145,3.145,0,0,0-1.848-.5,3.179,3.179,0,0,0-1.814.612C320.221,182.693,320.091,183.008,320.195,183.163Z" transform="translate(-267.659 -164.459)" fill="#263238"/>
      <path id="Path_6243" data-name="Path 6243" d="M383.087,203.366c.142-.069,5.208-2.309,5.269,3.515s-5.8,4.683-5.816,4.515S383.087,203.366,383.087,203.366Z" transform="translate(-303.165 -176.477)" fill="#ffbe9d"/>
      <path id="Path_6244" data-name="Path 6244" d="M386.614,211.345c.026,0,.1.069.276.146a1.025,1.025,0,0,0,.758,0,2.514,2.514,0,0,0,1.137-2.266,3.261,3.261,0,0,0-.3-1.448,1.163,1.163,0,0,0-.771-.771.513.513,0,0,0-.595.284c-.078.164-.039.28-.069.289s-.129-.095-.082-.336a.642.642,0,0,1,.224-.366.758.758,0,0,1,.56-.155,1.426,1.426,0,0,1,1.068.892,3.447,3.447,0,0,1,.37,1.62,2.633,2.633,0,0,1-1.456,2.529,1.094,1.094,0,0,1-.931-.142C386.627,211.487,386.6,211.354,386.614,211.345Z" transform="translate(-305.482 -178.657)" fill="#eb996e"/>
      <path id="Path_6245" data-name="Path 6245" d="M328.974,148.88c-3.24,1.676-4.575,8.3-3.235,11.7s4.954,5.049,8.517,5.829a21.678,21.678,0,0,0,10.572-.1c.241,2.361,1.659,4.786,3.951,5.411,3.037.823,6.1-1.956,6.772-5.028s-.34-6.234-1.34-9.219" transform="translate(-270.54 -145.737)" fill="#263238"/>
      <path id="Path_6246" data-name="Path 6246" d="M379.806,192.375a4.219,4.219,0,0,1-.452.431,15.212,15.212,0,0,1-1.34,1.012,8.288,8.288,0,0,1-2.266,1.1,4.9,4.9,0,0,1-3.089-.047,4.778,4.778,0,0,1-2.339-2.02,6.491,6.491,0,0,1-.84-2.378,8.676,8.676,0,0,1-.09-1.689,1.882,1.882,0,0,1,.073-.612c.065,0,0,.883.25,2.257a6.685,6.685,0,0,0,.862,2.257,4.6,4.6,0,0,0,2.193,1.87,4.713,4.713,0,0,0,2.891.06,8.712,8.712,0,0,0,2.219-1C379.073,192.87,379.771,192.327,379.806,192.375Z" transform="translate(-295.674 -168.101)" fill="#263238"/>
      <path id="Path_6247" data-name="Path 6247" d="M339.112,224.395a5.505,5.505,0,0,0,.724,1.417,1.878,1.878,0,0,0,1.34.78,1.723,1.723,0,0,0,1.43-.78,2.718,2.718,0,0,0,.4-1.628c-.022-.513-.258-1.124-.767-1.185a1.249,1.249,0,0,0-.616.138l-2.68,1.086" transform="translate(-278.348 -187.924)" fill="#eb996e"/>
      <path id="Path_6248" data-name="Path 6248" d="M339.519,226.208a3.835,3.835,0,0,0,1.43-.177,2.033,2.033,0,0,0,1.081-.978,2.154,2.154,0,0,0,.034-1.753,2.029,2.029,0,0,0-.233-.4c-.108-.112-.09-.108-.2-.09a2.825,2.825,0,0,0-.431.168l-.431.181c-.573.233-1.094.431-1.529.6a4.33,4.33,0,0,1-1.46.431,4.574,4.574,0,0,1,1.327-.75c.431-.2.926-.431,1.491-.694l.431-.194c.159-.065.276-.134.491-.2a.629.629,0,0,1,.4,0,.733.733,0,0,1,.3.233,2.451,2.451,0,0,1,.22,2.649,2.27,2.27,0,0,1-1.361,1.1,2.124,2.124,0,0,1-1.159.047C339.636,226.328,339.511,226.238,339.519,226.208Z" transform="translate(-277.687 -187.536)" fill="#263238"/>
      <path id="Path_6249" data-name="Path 6249" d="M392.329,194.728c-.595-.043-5.407.582-5.028,9.521.353,8.353,6.212,6.514,8.082,3.369C397.142,204.64,398.167,195.137,392.329,194.728Z" transform="translate(-305.863 -171.832)" fill="#455a64"/>
      <path id="Path_6250" data-name="Path 6250" d="M397.657,180.856a1.457,1.457,0,0,1-.022-.233c0-.177,0-.4-.026-.685,0-.616-.043-1.478-.073-2.546-.043-2.193-.1-5.247-.177-8.767l.108.1H394.99l.112-.112c0,.663.034,1.366.056,2.081.082,3.352.159,6.462.224,9.094v.078h-.073a4.485,4.485,0,0,0-2.555,1.646,6.031,6.031,0,0,0-1.021,2.154,9.5,9.5,0,0,0-.263,1.529c0,.177-.022.314-.026.4a1.219,1.219,0,0,0,0,.142.6.6,0,0,1,0-.142v-.409a8.009,8.009,0,0,1,.215-1.551,6.031,6.031,0,0,1,1-2.223A4.644,4.644,0,0,1,395.3,179.7l-.073.095c-.073-2.615-.164-5.738-.258-9.094-.022-.711-.039-1.413-.056-2.081V168.5h2.7v.108c.039,3.524.073,6.574.1,8.771v3.227A.926.926,0,0,1,397.657,180.856Z" transform="translate(-308.231 -156.905)" fill="#455a64"/>
      <path id="Path_6251" data-name="Path 6251" d="M378.27,153.473a19.2,19.2,0,0,0-8.509-8.793,35.829,35.829,0,0,0-7.182-2.662s3.5-.827,9.155,1.689a17.369,17.369,0,0,1,6.893,4.868,14.9,14.9,0,0,1,2.443,4.9Z" transform="translate(-291.804 -141.757)" fill="#455a64"/>
      <path id="Path_6252" data-name="Path 6252" d="M363,275.128a1.583,1.583,0,0,1,.108-.116c.073-.073.185-.185.323-.336a15.981,15.981,0,0,0,1.163-1.379,22.51,22.51,0,0,0,1.572-2.413c.56-.978,1.146-2.133,1.779-3.421,1.271-2.585,2.74-5.7,4.265-9.271.758-1.788,1.534-3.688,2.309-5.691l.577-1.516a8.805,8.805,0,0,1,.694-1.529,3.162,3.162,0,0,1,1.249-1.189,1.775,1.775,0,0,1,.862-.22.892.892,0,0,1,.457.164.978.978,0,0,1,.289.388v.065a1.491,1.491,0,0,1-.233.573.9.9,0,0,1-.539.353,1.952,1.952,0,0,1-1.2-.22,1.9,1.9,0,0,1-1.064-2.089,1.676,1.676,0,0,1,.7-1.051,1.956,1.956,0,0,1,1.224-.349,1.348,1.348,0,0,1,1.129.625.651.651,0,0,1-.043.7,1.241,1.241,0,0,1-.547.4,1.8,1.8,0,0,1-2.064-.586,1.512,1.512,0,0,1-.28-1.086,1.865,1.865,0,0,1,.431-1.017,1.559,1.559,0,0,1,.969-.534,1.241,1.241,0,0,1,1.047.362.775.775,0,0,1,.207.547.724.724,0,0,1-.25.53,1.206,1.206,0,0,1-1.051.284,1.322,1.322,0,0,1-.84-.672,2.77,2.77,0,0,1-.315-1,3.524,3.524,0,0,1,.228-2.008,1.5,1.5,0,0,1,.737-.728,1.348,1.348,0,0,1,1.021.034.969.969,0,0,1,.633.8.887.887,0,0,1-.547.862,1.086,1.086,0,0,1-.991,0,1.37,1.37,0,0,1-.616-.758,1.891,1.891,0,0,1-.056-.939,4.275,4.275,0,0,1,.2-.9,1.641,1.641,0,0,1,.521-.763,2.09,2.09,0,0,1,.814-.4.861.861,0,0,1,.474,0,1,1,0,0,1,.392.25,1.129,1.129,0,0,1,.254.379.633.633,0,0,1,0,.478.775.775,0,0,1-.771.431,1.4,1.4,0,0,1-.81-.271,2.223,2.223,0,0,1-.862-1.357,2.287,2.287,0,0,1,.237-1.577,1.745,1.745,0,0,1,.487-.59,1.573,1.573,0,0,1,.685-.3,1.107,1.107,0,0,1,.732.1.762.762,0,0,1,.4.607,1.073,1.073,0,0,1-.81,1.034,1.172,1.172,0,0,1-1.172-.431,1.878,1.878,0,0,1-.431-1.1,6.893,6.893,0,0,1,.431-2.059c.177-.62.336-1.189.483-1.7.289-1.012.513-1.8.672-2.344.073-.263.134-.465.177-.607s.069-.207.069-.207a.733.733,0,0,1-.047.211c-.047.138-.09.353-.155.616-.146.547-.362,1.34-.633,2.352l-.461,1.7a7.344,7.344,0,0,0-.4,2.025,1.792,1.792,0,0,0,.431,1.025,1.047,1.047,0,0,0,1.034.388.931.931,0,0,0,.7-.862.616.616,0,0,0-.319-.487.978.978,0,0,0-.629-.082,1.409,1.409,0,0,0-.62.271,1.62,1.62,0,0,0-.431.539,2.154,2.154,0,0,0-.159,1.422,2.059,2.059,0,0,0,.8,1.245,1.262,1.262,0,0,0,.706.237.59.59,0,0,0,.595-.314.659.659,0,0,0-.228-.655.862.862,0,0,0-.314-.2.741.741,0,0,0-.375,0,1.637,1.637,0,0,0-1.193,1.047,3.914,3.914,0,0,0-.185.862,1.676,1.676,0,0,0,.052.862,1.133,1.133,0,0,0,.517.642.9.9,0,0,0,.806,0,.676.676,0,0,0,.431-.642.763.763,0,0,0-.5-.616,1.172,1.172,0,0,0-.862-.03,1.293,1.293,0,0,0-.625.625,3.347,3.347,0,0,0-.2,1.883,2.585,2.585,0,0,0,.289.918,1.112,1.112,0,0,0,.694.564.982.982,0,0,0,.862-.228.534.534,0,0,0,.03-.771,1.03,1.03,0,0,0-.862-.289,1.323,1.323,0,0,0-.827.465,1.482,1.482,0,0,0-.155,1.822,1.581,1.581,0,0,0,1.8.508,1.073,1.073,0,0,0,.431-.323.431.431,0,0,0,.026-.465,1.133,1.133,0,0,0-.943-.5,1.616,1.616,0,0,0-1.693,1.219,1.663,1.663,0,0,0,.9,1.814,1.693,1.693,0,0,0,1.056.207.862.862,0,0,0,.6-.754v.065a.646.646,0,0,0-.564-.431,1.538,1.538,0,0,0-.763.2,2.929,2.929,0,0,0-1.168,1.111,8.417,8.417,0,0,0-.676,1.486l-.586,1.521c-.775,2-1.56,3.877-2.326,5.687-1.534,3.576-3.016,6.695-4.308,9.262-.642,1.292-1.236,2.434-1.809,3.412a22.1,22.1,0,0,1-1.607,2.4A11.327,11.327,0,0,1,363,275.128Z" transform="translate(-292.043 -192.126)" fill="#fff"/>
      <path id="Path_6253" data-name="Path 6253" d="M364.769,167.759a5.65,5.65,0,0,0-.392-1.594,6.277,6.277,0,0,0-3.093-3.1,8.354,8.354,0,0,0-2.981-.728,14.028,14.028,0,0,0-3.537.267c-2.469.457-5.062,1.521-7.966,1.96a16.242,16.242,0,0,1-4.265,0,17.163,17.163,0,0,1-3.834-1.043,16.922,16.922,0,0,1-5.6-3.688,15.079,15.079,0,0,1-2.706-3.619,5.129,5.129,0,0,1-.319-.633l-.207-.478c-.052-.116-.09-.215-.125-.293a.372.372,0,0,1-.034-.1.432.432,0,0,1,.056.095l.142.284.228.465a5.406,5.406,0,0,0,.336.625,15.687,15.687,0,0,0,2.74,3.546,16.8,16.8,0,0,0,9.336,4.623,15.97,15.97,0,0,0,4.2,0c2.865-.431,5.463-1.491,7.961-1.939a14.114,14.114,0,0,1,3.584-.25,8.379,8.379,0,0,1,3.037.771,6.285,6.285,0,0,1,3.106,3.205,4.7,4.7,0,0,1,.3,1.2v.319A.37.37,0,0,1,364.769,167.759Z" transform="translate(-273.094 -149.055)" fill="#455a64"/>
      <path id="Path_6254" data-name="Path 6254" d="M357.8,156.882a2.1,2.1,0,0,1-.31.052c-.2.03-.5.073-.887.142-.767.125-1.865.37-3.218.707a34.24,34.24,0,0,1-4.821.935,24.223,24.223,0,0,1-6.005-.134,25.418,25.418,0,0,1-5.8-1.56,24.555,24.555,0,0,1-4.373-2.262c-.577-.392-1.094-.754-1.534-1.1s-.81-.642-1.094-.909l-.655-.616c-.146-.142-.224-.22-.215-.228a1.683,1.683,0,0,1,.246.194l.681.582c.293.258.685.534,1.116.862s.965.685,1.542,1.064a25.991,25.991,0,0,0,10.107,3.735,24.724,24.724,0,0,0,5.958.146,35.2,35.2,0,0,0,4.8-.862c1.357-.315,2.469-.539,3.244-.642.388-.052.689-.082.9-.095A1.587,1.587,0,0,1,357.8,156.882Z" transform="translate(-272.621 -147.462)" fill="#455a64"/>
      <path id="Path_6255" data-name="Path 6255" d="M393.9,210.56a.822.822,0,0,1-.168-.052,2.742,2.742,0,0,1-.431-.228,3.955,3.955,0,0,1-1.262-1.344,6.492,6.492,0,0,1-.775-2.624,18.812,18.812,0,0,1,0-3.343,20.377,20.377,0,0,1,.551-3.3,9.51,9.51,0,0,1,.961-2.555,3.947,3.947,0,0,1,1.292-1.34,2.361,2.361,0,0,1,.431-.224c.108-.039.168-.056.168-.047a5.248,5.248,0,0,0-.569.345,4.132,4.132,0,0,0-1.18,1.344,9.693,9.693,0,0,0-.9,2.529,21.545,21.545,0,0,0-.534,3.266,20.143,20.143,0,0,0,0,3.3,6.553,6.553,0,0,0,.707,2.585,4.033,4.033,0,0,0,1.172,1.353C393.691,210.456,393.911,210.538,393.9,210.56Z" transform="translate(-308.087 -172.276)" fill="#263238"/>
      <rect id="Rectangle_2205" data-name="Rectangle 2205" width="6.962" height="2.624" rx="1.312" transform="translate(60.808 38.057) rotate(-11.1)" fill="#455a64"/>
      <path id="Path_6256" data-name="Path 6256" d="M354.47,220.352l20.442-6.41a.965.965,0,0,1,1.206.625h0a.969.969,0,0,1-.668,1.228l-20.9,5.644Z" transform="translate(-287.188 -182.744)" fill="#455a64"/>
      <path id="Path_6257" data-name="Path 6257" d="M384.679,217.592a4.575,4.575,0,0,1,.676-.237l1.87-.569c.784-.241,1.749-.5,2.766-.831a1.852,1.852,0,0,0,.668-.431,1.008,1.008,0,0,0,.289-.711.62.62,0,0,0-.431-.586,1.564,1.564,0,0,0-.862.026l-6.13,1.973-1.865.577a4.27,4.27,0,0,1-.659.211,4.616,4.616,0,0,1,.668-.263l1.844-.646c1.564-.53,3.709-1.267,6.122-2.038a1.767,1.767,0,0,1,.982,0,.862.862,0,0,1,.569.793,1.223,1.223,0,0,1-.353.862,2.068,2.068,0,0,1-.784.431c-1.055.332-2,.564-2.8.788l-1.87.5A3.821,3.821,0,0,1,384.679,217.592Z" transform="translate(-302.288 -182.802)" fill="#263238"/>
      <path id="Path_6258" data-name="Path 6258" d="M298.459,186c.7,2.456-1.8,4.562-2.675,6.962-.862,2.318-.129,4.916.918,7.156s2.425,4.36,2.96,6.768c1.323,5.945-4.054,12.351-3.016,18.352a38.628,38.628,0,0,0,2.016,6.553,8.659,8.659,0,0,1,0,6.087c-1.163,3.446-3.136,5.062-4.524,8.414a13.61,13.61,0,0,0-.62,5.488,11.675,11.675,0,0,1-.8,5.454c-.827,1.663-2.714,2.947-4.506,2.464a6.6,6.6,0,0,0,7.892,1.5c2.357-1.258,3.675-3.808,4.8-6.229,5.463-11.722,8.353-12.713,8.185-25.646,0-.831-.164-13.786-.164-13.786a12.924,12.924,0,0,1-3.227-1.357c-6.1-4.213-6.324-11.718-6.277-17.538" transform="translate(-249.473 -166.865)" fill="#263238"/>
      <path id="Path_6259" data-name="Path 6259" d="M332.115,277.08v4.881s-3.752,19.149-4.881,29.786-1.314,13.446-1.314,13.446,2.693,4.2,8.323-2.934,6.634-8.259,8.888-8.384c0,0-2.753-29.911-2.628-31.018a4.519,4.519,0,0,1,1-2.128Z" transform="translate(-270.937 -218.707)" fill="#ffbe9d"/>
      <path id="Path_6260" data-name="Path 6260" d="M347.684,231.994s-6.13,8.134-6.63,9.254S340.3,243,340.3,243l9.387,3.632,9.138-10.012,3.378-8.888-1-10.512s-2-.125-2.374,1.628a13.169,13.169,0,0,0-.254,3.378l-2.8-2.253-4.519-1.374a1.8,1.8,0,0,0,.689,2.628,6.375,6.375,0,0,0,2.253.862l1.577,2.753-.689,3.085-3.2-3.016a1.822,1.822,0,0,0-2.326-.146l-2.068,1.5-1.934-.862-3.752,3.356-1.5,1.374a2.314,2.314,0,0,0,3.016,1l2-.862Z" transform="translate(-279.122 -184.633)" fill="#ffbe9d"/>
      <path id="Path_6261" data-name="Path 6261" d="M340.129,244.479a2.03,2.03,0,0,1,0-.263,7.29,7.29,0,0,1,.06-.763,8.964,8.964,0,0,1,.237-1.228,5.447,5.447,0,0,1,.655-1.577c1.4-2.154,3.615-5.17,6.372-8.879v.112l-2.378-1.749h.082l-1.236.547a8.555,8.555,0,0,1-1.318.513,2.154,2.154,0,0,1-1.465-.168,2.7,2.7,0,0,1-1.1-1.051l-.034-.06.056-.052c1.611-1.516,3.408-3.046,5.252-4.683l.056-.047.06.034,1.667.987h-.108l1.947-1.292c.34-.22.646-.431,1.012-.655a1.215,1.215,0,0,1,1.258.108l3.8,3.21-.177.06c.207-.926.431-1.93.655-2.942v.078l-1.577-2.753.1.056a3.14,3.14,0,0,1-.78-.211c-.246-.09-.491-.194-.737-.3s-.487-.228-.728-.345c-.125-.06-.246-.142-.366-.211a2.278,2.278,0,0,1-.327-.284,1.585,1.585,0,0,1-.431-1.15,2.537,2.537,0,0,1,.332-1.172l.043-.073.086.026,4.515,1.379h.022l2.8,2.253-.177.095a13.382,13.382,0,0,1,.237-3.33,2.029,2.029,0,0,1,.913-1.387,2.9,2.9,0,0,1,1.594-.4h.116V217c.353,3.735.685,7.259.991,10.512h0v.022c-1.249,3.274-2.387,6.247-3.395,8.879h0l-7.074,7.806L349.71,246.3c-.22.228-.388.409-.5.534l-.177.177s.052-.069.159-.194l.487-.547,1.9-2.107,7.039-7.755v.022l3.36-8.892v.043c-.314-3.253-.651-6.772-1.012-10.512l.1.1a2.654,2.654,0,0,0-1.465.37,1.8,1.8,0,0,0-.814,1.249,12.927,12.927,0,0,0-.233,3.27v.25l-.194-.155-2.843-2.266h.039l-4.515-1.374.125-.052a2.348,2.348,0,0,0-.3,1.06,1.366,1.366,0,0,0,.37,1,2.319,2.319,0,0,0,.289.25c.116.065.22.134.34.194.241.116.478.237.719.34a6.329,6.329,0,0,0,1.426.5h.069l.026.043,1.577,2.753.022.039v.043c-.228,1.012-.431,2.016-.659,2.942L355,227.8l-.142-.121-3.783-3.2a1,1,0,0,0-1.034-.095c-.319.19-.663.431-.991.642l-1.952,1.292-.052.034-.056-.03-1.667-.991h.121c-1.844,1.628-3.645,3.158-5.26,4.666l.022-.112a2.486,2.486,0,0,0,1.017.974,1.943,1.943,0,0,0,1.344.155,8.53,8.53,0,0,0,1.292-.5l1.236-.543h.047l.039.026,2.374,1.758.065.047-.047.065c-2.77,3.709-5,6.7-6.423,8.832a5.6,5.6,0,0,0-.668,1.547,9.979,9.979,0,0,0-.254,1.215c-.047.332-.069.59-.082.758S340.129,244.479,340.129,244.479Z" transform="translate(-278.951 -184.456)" fill="#eb996e"/>
      <path id="Path_6262" data-name="Path 6262" d="M358.58,244.688c-.043,0,.121-.663.19-1.723a3.955,3.955,0,0,0-.293-1.809,4.837,4.837,0,0,0-1.495-1.68,37.145,37.145,0,0,0-3.477-2.365l-1.1-.646a2.111,2.111,0,0,1-.4-.254,1.551,1.551,0,0,1,.431.177c.276.125.668.323,1.142.586a28.8,28.8,0,0,1,3.533,2.326,4.838,4.838,0,0,1,1.542,1.771,3.877,3.877,0,0,1,.267,1.9,8.105,8.105,0,0,1-.211,1.267A1.675,1.675,0,0,1,358.58,244.688Z" transform="translate(-285.787 -195.445)" fill="#eb996e"/>
      <path id="Path_6263" data-name="Path 6263" d="M382.425,236.681a8.406,8.406,0,0,1,.159-1.129,17.654,17.654,0,0,0,.194-2.714,18.025,18.025,0,0,0-.241-2.718,8.757,8.757,0,0,1-.177-1.12,4.309,4.309,0,0,1,.332,1.09,13.307,13.307,0,0,1,.047,5.493A4.307,4.307,0,0,1,382.425,236.681Z" transform="translate(-303.062 -191.341)" fill="#eb996e"/>
    </g>
    <g id="freepik--speech-bubble--inject-65" transform="translate(88.632 51.91)">
      <path id="Path_6264" data-name="Path 6264" d="M227.619,119.579l-4.48-7.914a21.2,21.2,0,1,0-5.079,5.652h0Z" transform="translate(-183.833 -79.335)" fill="#fff"/>
      <path id="Path_6265" data-name="Path 6265" d="M227.55,119.559l-9.59-2.2h-.082l.052-.069h0l.078.078a21.591,21.591,0,0,1-4.355,2.624,21.166,21.166,0,0,1-5.8,1.654,19.018,19.018,0,0,1-3.352.168c-.573-.03-1.163-.047-1.753-.095l-1.788-.271a21.334,21.334,0,0,1-13.213-8.521,21.062,21.062,0,0,1-3.576-8.185,21.54,21.54,0,0,1,.25-9.413,20.86,20.86,0,0,1,4.536-8.7l.862-.952a12.45,12.45,0,0,1,.931-.862,12.646,12.646,0,0,1,.961-.862l1.017-.758a9.048,9.048,0,0,1,1.051-.672l1.073-.651,1.124-.539a9.169,9.169,0,0,1,1.133-.5,21.648,21.648,0,0,1,9.478-1.46,20.916,20.916,0,0,1,8.7,2.585,21.446,21.446,0,0,1,10.046,12.36,22.8,22.8,0,0,1,.922,6.893,20.937,20.937,0,0,1-1.034,5.941,21.36,21.36,0,0,1-2.124,4.558v-.056l4.442,7.94c-.19-.332-1.628-2.826-4.536-7.888v-.052a21.494,21.494,0,0,0,2.089-4.541,21.074,21.074,0,0,0,1-5.906,22.711,22.711,0,0,0-.935-6.828,21.291,21.291,0,0,0-9.978-12.231,20.744,20.744,0,0,0-8.616-2.537,21.4,21.4,0,0,0-9.387,1.452,8.963,8.963,0,0,0-1.12.5l-1.111.539-1.064.646a7.889,7.889,0,0,0-1.038.689l-1.008.75c-.34.241-.629.556-.948.827a10.246,10.246,0,0,0-.922.862l-.862.939a20.678,20.678,0,0,0-4.489,8.616,21.385,21.385,0,0,0-.254,9.318,20.9,20.9,0,0,0,3.533,8.095,21.23,21.23,0,0,0,13.088,8.44l1.771.271c.586.052,1.172.065,1.723.1a19.161,19.161,0,0,0,3.326-.155,21.054,21.054,0,0,0,10.111-4.213l.336-.258-.258.34h0l-.034-.09Z" transform="translate(-183.764 -79.315)" fill="#263238"/>
      <path id="Path_6266" data-name="Path 6266" d="M217.916,126.353a1.723,1.723,0,1,1-1.723-1.723A1.723,1.723,0,0,1,217.916,126.353Z" transform="translate(-201.241 -105.108)" fill="#ed278d"/>
      <path id="Path_6267" data-name="Path 6267" d="M233.876,126.353a1.723,1.723,0,1,1-1.723-1.723A1.723,1.723,0,0,1,233.876,126.353Z" transform="translate(-210.326 -105.108)" fill="#ed278d"/>
      <path id="Path_6268" data-name="Path 6268" d="M250.114,125.5a1.723,1.723,0,1,1-2.348-.629A1.723,1.723,0,0,1,250.114,125.5Z" transform="translate(-219.701 -105.113)" fill="#ed278d"/>
    </g>
    <g id="freepik--Table--inject-65" transform="translate(21.527 208.106)">
      <path id="Path_6269" data-name="Path 6269" d="M223.587,441.992c0,.065-43.8.112-97.794.112S28,442.057,28,441.992s43.783-.112,97.815-.112S223.587,441.932,223.587,441.992Z" transform="translate(-28 -441.88)" fill="#263238"/>
    </g>
    <g id="freepik--Device--inject-65" transform="translate(50.413 100.753)">
      <path id="Path_6270" data-name="Path 6270" d="M353.55,435.506a11.563,11.563,0,0,1,9.215-5.2c6.294-.215,9.439,5.2,9.439,5.2Z" transform="translate(-242.186 -327.933)" fill="#455a64"/>
      <path id="Path_6271" data-name="Path 6271" d="M376.945,435.227a6.992,6.992,0,0,1-.185-.939,6.07,6.07,0,0,0-2.494-3.671,7.96,7.96,0,0,1-.806-.517,2.249,2.249,0,0,1,.909.353,5.338,5.338,0,0,1,2.585,3.8A2.27,2.27,0,0,1,376.945,435.227Z" transform="translate(-253.518 -327.822)" fill="#263238"/>
      <path id="Path_6272" data-name="Path 6272" d="M267.351,438.667v-.043a2.412,2.412,0,0,0-2.417-2.374H211.367a2.417,2.417,0,0,0-2.417,2.417Z" transform="translate(-159.881 -331.322)" fill="#455a64"/>
      <path id="Path_6273" data-name="Path 6273" d="M106.47,206.179c0,1.129.862,68.4.862,68.4l49.974,12.024h4.106l-2.628-93.916h-3.757Z" transform="translate(-101.55 -192.69)" fill="#263238"/>
      <path id="Path_6274" data-name="Path 6274" d="M110.538,376.29,95.05,404.672h14.156c-2.533-.25,22.4,0,22.4,0l-22.4-5.941,7.009-15.918-.6-6.522Z" transform="translate(-95.05 -297.193)" fill="#263238"/>
      <path id="Path_6275" data-name="Path 6275" d="M129.586,316.63l-1.676-52.9,15.216-1.456L145,318.753l-5.433.276Z" transform="translate(-113.754 -232.294)" fill="#263238"/>
      <path id="Path_6276" data-name="Path 6276" d="M128.436,331.178V327.4c0-2.46-.022-6.031-.034-10.525,0-8.991-.022-21.644-.039-36.317l.108.108H110.484l.112-.112v2.438c0,14.311,0,27.628-.022,38.725h0v.022c-4.661,8.543-8.526,15.634-11.231,20.588-1.353,2.473-2.417,4.411-3.145,5.738-.362.655-.642,1.155-.831,1.5s-.3.508-.3.508.09-.181.271-.521.457-.862.806-1.521c.719-1.331,1.766-3.278,3.1-5.76l11.158-20.627V280.42h18.172v.108c0,14.673-.03,27.326-.039,36.317,0,4.489-.026,8.065-.034,10.525V330.9A.55.55,0,0,1,128.436,331.178Z" transform="translate(-95.061 -242.625)" fill="#455a64"/>
      <path id="Path_6277" data-name="Path 6277" d="M131.19,391.43c.056.022-2.1,5.006-4.812,11.124s-4.963,11.063-5.019,11.037,2.1-5.006,4.812-11.128S131.134,391.4,131.19,391.43Z" transform="translate(-110.024 -305.811)" fill="#455a64"/>
      <path id="Path_6278" data-name="Path 6278" d="M221.468,286.954V286c0-.633-.022-1.551-.034-2.731,0-2.369-.073-5.8-.155-10.038-.159-8.478-.543-20.183-1.012-33.112s-.827-24.647-.948-33.125c-.065-4.239-.095-7.673-.082-10.042v-2.731c0,.633,0,1.551.034,2.731,0,2.369.069,5.8.155,10.038.185,8.478.569,20.2,1.038,33.121s.827,24.638.948,33.116c.065,4.239.09,7.673.082,10.042v3.442A.81.81,0,0,1,221.468,286.954Z" transform="translate(-165.734 -193.02)" fill="#455a64"/>
      <path id="Path_6279" data-name="Path 6279" d="M166.042,279.83c.065,0,.112,11.253.112,25.129s-.047,25.129-.112,25.129-.112-11.248-.112-25.129S165.982,279.83,166.042,279.83Z" transform="translate(-135.394 -242.289)" fill="#455a64"/>
      <path id="Path_6280" data-name="Path 6280" d="M100.363,396.146a1.891,1.891,0,0,1-.215-.3c-.073-.1-.155-.228-.25-.37a5,5,0,0,1-.31-.526,13.256,13.256,0,0,1-1.366-3.64,18.034,18.034,0,0,1-.267-5.76,23.049,23.049,0,0,1,1.87-6.811,14.145,14.145,0,0,1,1.952-3.106,7.847,7.847,0,0,1,.573-.672c.2-.215.388-.431.586-.638.431-.392.806-.793,1.232-1.133a19.855,19.855,0,0,1,2.5-1.814c.431-.233.823-.478,1.228-.672a12.761,12.761,0,0,1,1.176-.539,13.476,13.476,0,0,1,3.757-1,7.1,7.1,0,0,1,1.055-.065,2.228,2.228,0,0,1,.37,0,2.868,2.868,0,0,1-.366.039,9.293,9.293,0,0,0-1.047.108,14.118,14.118,0,0,0-3.709,1.06c-.383.142-.754.358-1.159.543a12.873,12.873,0,0,0-1.211.681,19.881,19.881,0,0,0-2.464,1.814c-.431.336-.806.737-1.215,1.124-.194.2-.383.431-.577.629a8.345,8.345,0,0,0-.56.668,14,14,0,0,0-1.921,3.063,23.1,23.1,0,0,0-1.865,6.738,18.2,18.2,0,0,0,.215,5.7,13.924,13.924,0,0,0,1.292,3.632,4.583,4.583,0,0,0,.293.534l.228.383A2.771,2.771,0,0,1,100.363,396.146Z" transform="translate(-96.636 -293.096)" fill="#455a64"/>
    </g>
  </g>
</svg>
