<svg xmlns="http://www.w3.org/2000/svg" width="21" height="21" viewBox="0 0 21 21">
    <g id="home" transform="translate(-0.304)">
        <g id="Container" transform="translate(0 0)">
            <g id="Glyph_Copy" >
                <g id="home-2" >
                    <path id="Shape" d="M16.916,21h-3.5a.584.584,0,0,1-.584-.583v-7a.584.584,0,0,0-.583-.584H8.75a.584.584,0,0,0-.583.584v7A.584.584,0,0,1,7.584,21h-3.5a2.92,2.92,0,0,1-2.916-2.916V9.026L.954,9.2a.584.584,0,0,1-.821-.079A.583.583,0,0,1,.213,8.3L10.129.133a.583.583,0,0,1,.742,0L20.787,8.3a.583.583,0,0,1-.37,1.033.585.585,0,0,1-.371-.133l-.213-.175v9.058A2.92,2.92,0,0,1,16.916,21ZM8.75,11.667h3.5A1.752,1.752,0,0,1,14,13.417v6.417h2.916a1.752,1.752,0,0,0,1.75-1.75V8.167a.632.632,0,0,1,.008-.1L10.5,1.339,2.326,8.071a.629.629,0,0,1,.008.1v9.917a1.752,1.752,0,0,0,1.75,1.75H7V13.417A1.752,1.752,0,0,1,8.75,11.667Z" transform="translate(0.304)" fill="#b5bbc6"/>
                </g>
            </g>
        </g>
    </g>
</svg>
