<svg xmlns="http://www.w3.org/2000/svg" width="342.139" height="254.934" viewBox="0 0 342.139 254.934">
    <g id="Social_media-rafiki" data-name="Social media-rafiki" transform="translate(0 -55)">
        <g id="freepik--background-complete--inject-11" transform="translate(0 55)">
            <rect id="Rectangle_26912" data-name="Rectangle 26912" width="342.139" height="0.171" transform="translate(0 224.032)" fill="#e0e0e0"/>
            <rect id="Rectangle_26913" data-name="Rectangle 26913" width="23.539" height="0.171" transform="translate(69.228 231.279)" fill="#e0e0e0"/>
            <rect id="Rectangle_26914" data-name="Rectangle 26914" width="13.248" height="0.171" transform="translate(50.965 231.361)" fill="#e0e0e0"/>
            <rect id="Rectangle_26915" data-name="Rectangle 26915" width="26.851" height="0.171" transform="translate(119.749 230.964)" fill="#e0e0e0"/>
            <rect id="Rectangle_26916" data-name="Rectangle 26916" width="79.226" height="0.171" transform="translate(136.021 228.528)" fill="#e0e0e0"/>
            <rect id="Rectangle_26917" data-name="Rectangle 26917" width="36.26" height="0.171" transform="translate(246.805 228.617)" fill="#e0e0e0"/>
            <path id="Path_31385" data-name="Path 31385" d="M174.238,248.514H42.11a3.907,3.907,0,0,1-3.9-3.907V58.873A3.907,3.907,0,0,1,42.11,55H174.238a3.907,3.907,0,0,1,3.907,3.907v185.7A3.907,3.907,0,0,1,174.238,248.514ZM42.11,55.137a3.736,3.736,0,0,0-3.729,3.736V244.606a3.736,3.736,0,0,0,3.729,3.736H174.238a3.743,3.743,0,0,0,3.736-3.736V58.873a3.743,3.743,0,0,0-3.736-3.736Z" transform="translate(-12.064 -55)" fill="#e0e0e0"/>
            <path id="Path_31386" data-name="Path 31386" d="M390.541,248.514H258.407a3.914,3.914,0,0,1-3.907-3.907V58.873A3.914,3.914,0,0,1,258.407,55H390.541a3.907,3.907,0,0,1,3.894,3.873V244.606A3.907,3.907,0,0,1,390.541,248.514ZM258.407,55.137a3.743,3.743,0,0,0-3.736,3.736V244.606a3.743,3.743,0,0,0,3.736,3.736H390.541a3.743,3.743,0,0,0,3.736-3.736V58.873a3.743,3.743,0,0,0-3.736-3.736Z" transform="translate(-80.351 -55)" fill="#e0e0e0"/>
            <path id="Path_31387" data-name="Path 31387" d="M206.266,284.61h0c-.376,0-.753,0-1.136.034a16.2,16.2,0,0,0-14.507,20.371,81.156,81.156,0,0,1,2.539,21.1v20.72a2.737,2.737,0,0,0,2.737,2.737h65.773V284.61Z" transform="translate(-60.009 -127.493)" fill="#e6e6e6"/>
            <path id="Path_31388" data-name="Path 31388" d="M303.4,300.848a16.2,16.2,0,0,0-32.366-1.054,16.368,16.368,0,0,0,.52,5.269,80.867,80.867,0,0,1,2.546,21.1v20.72a2.737,2.737,0,0,0,2.737,2.737h20.768a2.737,2.737,0,0,0,2.737-2.737V324.948a74.033,74.033,0,0,1,2.5-19.769A16.183,16.183,0,0,0,303.4,300.848Z" transform="translate(-85.561 -127.534)" fill="#f2f3f5"/>
            <rect id="Rectangle_26918" data-name="Rectangle 26918" width="59.033" height="39.435" transform="translate(120.289 182.634)" fill="#e6e6e6"/>
            <path id="Path_31389" data-name="Path 31389" d="M116.745,228.61h54.468a12.262,12.262,0,0,1,12.317,12.262v60.49H104.49v-60.49A12.262,12.262,0,0,1,116.745,228.61Z" transform="translate(-32.99 -109.813)" fill="#e0e0e0"/>
            <path id="Path_31390" data-name="Path 31390" d="M138.7,228.61h55.673a11.667,11.667,0,0,1,11.667,11.667v61.079H127V240.284a11.667,11.667,0,0,1,11.7-11.674Z" transform="translate(-40.097 -109.813)" fill="#f2f3f5"/>
            <path id="Path_31391" data-name="Path 31391" d="M180.941,316.64h54.414a3.558,3.558,0,0,1,3.558,3.558v8.944a3.558,3.558,0,0,1-3.558,3.558H180.941a1.061,1.061,0,0,1-1.061-1.061V317.7a1.061,1.061,0,0,1,1.061-1.061Z" transform="translate(-56.792 -137.606)" fill="#e0e0e0"/>
            <path id="Path_31392" data-name="Path 31392" d="M88.526,284.61h0c-.376,0-.753,0-1.136.034a16.2,16.2,0,0,0-14.507,20.371,81.156,81.156,0,0,1,2.539,21.1v20.72a2.737,2.737,0,0,0,2.737,2.737h65.766V284.61Z" transform="translate(-22.835 -127.493)" fill="#e6e6e6"/>
            <path id="Path_31393" data-name="Path 31393" d="M185.641,300.848a16.2,16.2,0,0,0-32.366-1.054,16.368,16.368,0,0,0,.52,5.269,80.867,80.867,0,0,1,2.546,21.1v20.72a2.737,2.737,0,0,0,2.737,2.737h20.768a2.737,2.737,0,0,0,2.737-2.737V324.948a74.032,74.032,0,0,1,2.5-19.769,16.182,16.182,0,0,0,.554-4.331Z" transform="translate(-48.382 -127.534)" fill="#f2f3f5"/>
            <path id="Path_31394" data-name="Path 31394" d="M230.421,381.5H96.761a1.971,1.971,0,0,1-1.971-1.971H232.384A1.971,1.971,0,0,1,230.421,381.5Z" transform="translate(-29.927 -157.462)" fill="#e0e0e0"/>
            <rect id="Rectangle_26919" data-name="Rectangle 26919" width="39.325" height="40.756" transform="translate(58.759 31.792)" fill="#e0e0e0"/>
            <rect id="Rectangle_26920" data-name="Rectangle 26920" width="38.34" height="40.756" transform="translate(61.989 31.792)" fill="#f2f3f5"/>
            <rect id="Rectangle_26921" data-name="Rectangle 26921" width="34.33" height="31.915" transform="translate(97.113 35.001) rotate(90)" fill="#fafafa"/>
            <path id="Path_31395" data-name="Path 31395" d="M114.575,118.56l-8.725,15.116h17.456Z" transform="translate(-33.419 -75.067)" fill="#f2f3f5"/>
            <rect id="Rectangle_26922" data-name="Rectangle 26922" width="39.325" height="40.756" transform="translate(111.181 48.953)" fill="#e0e0e0"/>
            <rect id="Rectangle_26923" data-name="Rectangle 26923" width="38.34" height="40.756" transform="translate(114.404 48.953)" fill="#f2f3f5"/>
            <rect id="Rectangle_26924" data-name="Rectangle 26924" width="34.33" height="31.915" transform="translate(149.528 52.169) rotate(90)" fill="#fafafa"/>
            <path id="Path_31396" data-name="Path 31396" d="M195.289,159.123l3.784-6.555a4.516,4.516,0,0,0-3.907-6.768h-7.575a4.509,4.509,0,0,0-3.9,6.768l3.784,6.555a4.509,4.509,0,0,0,7.814,0Z" transform="translate(-57.804 -83.668)" fill="#f2f3f5"/>
            <rect id="Rectangle_26925" data-name="Rectangle 26925" width="10.75" height="93.89" transform="translate(230.848 126.899)" fill="#e6e6e6"/>
            <rect id="Rectangle_26926" data-name="Rectangle 26926" width="59.539" height="3.237" transform="translate(233.681 220.789)" fill="#e6e6e6"/>
            <rect id="Rectangle_26927" data-name="Rectangle 26927" width="54.462" height="93.89" transform="translate(296.053 220.796) rotate(180)" fill="#f2f3f5"/>
            <rect id="Rectangle_26928" data-name="Rectangle 26928" width="42.849" height="16.765" transform="translate(290.25 192.556) rotate(180)" fill="#e6e6e6"/>
            <rect id="Rectangle_26929" data-name="Rectangle 26929" width="42.849" height="16.765" transform="translate(290.25 214.5) rotate(180)" fill="#e6e6e6"/>
            <rect id="Rectangle_26930" data-name="Rectangle 26930" width="14.582" height="2.299" rx="1.15" transform="translate(261.531 183.024)" fill="#f2f3f5"/>
            <rect id="Rectangle_26931" data-name="Rectangle 26931" width="14.582" height="2.299" rx="1.15" transform="translate(261.531 204.968)" fill="#f2f3f5"/>
            <rect id="Rectangle_26932" data-name="Rectangle 26932" width="42.849" height="16.765" transform="translate(290.25 148.844) rotate(180)" fill="#e6e6e6"/>
            <rect id="Rectangle_26933" data-name="Rectangle 26933" width="42.849" height="16.765" transform="translate(290.25 170.618) rotate(180)" fill="#e6e6e6"/>
            <rect id="Rectangle_26934" data-name="Rectangle 26934" width="14.582" height="2.299" rx="1.15" transform="translate(261.531 139.312)" fill="#f2f3f5"/>
            <rect id="Rectangle_26935" data-name="Rectangle 26935" width="14.582" height="2.299" rx="1.15" transform="translate(261.531 161.079)" fill="#f2f3f5"/>
            <path id="Path_31397" data-name="Path 31397" d="M407.117,200.81H397.024s1.752,6.049,1.752,9.58-7.678,17.518,3.3,17.518,3.291-13.952,3.291-17.518S407.117,200.81,407.117,200.81Z" transform="translate(-125.078 -101.036)" fill="#f2f3f5"/>
            <path id="Path_31398" data-name="Path 31398" d="M369.36,210.464a4.79,4.79,0,1,1-4.79-4.824A4.79,4.79,0,0,1,369.36,210.464Z" transform="translate(-113.591 -102.56)" fill="#f2f3f5"/>
            <path id="Path_31399" data-name="Path 31399" d="M381.4,213.824A4.824,4.824,0,1,1,376.574,209a4.824,4.824,0,0,1,4.824,4.824Z" transform="translate(-117.37 -103.621)" fill="#f2f3f5"/>
            <path id="Path_31400" data-name="Path 31400" d="M391.708,211.1a4.824,4.824,0,1,1-4.824-4.824,4.824,4.824,0,0,1,4.824,4.824Z" transform="translate(-120.625 -102.763)" fill="#f2f3f5"/>
            <path id="Path_31401" data-name="Path 31401" d="M354.11,216.18v5.474c0,6.1,5.905,11.1,13.118,11.1h6.514c7.219,0,13.124-5,13.124-11.1V216.18Z" transform="translate(-111.801 -105.888)" fill="#e6e6e6"/>
            <path id="Path_31402" data-name="Path 31402" d="M317.036,162.352a13.706,13.706,0,1,1,0-27.412h1.683v27.412Z" transform="translate(-95.768 -80.239)" fill="#e0e0e0"/>
            <circle id="Ellipse_1607" data-name="Ellipse 1607" cx="13.706" cy="13.706" r="13.706" transform="translate(206.489 78.643) rotate(-76.83)" fill="#f2f3f5"/>
            <path id="Path_31403" data-name="Path 31403" d="M325.931,137.788a1.711,1.711,0,0,1,0-3.421,14.815,14.815,0,0,0,14.8-14.794V96.821a1.711,1.711,0,0,1,3.421,0v22.752a18.243,18.243,0,0,1-18.222,18.215Z" transform="translate(-102.364 -67.664)" fill="#e0e0e0"/>
            <path id="Path_31404" data-name="Path 31404" d="M359.563,117.113H327.21l3.613-29.643H355.95Z" transform="translate(-103.308 -65.252)" fill="#f2f3f5"/>
        </g>
        <g id="freepik--Shadow--inject-11" transform="translate(38.395 294.442)">
            <ellipse id="Ellipse_1608" data-name="Ellipse 1608" cx="132.675" cy="7.746" rx="132.675" ry="7.746" fill="#f5f5f5"/>
        </g>
        <g id="freepik--Hashtag--inject-11" transform="translate(57.467 91.616)">
            <path id="Path_31405" data-name="Path 31405" d="M301.109,257.806l-1.17-9.094a5.625,5.625,0,0,0-5.57-4.9H264.055a5.611,5.611,0,0,1-5.57-4.893L252.2,190.144a5.6,5.6,0,0,1,5.563-6.33h27.412a5.611,5.611,0,0,0,5.563-6.336l-1.163-9.1a5.611,5.611,0,0,0-5.57-4.893H253.7a5.611,5.611,0,0,1-5.563-4.9l-5.83-45.162a5.618,5.618,0,0,0-5.57-4.9h-9.005a5.618,5.618,0,0,0-5.57,6.336l5.474,42.275a5.618,5.618,0,0,1-5.57,6.336h-73.4a5.611,5.611,0,0,1-5.563-4.9l-5.83-45.162a5.611,5.611,0,0,0-5.563-4.9H122.7a5.618,5.618,0,0,0-5.57,6.336l5.474,42.275a5.618,5.618,0,0,1-5.57,6.336H89.6a5.611,5.611,0,0,0-5.57,6.33l1.177,9.094a5.611,5.611,0,0,0,5.57,4.9h30.307a5.611,5.611,0,0,1,5.57,4.893l6.3,48.775a5.611,5.611,0,0,1-5.57,6.33H99.965a5.618,5.618,0,0,0-5.57,6.336l1.177,9.094a5.611,5.611,0,0,0,5.563,4.9h30.313a5.611,5.611,0,0,1,5.57,4.893l5.823,45.162a5.618,5.618,0,0,0,5.57,4.9h9.005a5.618,5.618,0,0,0,5.57-6.336l-5.474-42.275a5.611,5.611,0,0,1,5.584-6.275h73.382a5.611,5.611,0,0,1,5.584,4.858l5.823,45.162a5.618,5.618,0,0,0,5.57,4.9h9.005a5.611,5.611,0,0,0,5.563-6.336l-5.474-42.275a5.611,5.611,0,0,1,5.57-6.33h27.412a5.618,5.618,0,0,0,5.577-6.35ZM153.455,238.92l-6.289-48.775a5.611,5.611,0,0,1,5.563-6.33h73.382a5.611,5.611,0,0,1,5.57,4.893l6.275,48.782a5.611,5.611,0,0,1-5.57,6.33H159.025a5.618,5.618,0,0,1-5.57-4.9Z" transform="translate(-83.982 -108.51)" fill="#00ae9f"/>
            <path id="Path_31406" data-name="Path 31406" d="M301.109,257.806l-1.17-9.094a5.625,5.625,0,0,0-5.57-4.9H264.055a5.611,5.611,0,0,1-5.57-4.893L252.2,190.144a5.6,5.6,0,0,1,5.563-6.33h27.412a5.611,5.611,0,0,0,5.563-6.336l-1.163-9.1a5.611,5.611,0,0,0-5.57-4.893H253.7a5.611,5.611,0,0,1-5.563-4.9l-5.83-45.162a5.618,5.618,0,0,0-5.57-4.9h-9.005a5.618,5.618,0,0,0-5.57,6.336l5.474,42.275a5.618,5.618,0,0,1-5.57,6.336h-73.4a5.611,5.611,0,0,1-5.563-4.9l-5.83-45.162a5.611,5.611,0,0,0-5.563-4.9H122.7a5.618,5.618,0,0,0-5.57,6.336l5.474,42.275a5.618,5.618,0,0,1-5.57,6.336H89.6a5.611,5.611,0,0,0-5.57,6.33l1.177,9.094a5.611,5.611,0,0,0,5.57,4.9h30.307a5.611,5.611,0,0,1,5.57,4.893l6.3,48.775a5.611,5.611,0,0,1-5.57,6.33H99.965a5.618,5.618,0,0,0-5.57,6.336l1.177,9.094a5.611,5.611,0,0,0,5.563,4.9h30.313a5.611,5.611,0,0,1,5.57,4.893l5.823,45.162a5.618,5.618,0,0,0,5.57,4.9h9.005a5.618,5.618,0,0,0,5.57-6.336l-5.474-42.275a5.611,5.611,0,0,1,5.584-6.275h73.382a5.611,5.611,0,0,1,5.584,4.858l5.823,45.162a5.618,5.618,0,0,0,5.57,4.9h9.005a5.611,5.611,0,0,0,5.563-6.336l-5.474-42.275a5.611,5.611,0,0,1,5.57-6.33h27.412a5.618,5.618,0,0,0,5.577-6.35ZM153.455,238.92l-6.289-48.775a5.611,5.611,0,0,1,5.563-6.33h73.382a5.611,5.611,0,0,1,5.57,4.893l6.275,48.782a5.611,5.611,0,0,1-5.57,6.33H159.025a5.618,5.618,0,0,1-5.57-4.9Z" transform="translate(-83.982 -108.51)" fill="#00ae9f" opacity="0.4"/>
            <path id="Path_31407" data-name="Path 31407" d="M202.757,299.565l-.684-5.2.684-.089.684,5.2Zm96-69.933-2.409-18.647.684-.082,2.4,18.64ZM184.952,161.587l-.979-7.486.684-.089.972,7.527Zm-1.56-12.091-1.642-12.707.684-.089,1.635,12.707Z" transform="translate(-114.85 -117.41)" fill="#00ae9f"/>
            <path id="Path_31408" data-name="Path 31408" d="M202.757,299.565l-.684-5.2.684-.089.684,5.2Zm96-69.933-2.409-18.647.684-.082,2.4,18.64ZM184.952,161.587l-.979-7.486.684-.089.972,7.527Zm-1.56-12.091-1.642-12.707.684-.089,1.635,12.707Z" transform="translate(-114.85 -117.41)" fill="#00ae9f" opacity="0.3"/>
            <path id="Path_31409" data-name="Path 31409" d="M315.8,257.812l-1.177-9.094a5.618,5.618,0,0,0-5.57-4.9H278.743a5.611,5.611,0,0,1-5.563-4.893l-6.3-48.775a5.618,5.618,0,0,1,5.57-6.33h27.412a5.618,5.618,0,0,0,5.57-6.336l-1.211-9.1a5.6,5.6,0,0,0-5.563-4.893H268.348a5.618,5.618,0,0,1-5.57-4.9l-5.823-45.162a5.618,5.618,0,0,0-5.57-4.9H242.38a5.618,5.618,0,0,0-5.57,6.336l5.474,42.275a5.618,5.618,0,0,1-5.57,6.336h-73.4a5.618,5.618,0,0,1-5.584-4.879l-5.823-45.162a5.618,5.618,0,0,0-5.57-4.9H137.35a5.611,5.611,0,0,0-5.563,6.336l5.474,42.275a5.618,5.618,0,0,1-5.57,6.336H104.259a5.611,5.611,0,0,0-5.57,6.33l1.17,9.094a5.618,5.618,0,0,0,5.57,4.9h30.313a5.611,5.611,0,0,1,5.57,4.893l6.289,48.8a5.6,5.6,0,0,1-5.563,6.33H114.625a5.611,5.611,0,0,0-5.563,6.336l1.17,9.094a5.618,5.618,0,0,0,5.57,4.9h30.3a5.6,5.6,0,0,1,5.563,4.893l5.83,45.162a5.618,5.618,0,0,0,5.57,4.9H172.1a5.618,5.618,0,0,0,5.57-6.336L172.2,270.5a5.611,5.611,0,0,1,5.57-6.33h73.368a5.611,5.611,0,0,1,5.563,4.893l5.83,45.162a5.611,5.611,0,0,0,5.563,4.9H277.1a5.618,5.618,0,0,0,5.57-6.336L277.2,270.512a5.611,5.611,0,0,1,5.563-6.33h27.419a5.618,5.618,0,0,0,5.625-6.371ZM168.15,238.926l-6.309-48.775a5.618,5.618,0,0,1,5.57-6.33h73.361a5.618,5.618,0,0,1,5.57,4.892l6.289,48.783a5.611,5.611,0,0,1-5.563,6.33H173.685a5.611,5.611,0,0,1-5.57-4.9Z" transform="translate(-88.611 -108.516)" fill="#00ae9f"/>
            <path id="Path_31410" data-name="Path 31410" d="M315.8,257.812l-1.177-9.094a5.618,5.618,0,0,0-5.57-4.9H278.743a5.611,5.611,0,0,1-5.563-4.893l-6.3-48.775a5.618,5.618,0,0,1,5.57-6.33h27.412a5.618,5.618,0,0,0,5.57-6.336l-1.211-9.1a5.6,5.6,0,0,0-5.563-4.893H268.348a5.618,5.618,0,0,1-5.57-4.9l-5.823-45.162a5.618,5.618,0,0,0-5.57-4.9H242.38a5.618,5.618,0,0,0-5.57,6.336l5.474,42.275a5.618,5.618,0,0,1-5.57,6.336h-73.4a5.618,5.618,0,0,1-5.584-4.879l-5.823-45.162a5.618,5.618,0,0,0-5.57-4.9H137.35a5.611,5.611,0,0,0-5.563,6.336l5.474,42.275a5.618,5.618,0,0,1-5.57,6.336H104.259a5.611,5.611,0,0,0-5.57,6.33l1.17,9.094a5.618,5.618,0,0,0,5.57,4.9h30.313a5.611,5.611,0,0,1,5.57,4.893l6.289,48.8a5.6,5.6,0,0,1-5.563,6.33H114.625a5.611,5.611,0,0,0-5.563,6.336l1.17,9.094a5.618,5.618,0,0,0,5.57,4.9h30.3a5.6,5.6,0,0,1,5.563,4.893l5.83,45.162a5.618,5.618,0,0,0,5.57,4.9H172.1a5.618,5.618,0,0,0,5.57-6.336L172.2,270.5a5.611,5.611,0,0,1,5.57-6.33h73.368a5.611,5.611,0,0,1,5.563,4.893l5.83,45.162a5.611,5.611,0,0,0,5.563,4.9H277.1a5.618,5.618,0,0,0,5.57-6.336L277.2,270.512a5.611,5.611,0,0,1,5.563-6.33h27.419a5.618,5.618,0,0,0,5.625-6.371ZM168.15,238.926l-6.309-48.775a5.618,5.618,0,0,1,5.57-6.33h73.361a5.618,5.618,0,0,1,5.57,4.892l6.289,48.783a5.611,5.611,0,0,1-5.563,6.33H173.685a5.611,5.611,0,0,1-5.57-4.9Z" transform="translate(-88.611 -108.516)" fill="#00ae9f" opacity="0.3"/>
            <path id="Path_31411" data-name="Path 31411" d="M278,318.031H269a3.647,3.647,0,0,1-3.613-3.182l-5.83-45.162a7.6,7.6,0,0,0-7.527-6.61H178.661a7.582,7.582,0,0,0-7.527,8.553l5.474,42.275a3.64,3.64,0,0,1-3.62,4.106h-9.012a3.647,3.647,0,0,1-3.62-3.182l-5.823-45.162a7.609,7.609,0,0,0-7.527-6.61H116.693a3.661,3.661,0,0,1-3.62-3.182l-1.17-9.094a3.64,3.64,0,0,1,3.613-4.106h27.419a7.589,7.589,0,0,0,7.527-8.553l-6.3-48.768a7.6,7.6,0,0,0-7.527-6.617H106.326a3.647,3.647,0,0,1-3.613-3.175l-1.177-9.1a3.64,3.64,0,0,1,3.62-4.106h27.412A7.582,7.582,0,0,0,140.1,157.8l-5.474-42.275a3.64,3.64,0,0,1,3.613-4.106h9.005a3.661,3.661,0,0,1,3.62,3.182l5.823,45.162a7.6,7.6,0,0,0,7.527,6.61h73.4a7.582,7.582,0,0,0,7.527-8.553l-5.474-42.275a3.64,3.64,0,0,1,3.613-4.106h9.005a3.668,3.668,0,0,1,3.62,3.182l5.823,45.162a7.6,7.6,0,0,0,7.527,6.61H299.6a3.654,3.654,0,0,1,3.613,3.182l1.177,9.074a3.64,3.64,0,0,1-3.62,4.106H273.324a7.589,7.589,0,0,0-7.527,8.553l6.3,48.775a7.6,7.6,0,0,0,7.527,6.61h30.313a3.654,3.654,0,0,1,3.62,3.182l1.17,9.094a3.64,3.64,0,0,1-3.613,4.106H283.691a7.568,7.568,0,0,0-7.527,8.553l5.474,42.275a3.654,3.654,0,0,1-3.62,4.106Zm-99.343-55.112h73.382a7.767,7.767,0,0,1,7.684,6.761l5.83,45.162a3.476,3.476,0,0,0,3.421,3.031h9.005a3.469,3.469,0,0,0,3.421-3.921l-5.474-42.275a7.753,7.753,0,0,1,7.691-8.745h27.412a3.469,3.469,0,0,0,3.421-3.921l-1.177-9.094a3.476,3.476,0,0,0-3.421-3.031H279.544a7.773,7.773,0,0,1-7.684-6.761l-6.3-48.775a7.753,7.753,0,0,1,7.691-8.745h27.412a3.469,3.469,0,0,0,3.421-3.921l-1.067-9.108a3.49,3.49,0,0,0-3.421-3.031H269.287a7.773,7.773,0,0,1-7.691-6.761l-5.823-45.162a3.483,3.483,0,0,0-3.421-3.031h-9.067a3.476,3.476,0,0,0-3.421,3.921l5.474,42.275a7.753,7.753,0,0,1-7.732,8.772H164.223a7.773,7.773,0,0,1-7.691-6.761l-5.823-45.162a3.483,3.483,0,0,0-3.421-3.031h-9.032a3.469,3.469,0,0,0-3.421,3.921l5.474,42.275a7.753,7.753,0,0,1-7.732,8.759H105.163a3.476,3.476,0,0,0-3.421,3.921l1.143,9.08a3.483,3.483,0,0,0,3.421,3.031h30.313a7.773,7.773,0,0,1,7.691,6.761l6.289,48.775a7.746,7.746,0,0,1-7.684,8.745H115.53a3.469,3.469,0,0,0-3.421,3.921l1.17,9.094a3.483,3.483,0,0,0,3.421,3.031h30.307a7.767,7.767,0,0,1,7.684,6.761l5.83,45.162a3.476,3.476,0,0,0,3.421,3.031h9.067a3.469,3.469,0,0,0,3.421-3.921l-5.474-42.275a7.753,7.753,0,0,1,7.691-8.745Zm69.31-16.046H174.59a7.773,7.773,0,0,1-7.691-6.761l-6.3-48.775a7.753,7.753,0,0,1,7.691-8.745h73.382a7.773,7.773,0,0,1,7.691,6.761l6.289,48.775a7.753,7.753,0,0,1-7.684,8.745Zm-79.677-64.11a7.589,7.589,0,0,0-7.527,8.553l6.3,48.775a7.6,7.6,0,0,0,7.527,6.61h73.382a7.582,7.582,0,0,0,7.527-8.553L249.21,189.38a7.6,7.6,0,0,0-7.527-6.617Z" transform="translate(-89.515 -109.429)" fill="#00ae9f"/>
        </g>
        <g id="freepik--Character--inject-11" transform="translate(133.452 138.262)">
            <path id="Path_31412" data-name="Path 31412" d="M275.92,369.318l5.372,3.141L289.4,360.5l-5.372-3.148Z" transform="translate(-220.566 -233.721)" fill="#e4897b"/>
            <path id="Path_31413" data-name="Path 31413" d="M279.3,376.58l-4.414-5.426a.493.493,0,0,0-.643-.116l-4.79,2.874a1.006,1.006,0,0,0-.233,1.478c1.574,1.861,2.429,2.682,4.373,5.07,1.191,1.471,3.51,4.633,5.166,6.658s3.743.5,3.237-.493c-2.272-4.448-2.361-6.843-2.327-9A1.6,1.6,0,0,0,279.3,376.58Z" transform="translate(-218.378 -238.019)" fill="#263238"/>
            <path id="Path_31414" data-name="Path 31414" d="M285.883,382.886h-.13c-.876-.137-1.806-1.67-2.279-2.566a.1.1,0,0,1,.13-.144c.287.123,2.819,1.239,2.977,2.053a.438.438,0,0,1-.137.4A.78.78,0,0,1,285.883,382.886Zm-2.053-2.409c.719,1.293,1.458,2.108,1.984,2.19a.561.561,0,0,0,.513-.178.253.253,0,0,0,.075-.219c-.13-.547-1.724-1.389-2.573-1.793Z" transform="translate(-222.947 -240.925)" fill="#00ae9f"/>
            <path id="Path_31415" data-name="Path 31415" d="M285.587,380.35a5.474,5.474,0,0,1-2.053-.417.089.089,0,0,1-.055-.082.1.1,0,0,1,.041-.1,4.153,4.153,0,0,1,2.422-.787,1.047,1.047,0,0,1,.684.458c.212.322.13.527,0,.636A1.465,1.465,0,0,1,285.587,380.35Zm-1.8-.527c.842.335,2.388.452,2.7.1,0-.034.116-.13-.055-.383a.814.814,0,0,0-.547-.37,3.647,3.647,0,0,0-2.1.677Z" transform="translate(-222.952 -240.538)" fill="#00ae9f"/>
            <path id="Path_31416" data-name="Path 31416" d="M260.676,237.13l.26,1.04.294,1.122c.2.753.424,1.512.65,2.272q.684,2.279,1.444,4.55c.534,1.505,1.047,3.025,1.629,4.523.281.746.561,1.505.855,2.251l.349.9a2.053,2.053,0,0,0,.274.431,8.033,8.033,0,0,0,3.031,1.916,28.681,28.681,0,0,0,4.318,1.369c1.519.356,3.079.65,4.66.9s3.2.438,4.79.609l.055,3.223a49.614,49.614,0,0,1-10.264,0,29.618,29.618,0,0,1-5.276-1.02,17.34,17.34,0,0,1-2.737-1.074,10.469,10.469,0,0,1-2.737-1.916,7.486,7.486,0,0,1-1.2-1.553,4.925,4.925,0,0,1-.253-.458l-.157-.322-.274-.568c-.37-.76-.739-1.519-1.081-2.292-.684-1.546-1.369-3.1-1.971-4.687s-1.184-3.189-1.7-4.79c-.253-.821-.493-1.649-.684-2.484l-.328-1.273c-.1-.445-.185-.828-.281-1.369Z" transform="translate(-213.752 -195.765)" fill="#e4897b"/>
            <path id="Path_31417" data-name="Path 31417" d="M257,227.022c2.566.65,4.366,11.215,4.366,11.215l-7.075,4.79s-6.781-10.654-4.79-13.48C251.54,226.632,253.258,226.064,257,227.022Z" transform="translate(-212.109 -192.438)" fill="#00ae9f"/>
            <path id="Path_31418" data-name="Path 31418" d="M257,227.022c2.566.65,4.366,11.215,4.366,11.215l-7.075,4.79s-6.781-10.654-4.79-13.48C251.54,226.632,253.258,226.064,257,227.022Z" transform="translate(-212.109 -192.438)" fill="#00ae9f" opacity="0.2"/>
            <path id="Path_31419" data-name="Path 31419" d="M258.231,232.83l-5.474,1.273-.527,5.372a62.273,62.273,0,0,0,3.079,5.543l4.29-2.915C259.374,239.632,258.915,234.5,258.231,232.83Z" transform="translate(-213.086 -194.407)" fill="#00ae9f"/>
            <path id="Path_31420" data-name="Path 31420" d="M258.231,232.83l-5.474,1.273-.527,5.372a62.273,62.273,0,0,0,3.079,5.543l4.29-2.915C259.374,239.632,258.915,234.5,258.231,232.83Z" transform="translate(-213.086 -194.407)" fill="#00ae9f" opacity="0.3"/>
            <path id="Path_31421" data-name="Path 31421" d="M294.9,266.935l4.414-4.475.582,6.3s-3.312,2.244-5.6,1.04Z" transform="translate(-226.366 -203.762)" fill="#e4897b"/>
            <path id="Path_31422" data-name="Path 31422" d="M306.824,261.47l.2,5.31-4.81,1.663-.582-6.3Z" transform="translate(-228.683 -203.449)" fill="#e4897b"/>
            <path id="Path_31423" data-name="Path 31423" d="M262.97,386.175H269.2l2-14.425h-6.234Z" transform="translate(-216.477 -238.267)" fill="#e4897b"/>
            <path id="Path_31424" data-name="Path 31424" d="M267.931,388.563l-6.159-3.291a.493.493,0,0,0-.636.144l-3.305,4.509a1.006,1.006,0,0,0,.363,1.451c2.169,1.109,3.278,1.533,5.994,2.977,1.67.89,5.857,3.346,8.17,4.578s3.64-.992,2.792-1.711c-3.811-3.216-5.659-5.837-6.46-7.828A1.6,1.6,0,0,0,267.931,388.563Z" transform="translate(-214.8 -242.517)" fill="#263238"/>
            <path id="Path_31425" data-name="Path 31425" d="M213.791,186.937c-.157,6.843-8.533,4.017-9.47,11.9-.527,4.427-5.892,4.886-6.843,8.9-.931,3.88,2.853,6.7,0,11.53-3.818,6.466-5.953,17.743,15.472,18.913,15.93.869,21.534-15.314,18.831-25.257s-4.208-11.475-1.245-14.212,7.712-4.106,6.193-12.468c-1.177-6.466-4.037-5.707-4.037-5.707C232.548,176.96,214.168,171.712,213.791,186.937Z" transform="translate(-195.026 -176.679)" fill="#263238"/>
            <path id="Path_31426" data-name="Path 31426" d="M291.209,360.5l-4.181,6.165-5.378-3.141,4.181-6.172Z" transform="translate(-222.375 -233.721)" fill="#ce6f64"/>
            <path id="Path_31427" data-name="Path 31427" d="M265.413,371.76h6.234l-1.04,7.431H264.38Z" transform="translate(-216.922 -238.27)" fill="#ce6f64"/>
            <path id="Path_31428" data-name="Path 31428" d="M245.5,226.39s2.97,1.047-2.977,37.587H217.209c.424-10.264.431-16.642-4.489-37.772a74.815,74.815,0,0,1,10.743-1.41,80.39,80.39,0,0,1,11.489,0C239.906,225.247,245.5,226.39,245.5,226.39Z" transform="translate(-200.612 -191.805)" fill="#00ae9f"/>
            <path id="Path_31429" data-name="Path 31429" d="M245.5,226.39s2.97,1.047-2.977,37.587H217.209c.424-10.264.431-16.642-4.489-37.772a74.815,74.815,0,0,1,10.743-1.41,80.39,80.39,0,0,1,11.489,0C239.906,225.247,245.5,226.39,245.5,226.39Z" transform="translate(-200.612 -191.805)" fill="#00ae9f" opacity="0.2"/>
            <path id="Path_31430" data-name="Path 31430" d="M229.6,206c.725,3.7,1.451,10.463-1.136,12.933,0,0,1.013,3.75,7.876,3.75,6.61,0,3.613-3.75,3.613-3.75-4.106-.985-4.017-4.044-3.3-6.918Z" transform="translate(-205.582 -185.936)" fill="#e4897b"/>
            <path id="Path_31431" data-name="Path 31431" d="M234.258,209.58l4.174,3.558a11.885,11.885,0,0,0-.349,2.053c-1.581-.226-3.743-1.957-3.907-3.606A5.653,5.653,0,0,1,234.258,209.58Z" transform="translate(-207.369 -187.066)" fill="#ce6f64"/>
            <path id="Path_31432" data-name="Path 31432" d="M229.24,188.271c-.684,6.158-1.15,8.718,1.369,12.385,3.777,5.515,11.475,5.05,14.007-.753,2.279-5.221,3.066-14.37-2.45-17.866a8.43,8.43,0,0,0-12.926,6.234Z" transform="translate(-205.657 -177.952)" fill="#e4897b"/>
            <path id="Path_31433" data-name="Path 31433" d="M228.806,191.311c.869,1.615,14.171-5.741,12.659-9.689s-5.474-2.518-5.474-2.518-7.028,1.6-8.211,5.248A8.8,8.8,0,0,0,228.806,191.311Z" transform="translate(-205.257 -177.365)" fill="#263238"/>
            <path id="Path_31434" data-name="Path 31434" d="M225.695,197.022a4.687,4.687,0,0,0,1.594,3.059c1.2,1.02,2.4.109,2.566-1.369.151-1.321-.294-3.421-1.738-3.9A1.911,1.911,0,0,0,225.695,197.022Z" transform="translate(-204.705 -182.371)" fill="#e4897b"/>
            <path id="Path_31435" data-name="Path 31435" d="M247.7,282.15s39.373,3.791,38.963,22.78c-.424,19.755-14.609,37.546-14.609,37.546l-7.438-4.208s8.211-17.387,7.787-29.232c-.342-10.127-38.1-12.071-38.1-12.071L229.09,282.15Z" transform="translate(-205.78 -209.979)" fill="#00ae9f"/>
            <path id="Path_31436" data-name="Path 31436" d="M247.7,282.15s39.373,3.791,38.963,22.78c-.424,19.755-14.609,37.546-14.609,37.546l-7.438-4.208s8.211-17.387,7.787-29.232c-.342-10.127-38.1-12.071-38.1-12.071L229.09,282.15Z" transform="translate(-205.78 -209.979)" fill="#fafafa" opacity="0.6"/>
            <path id="Path_31437" data-name="Path 31437" d="M276.33,298.42l.794,8.074c5.508,1.724,9.744,4.106,10.162,7.294C288.216,306.645,283.234,302.423,276.33,298.42Z" transform="translate(-220.695 -215.115)" fill="#00ae9f"/>
            <path id="Path_31438" data-name="Path 31438" d="M276.33,298.42l.794,8.074c5.508,1.724,9.744,4.106,10.162,7.294C288.216,306.645,283.234,302.423,276.33,298.42Z" transform="translate(-220.695 -215.115)" fill="#fafafa" opacity="0.4"/>
            <path id="Path_31439" data-name="Path 31439" d="M237.441,282.15s27.015,8.95,27.7,20.029c1.259,20.4-7.712,47.284-7.712,47.284H248.9s.479-17.839,1.5-36.321c1.273-23.218-39.688-.322-31.573-30.991Z" transform="translate(-202.204 -209.979)" fill="#00ae9f"/>
            <path id="Path_31440" data-name="Path 31440" d="M237.441,282.15s27.015,8.95,27.7,20.029c1.259,20.4-7.712,47.284-7.712,47.284H248.9s.479-17.839,1.5-36.321c1.273-23.218-39.688-.322-31.573-30.991Z" transform="translate(-202.204 -209.979)" fill="#fafafa" opacity="0.6"/>
            <path id="Path_31441" data-name="Path 31441" d="M242.5,196.281c-.089.493.1.937.424,1s.684-.3.746-.794-.1-.944-.424-1S242.589,195.782,242.5,196.281Z" transform="translate(-210.007 -182.615)" fill="#263238"/>
            <path id="Path_31442" data-name="Path 31442" d="M250.661,197.741c-.082.493.1.937.431,1s.684-.294.746-.794-.1-.937-.431-1S250.75,197.241,250.661,197.741Z" transform="translate(-212.585 -183.076)" fill="#263238"/>
            <path id="Path_31443" data-name="Path 31443" d="M251.55,196.94l1.245-.13S252.022,197.624,251.55,196.94Z" transform="translate(-212.872 -183.035)" fill="#263238"/>
            <path id="Path_31444" data-name="Path 31444" d="M247.99,199a13.522,13.522,0,0,0,1.17,3.421,2.183,2.183,0,0,1-1.82,0Z" transform="translate(-211.542 -183.726)" fill="#de5753"/>
            <path id="Path_31445" data-name="Path 31445" d="M242.195,204.813h-.041a4.311,4.311,0,0,1-2.176-2.32.094.094,0,0,1,.178-.062,4.188,4.188,0,0,0,2.053,2.21.09.09,0,0,1-.014.171Z" transform="translate(-209.216 -184.791)" fill="#263238"/>
            <path id="Path_31446" data-name="Path 31446" d="M241.509,192.915a.19.19,0,0,1-.137-.328,2.819,2.819,0,0,1,2.491-.684.188.188,0,0,1-.1.363,2.429,2.429,0,0,0-2.149.623A.2.2,0,0,1,241.509,192.915Z" transform="translate(-209.639 -181.466)" fill="#263238"/>
            <path id="Path_31447" data-name="Path 31447" d="M254.2,193.959a.205.205,0,0,1-.171-.116,2.463,2.463,0,0,0-1.683-1.464.187.187,0,1,1,.062-.37,2.792,2.792,0,0,1,1.964,1.683.178.178,0,0,1-.1.246A.137.137,0,0,1,254.2,193.959Z" transform="translate(-213.073 -181.518)" fill="#263238"/>
            <path id="Path_31448" data-name="Path 31448" d="M275.01,392.668a4.462,4.462,0,0,1-2.279-1.259.1.1,0,0,1-.034-.109.109.109,0,0,1,.089-.075c.253,0,2.477-.205,2.942.4a.458.458,0,0,1,.062.458.807.807,0,0,1-.554.554A1.134,1.134,0,0,1,275.01,392.668Zm-1.957-1.252c.9.753,1.683,1.136,2.128,1.02a.589.589,0,0,0,.411-.417.233.233,0,0,0,0-.26C275.264,391.362,273.827,391.368,273.053,391.416Z" transform="translate(-219.547 -244.405)" fill="#00ae9f"/>
            <path id="Path_31449" data-name="Path 31449" d="M272.8,390.619a.089.089,0,0,1-.089-.055.109.109,0,0,1,0-.1c.034-.062.876-1.629,1.738-1.834a.684.684,0,0,1,.609.116.459.459,0,0,1,.226.547c-.185.63-1.724,1.307-2.477,1.327Zm1.834-1.807h-.144c-.616.144-1.259,1.15-1.505,1.553.718-.109,1.95-.684,2.094-1.156a.293.293,0,0,0-.144-.315.513.513,0,0,0-.3-.082Z" transform="translate(-219.55 -243.587)" fill="#00ae9f"/>
            <path id="Path_31450" data-name="Path 31450" d="M243.38,195.43l1.252-.13S243.852,196.121,243.38,195.43Z" transform="translate(-210.292 -182.558)" fill="#263238"/>
            <path id="Path_31451" data-name="Path 31451" d="M218.659,279.911l-.2,2.265c-.089.178.116.356.411.356h25.585c.233,0,.417-.109.431-.253l.233-2.265c0-.157-.185-.294-.431-.294H219.069A.479.479,0,0,0,218.659,279.911Z" transform="translate(-202.418 -209.211)" fill="#263238"/>
            <path id="Path_31452" data-name="Path 31452" d="M223.367,282.667h-.684c-.137,0-.24-.068-.233-.157l.322-2.942c0-.089.13-.157.267-.157h.684c.137,0,.24.068.233.157l-.322,2.942C223.62,282.6,223.51,282.667,223.367,282.667Z" transform="translate(-203.684 -209.113)" fill="#00ae9f"/>
            <path id="Path_31453" data-name="Path 31453" d="M223.367,282.667h-.684c-.137,0-.24-.068-.233-.157l.322-2.942c0-.089.13-.157.267-.157h.684c.137,0,.24.068.233.157l-.322,2.942C223.62,282.6,223.51,282.667,223.367,282.667Z" transform="translate(-203.684 -209.113)" fill="#fafafa" opacity="0.6"/>
            <path id="Path_31454" data-name="Path 31454" d="M253.23,282.667h-.684c-.137,0-.24-.068-.226-.157l.322-2.942c0-.089.123-.157.26-.157h.684c.137,0,.24.068.226.157l-.322,2.942A.248.248,0,0,1,253.23,282.667Z" transform="translate(-213.114 -209.113)" fill="#00ae9f"/>
            <path id="Path_31455" data-name="Path 31455" d="M253.23,282.667h-.684c-.137,0-.24-.068-.226-.157l.322-2.942c0-.089.123-.157.26-.157h.684c.137,0,.24.068.226.157l-.322,2.942A.248.248,0,0,1,253.23,282.667Z" transform="translate(-213.114 -209.113)" fill="#fafafa" opacity="0.6"/>
            <path id="Path_31456" data-name="Path 31456" d="M238.3,282.667h-.684c-.137,0-.246-.068-.233-.157l.322-2.942c0-.089.13-.157.267-.157h.684c.137,0,.24.068.233.157l-.322,2.942C238.55,282.6,238.433,282.667,238.3,282.667Z" transform="translate(-208.397 -209.113)" fill="#00ae9f"/>
            <path id="Path_31457" data-name="Path 31457" d="M238.3,282.667h-.684c-.137,0-.246-.068-.233-.157l.322-2.942c0-.089.13-.157.267-.157h.684c.137,0,.24.068.233.157l-.322,2.942C238.55,282.6,238.433,282.667,238.3,282.667Z" transform="translate(-208.397 -209.113)" fill="#fafafa" opacity="0.6"/>
            <path id="Path_31458" data-name="Path 31458" d="M219.954,241.29l-3.264,2.778c.684,3.7,1.163,6.774,1.464,9.511C218.763,250.836,220.324,243.391,219.954,241.29Z" transform="translate(-201.866 -197.078)" fill="#00ae9f"/>
            <path id="Path_31459" data-name="Path 31459" d="M219.954,241.29l-3.264,2.778c.684,3.7,1.163,6.774,1.464,9.511C218.763,250.836,220.324,243.391,219.954,241.29Z" transform="translate(-201.866 -197.078)" fill="#00ae9f" opacity="0.3"/>
            <path id="Path_31460" data-name="Path 31460" d="M299.061,256.6H254.672l-6.432,26.215h44.389Z" transform="translate(-211.827 -201.912)" fill="#fafafa"/>
            <path id="Path_31461" data-name="Path 31461" d="M269.077,287.78l-27.145,6.33-17.422-4.886.178-1.444Z" transform="translate(-204.334 -211.756)" fill="#fafafa"/>
            <path id="Path_31462" data-name="Path 31462" d="M213.3,239.17c-.527,1.745-1.1,3.545-1.615,5.324s-1.054,3.572-1.519,5.358-.91,3.565-1.252,5.31c-.164.869-.322,1.738-.424,2.559a14.666,14.666,0,0,0-.116,1.738,3.127,3.127,0,0,0,.753,1.239,11.244,11.244,0,0,0,1.718,1.519,32.846,32.846,0,0,0,4.5,2.689c1.608.828,3.291,1.581,5.009,2.279s3.469,1.369,5.187,2.053l-.794,3.093c-1.964-.308-3.832-.746-5.734-1.218a54.621,54.621,0,0,1-5.625-1.779,33.039,33.039,0,0,1-5.556-2.641,16.421,16.421,0,0,1-2.737-2.053,8.471,8.471,0,0,1-2.32-3.49,6.665,6.665,0,0,1-.267-1.252v-2.676c.055-1.067.171-2.053.322-3.079.281-2,.684-3.928,1.109-5.83a114.109,114.109,0,0,1,3.2-11.2Z" transform="translate(-197.385 -195.758)" fill="#e4897b"/>
            <path id="Path_31463" data-name="Path 31463" d="M209.8,226.932c-2.532.773-6.412,10.723-6.412,10.723l9.833,7.028s4.42-8.506,3.353-11.783C215.44,229.457,212.7,226.021,209.8,226.932Z" transform="translate(-197.666 -192.498)" fill="#00ae9f"/>
            <path id="Path_31464" data-name="Path 31464" d="M209.8,226.932c-2.532.773-6.412,10.723-6.412,10.723l9.833,7.028s4.42-8.506,3.353-11.783C215.44,229.457,212.7,226.021,209.8,226.932Z" transform="translate(-197.666 -192.498)" fill="#00ae9f" opacity="0.2"/>
            <path id="Path_31465" data-name="Path 31465" d="M233.267,283.649l5.912-1.5-2.819,5.673s-3.989.171-5.31-2.053Z" transform="translate(-206.399 -209.979)" fill="#e4897b"/>
            <path id="Path_31466" data-name="Path 31466" d="M246.4,284.305l-2.614,4.626-4.975-1.109,2.819-5.673Z" transform="translate(-208.849 -209.979)" fill="#e4897b"/>
            <path id="Path_31467" data-name="Path 31467" d="M301.061,256.6H256.672l-6.432,26.215h44.389Z" transform="translate(-212.458 -201.912)" fill="#263238"/>
            <path id="Path_31468" data-name="Path 31468" d="M294.544,294.91l-.178,1.451h-44.4l.178-1.451Z" transform="translate(-212.373 -214.007)" fill="#263238"/>
            <path id="Path_31469" data-name="Path 31469" d="M245.82,184.83c5.981,2.395,6.473,5.837,6.159,3.421a9.165,9.165,0,0,0-5.4-6.809C245.368,180.936,243.206,183.783,245.82,184.83Z" transform="translate(-210.673 -178.164)" fill="#263238"/>
            <path id="Path_31470" data-name="Path 31470" d="M229.868,190.951l-.4.472a.349.349,0,0,0,0,.486l3.23,2.942a.349.349,0,0,0,.472,0l.554-.513a.349.349,0,0,0,0-.52l-3.387-2.9a.349.349,0,0,0-.465.034Z" transform="translate(-205.868 -181.151)" fill="#00ae9f"/>
            <path id="Path_31471" data-name="Path 31471" d="M229.868,190.951l-.4.472a.349.349,0,0,0,0,.486l3.23,2.942a.349.349,0,0,0,.472,0l.554-.513a.349.349,0,0,0,0-.52l-3.387-2.9a.349.349,0,0,0-.465.034Z" transform="translate(-205.868 -181.151)" fill="#ed278d"/>
            <path id="Path_31472" data-name="Path 31472" d="M227.413,224.227c.068.52.643,3.086,5.529,4.051a12.172,12.172,0,0,0-2.272,5.365s-8.567-3.36-5.967-8.807a.308.308,0,0,1,.219-.171l2.381-.506a.089.089,0,0,1,.109.068Z" transform="translate(-204.24 -191.668)" fill="#00ae9f"/>
            <path id="Path_31473" data-name="Path 31473" d="M227.413,224.227c.068.52.643,3.086,5.529,4.051a12.172,12.172,0,0,0-2.272,5.365s-8.567-3.36-5.967-8.807a.308.308,0,0,1,.219-.171l2.381-.506a.089.089,0,0,1,.109.068Z" transform="translate(-204.24 -191.668)" fill="#fafafa" opacity="0.6"/>
            <path id="Path_31474" data-name="Path 31474" d="M243.978,224.783c.588.623,2.2,2.737-1.868,3.709a7.8,7.8,0,0,1,3.291,5.153s6.083-4.181.547-8.725a.048.048,0,0,0-.041,0l-1.854-.26a.089.089,0,0,0-.075.123Z" transform="translate(-209.891 -191.828)" fill="#00ae9f"/>
            <path id="Path_31475" data-name="Path 31475" d="M243.978,224.783c.588.623,2.2,2.737-1.868,3.709a7.8,7.8,0,0,1,3.291,5.153s6.083-4.181.547-8.725a.048.048,0,0,0-.041,0l-1.854-.26a.089.089,0,0,0-.075.123Z" transform="translate(-209.891 -191.828)" fill="#fafafa" opacity="0.6"/>
        </g>
        <g id="freepik--speech-bubbles--inject-11" transform="translate(77.044 112.39)">
            <path id="Path_31476" data-name="Path 31476" d="M311.934,158.324c-1.04-10.75-10.49-19.461-21.1-19.454s-18.387,8.718-17.326,19.468a21.986,21.986,0,0,0,11.154,16.806l-.171,6.843,5.693-4.687a19.925,19.925,0,0,0,4.427.513C305.222,177.792,312.981,169.067,311.934,158.324Z" transform="translate(-163.366 -138.87)" fill="#00ae9f"/>
            <path id="Path_31477" data-name="Path 31477" d="M311.934,158.324c-1.04-10.75-10.49-19.461-21.1-19.454s-18.387,8.718-17.326,19.468a21.986,21.986,0,0,0,11.154,16.806l-.171,6.843,5.693-4.687a19.925,19.925,0,0,0,4.427.513C305.222,177.792,312.981,169.067,311.934,158.324Z" transform="translate(-163.366 -138.87)" fill="#fafafa" opacity="0.6"/>
            <path id="Path_31478" data-name="Path 31478" d="M297.639,159.385c-4.7-1.416-8.02-6.446-8.02-6.446s-1.451-.082-1.369,1.245a7.281,7.281,0,0,0,2.361,4.79l-2.2-.123a6.986,6.986,0,0,0-2.3.253l-.684.2a2.217,2.217,0,0,0-1.416,2.936l1.464,4.318a6.159,6.159,0,0,0,2.737,3.312,5.556,5.556,0,0,0,3.606.732c2.2-.335,5.632-.849,6.22-.958h0l1.581-.137-.465-9.683Z" transform="translate(-166.663 -143.312)" fill="#fafafa"/>
            <path id="Path_31479" data-name="Path 31479" d="M312.3,173.169h-6.159a.992.992,0,0,1-.951-.876l-1.067-11.017a.78.78,0,0,1,.78-.876h6.158a.992.992,0,0,1,.958.883l1.067,11.01a.787.787,0,0,1-.787.876Z" transform="translate(-173.062 -145.668)" fill="#ed278d"/>
            <path id="Path_31480" data-name="Path 31480" d="M161.38,229.921l-6.159-5.837a21.784,21.784,0,0,0-.041-3.654c-1.156-11.879-11.6-21.507-23.327-21.5s-20.3,9.641-19.16,21.521,11.592,21.507,23.32,21.5a18.852,18.852,0,0,0,17.333-10.743Z" transform="translate(-112.592 -157.832)" fill="#ed278d"/>
            <path id="Path_31481" data-name="Path 31481" d="M147.633,218.1c-3.209-2.963-7.944-2.956-10.572,0-3.209-2.956-7.944-2.956-10.579,0s-2.169,7.76,1.04,10.716l11.633,10.709,9.532-10.716C151.308,225.849,150.842,221.052,147.633,218.1Z" transform="translate(-116.438 -163.183)" fill="#00ae9f"/>
            <path id="Path_31482" data-name="Path 31482" d="M147.633,218.1c-3.209-2.963-7.944-2.956-10.572,0-3.209-2.956-7.944-2.956-10.579,0s-2.169,7.76,1.04,10.716l11.633,10.709,9.532-10.716C151.308,225.849,150.842,221.052,147.633,218.1Z" transform="translate(-116.438 -163.183)" fill="#fafafa"/>
        </g>
    </g>
</svg>
