<svg xmlns="http://www.w3.org/2000/svg" width="354" height="207.422" viewBox="0 0 354 207.422">
  <g id="Discount-pana" transform="translate(-27.83 -50)">
    <g id="freepik--background-complete--inject-4" transform="translate(28.263 50)">
      <path id="Path_35960" data-name="Path 35960" d="M569.343,118.66l.512,1.806-1.627,11.5-3.033.844,1.606-10.988-4.011,1.1.547,1.964-2.466.7-1.182-4.241Z" transform="translate(-288.052 -83.537)" fill="#efeaf1"/>
      <path id="Path_35961" data-name="Path 35961" d="M592.809,121.662c.593,2.138-.455,4.435-3.9,5.392a8.65,8.65,0,0,1-4.962,0l.512-2.445a6.052,6.052,0,0,0,3.734.133c1.391-.389,2.092-1.212,1.821-2.195s-1.059-1.4-3.248-.788l-3.069.859-1.269-6.962,7.356-2.046.609,2.246-5.034,1.4.45,2.348.982-.276C590.359,118.316,592.216,119.529,592.809,121.662Z" transform="translate(-299.159 -81.071)" fill="#efeaf1"/>
      <path id="Path_35962" data-name="Path 35962" d="M602.112,112.8c-.542-1.964.194-3.581,1.816-4.031s3.069.512,3.632,2.517-.21,3.581-1.816,4.031S602.659,114.761,602.112,112.8Zm4.6-1.274c-.435-1.565-1.432-2.292-2.558-1.98s-1.6,1.463-1.166,3.018,1.417,2.3,2.558,1.98,1.581-1.448,1.146-3.018Zm4.558-4.7,1.023-.281-4.88,14.349-1.023.281Zm-.169,9.607c-.542-1.964.21-3.581,1.811-4.031s3.069.552,3.637,2.517-.194,3.581-1.816,4.031-3.105-.552-3.652-2.517Zm4.6-1.274c-.43-1.535-1.417-2.3-2.558-1.98s-1.606,1.448-1.166,3.013,1.432,2.292,2.558,1.98,1.555-1.463,1.125-3.013Z" transform="translate(-308.687 -77.617)" fill="#efeaf1"/>
      <rect id="Rectangle_27260" data-name="Rectangle 27260" width="36.018" height="45.466" transform="translate(343.583 203.326) rotate(-179.55)" fill="#ebebeb"/>
      <path id="Path_35963" data-name="Path 35963" d="M667.438,361.191l-.639,44.019-5.688-.041,1.218-44.019Z" transform="translate(-337.591 -201.982)" fill="#fafafa"/>
      <path id="Path_35964" data-name="Path 35964" d="M589.868,360.58l20.661.164,36.018.281-36.054,4.742-.307,39L589.53,404.6Z" transform="translate(-302.627 -201.704)" fill="#e0e0e0"/>
      <path id="Path_35965" data-name="Path 35965" d="M605.542,360.706l-.824,44.019-6.128-.046,1-44.019Z" transform="translate(-307.053 -201.743)" fill="#fafafa"/>
      <path id="Path_35966" data-name="Path 35966" d="M629.032,322.188c0,.092-.609.2-1.719.312a44.9,44.9,0,0,1-4.722.21,26.439,26.439,0,0,1-7.049-.926,5.056,5.056,0,0,1-1.023-.46,2.768,2.768,0,0,1-.941-.89,2.485,2.485,0,0,1-.378-1.315,4.929,4.929,0,0,1,.153-1.207,26.788,26.788,0,0,1,1.335-4.328,11.036,11.036,0,0,1,1.166-2.077,6.508,6.508,0,0,1,1.714-1.693,3.489,3.489,0,0,1,1.187-.512,3.07,3.07,0,0,1,1.31,0,5.188,5.188,0,0,1,1.99,1.085,20.666,20.666,0,0,1,4.686,5.376,17.236,17.236,0,0,1,1.9,4.384,3.833,3.833,0,0,1,.235,1.739c-.225.066-.732-2.394-2.926-5.627a21.712,21.712,0,0,0-4.66-4.9,4.168,4.168,0,0,0-1.535-.813,1.944,1.944,0,0,0-1.509.327,5.356,5.356,0,0,0-1.34,1.371,10.229,10.229,0,0,0-1.023,1.831,28.135,28.135,0,0,0-1.284,4.092,2.046,2.046,0,0,0,.036,1.535,2.45,2.45,0,0,0,1.294.87,16.733,16.733,0,0,0,1.775.471c.588.133,1.171.235,1.739.322,1.13.179,2.194.281,3.177.348,1.959.133,3.581.159,4.67.215A4.321,4.321,0,0,1,629.032,322.188Z" transform="translate(-314.189 -176.623)" fill="#e0e0e0"/>
      <path id="Path_35967" data-name="Path 35967" d="M642.69,320.808a5.765,5.765,0,0,1,1.867-.563c1.212-.276,2.982-.639,5.115-1.156a48.79,48.79,0,0,0,7.356-2.322,8.229,8.229,0,0,0,1.847-.982,2.047,2.047,0,0,0,.593-.655,1.14,1.14,0,0,0,.1-.747,4.127,4.127,0,0,0-.353-.972c-.169-.363-.343-.732-.512-1.1a17.759,17.759,0,0,0-1.177-2.118A9.168,9.168,0,0,0,656,308.409a5.857,5.857,0,0,0-1.831-1.182,2.926,2.926,0,0,0-1.9-.082,4.951,4.951,0,0,0-1.7,1.023,25.824,25.824,0,0,0-4.926,5.806,22.393,22.393,0,0,0-2.189,4.676,7.712,7.712,0,0,1-.64,1.826c-.1-.015-.1-.711.138-1.954a17.939,17.939,0,0,1,1.872-5.023,24.622,24.622,0,0,1,4.936-6.251,5.981,5.981,0,0,1,2.123-1.325,4.184,4.184,0,0,1,2.727.066,5.768,5.768,0,0,1,1.218.609,9.536,9.536,0,0,1,1.059.813,10.157,10.157,0,0,1,1.734,2.046,19.38,19.38,0,0,1,1.264,2.276l.512,1.131a5.044,5.044,0,0,1,.44,1.31,2.4,2.4,0,0,1-.251,1.565,3.281,3.281,0,0,1-.962,1.059,9.21,9.21,0,0,1-2.148,1.1,42.238,42.238,0,0,1-7.627,2.108c-2.2.409-4,.619-5.238.747A5.207,5.207,0,0,1,642.69,320.808Z" transform="translate(-328.593 -174.91)" fill="#fafafa"/>
      <rect id="Rectangle_27261" data-name="Rectangle 27261" width="52.945" height="15.05" transform="translate(333.627 159.227) rotate(-179.55)" fill="#e0e0e0"/>
      <rect id="Rectangle_27262" data-name="Rectangle 27262" width="47.855" height="15.05" transform="translate(348.013 159.335) rotate(-179.55)" fill="#ebebeb"/>
      <path id="Path_35968" data-name="Path 35968" d="M674.853,331.826l-.333,15.116-5.581-.118.389-15.045Z" transform="translate(-341.415 -187.637)" fill="#fafafa"/>
      <path id="Path_35969" data-name="Path 35969" d="M596.616,331.293l-.542,14.983-6.133-.051.327-15.055Z" transform="translate(-302.828 -187.339)" fill="#fafafa"/>
      <rect id="Rectangle_27263" data-name="Rectangle 27263" width="16.451" height="20.769" transform="translate(351.49 203.705) rotate(-179.55)" fill="#ebebeb"/>
      <path id="Path_35970" data-name="Path 35970" d="M700.755,408.82l-.292,20.1-2.6-.015.558-20.109Z" transform="translate(-355.541 -225.257)" fill="#fafafa"/>
      <path id="Path_35971" data-name="Path 35971" d="M665.323,408.54l9.438.072,16.451.133-16.467,2.164L674.6,428.72l-9.433-.072Z" transform="translate(-339.574 -225.13)" fill="#e0e0e0"/>
      <path id="Path_35972" data-name="Path 35972" d="M672.477,408.6l-.373,20.109-2.8-.026.46-20.1Z" transform="translate(-341.591 -225.15)" fill="#fafafa"/>
      <path id="Path_35973" data-name="Path 35973" d="M682.876,390.68c0,.169-1.1.425-2.952.512a11.478,11.478,0,0,1-3.32-.363,1.939,1.939,0,0,1-1.084-.747,1.474,1.474,0,0,1-.23-.783,2.894,2.894,0,0,1,.072-.639,12.2,12.2,0,0,1,.624-2.046,5.356,5.356,0,0,1,.573-1.023,3.243,3.243,0,0,1,.885-.875,1.811,1.811,0,0,1,1.407-.251,2.681,2.681,0,0,1,1.023.573,9.243,9.243,0,0,1,2.154,2.558c.926,1.693.916,2.916.757,2.936s-.512-1.023-1.535-2.425A10.192,10.192,0,0,0,679.132,386a1.5,1.5,0,0,0-.568-.3.542.542,0,0,0-.419.113,2.161,2.161,0,0,0-.512.537,4.291,4.291,0,0,0-.425.772,12.361,12.361,0,0,0-.573,1.806c-.077.286-.061.414-.036.445a.783.783,0,0,0,.4.261,10.686,10.686,0,0,0,1.535.384c.512.092.982.153,1.422.2C681.73,390.4,682.871,390.481,682.876,390.68Z" transform="translate(-344.517 -213.347)" fill="#e0e0e0"/>
      <path id="Path_35974" data-name="Path 35974" d="M689.4,390.1c-.031-.194,1.2-.512,3.141-1.023a25.353,25.353,0,0,0,3.289-1.12,3.618,3.618,0,0,0,.762-.414.614.614,0,0,0,.169-.189v-.118a5.674,5.674,0,0,0-.368-.849,8.854,8.854,0,0,0-.512-.926,4.091,4.091,0,0,0-.629-.747,2.427,2.427,0,0,0-.716-.471.977.977,0,0,0-.644-.041,1.883,1.883,0,0,0-.66.389,12.311,12.311,0,0,0-2.251,2.532c-1.079,1.627-1.3,2.875-1.535,2.844-.082,0-.138-.343-.072-.931a7.32,7.32,0,0,1,.772-2.384,10.884,10.884,0,0,1,2.256-2.982,2.988,2.988,0,0,1,1.084-.68,2.22,2.22,0,0,1,1.468.026,2.71,2.71,0,0,1,.634.312,4.441,4.441,0,0,1,.512.4,5.117,5.117,0,0,1,.854,1.023,9.137,9.137,0,0,1,.6,1.079c.082.179.159.353.24.512a2.733,2.733,0,0,1,.225.691,1.483,1.483,0,0,1-.154.936,1.871,1.871,0,0,1-.542.593,4.244,4.244,0,0,1-1.064.512,17.957,17.957,0,0,1-3.555.905C690.7,390.262,689.428,390.246,689.4,390.1Z" transform="translate(-351.381 -212.597)" fill="#fafafa"/>
      <rect id="Rectangle_27264" data-name="Rectangle 27264" width="24.181" height="6.875" transform="translate(346.944 183.56) rotate(-179.55)" fill="#e0e0e0"/>
      <rect id="Rectangle_27265" data-name="Rectangle 27265" width="21.858" height="6.875" transform="translate(353.513 183.613) rotate(-179.55)" fill="#ebebeb"/>
      <path id="Path_35975" data-name="Path 35975" d="M704.141,395.41l-.154,6.9-2.547-.051.179-6.87Z" transform="translate(-357.29 -218.707)" fill="#fafafa"/>
      <path id="Path_35976" data-name="Path 35976" d="M668.4,395.156,668.153,402l-2.8-.02.153-6.88Z" transform="translate(-339.662 -218.565)" fill="#fafafa"/>
      <rect id="Rectangle_27266" data-name="Rectangle 27266" width="29.506" height="37.246" transform="translate(51.524 203.737) rotate(-179.55)" fill="#ebebeb"/>
      <path id="Path_35977" data-name="Path 35977" d="M102.437,377.571l-.522,36.064L97.25,413.6l1-36.059Z" transform="translate(-62.171 -209.988)" fill="#fafafa"/>
      <path id="Path_35978" data-name="Path 35978" d="M38.9,377.07l16.927.133,29.506.23-29.537,3.888-.251,31.946-16.922-.133Z" transform="translate(-33.533 -209.759)" fill="#e0e0e0"/>
      <path id="Path_35979" data-name="Path 35979" d="M51.734,377.176l-.67,36.059L46.04,413.2l.818-36.059Z" transform="translate(-37.158 -209.793)" fill="#fafafa"/>
      <path id="Path_35980" data-name="Path 35980" d="M70.255,344.911c0,.184-.512.373-1.4.558a25.206,25.206,0,0,1-6.65.358c-.512-.046-1.023-.1-1.535-.194a13.19,13.19,0,0,1-1.688-.368,4.813,4.813,0,0,1-1-.435,3.028,3.028,0,0,1-1.023-.957,2.829,2.829,0,0,1-.435-1.468,4.788,4.788,0,0,1,.138-1.177,21.812,21.812,0,0,1,1.12-3.683,9.956,9.956,0,0,1,1.023-1.842,8.835,8.835,0,0,1,.7-.829,4.681,4.681,0,0,1,.926-.752,3.689,3.689,0,0,1,1.233-.512,3.207,3.207,0,0,1,1.4.031,4.885,4.885,0,0,1,1.908,1.054,16.529,16.529,0,0,1,3.867,4.65,12.2,12.2,0,0,1,1.376,3.8c.148.941.072,1.483-.1,1.535-.394.1-1.023-1.836-2.865-4.3a18.681,18.681,0,0,0-3.8-3.734,2.583,2.583,0,0,0-.967-.512.849.849,0,0,0-.655.184,2.792,2.792,0,0,0-.435.379c-.143.159-.3.358-.445.552a7.792,7.792,0,0,0-.747,1.356,23.62,23.62,0,0,0-1.023,3.218,2.286,2.286,0,0,0-.1.542c0,.118,0,.128,0,.153a1.289,1.289,0,0,0,.66.419,13.4,13.4,0,0,0,1.356.4c.465.118.926.21,1.371.3.9.164,1.749.281,2.558.373,1.576.179,2.885.286,3.791.425S70.25,344.726,70.255,344.911Z" transform="translate(-42.281 -188.5)" fill="#e0e0e0"/>
      <path id="Path_35981" data-name="Path 35981" d="M82.085,343.745c-.067-.379,2.143-.992,5.627-1.949a44.906,44.906,0,0,0,5.867-2.046,5.894,5.894,0,0,0,1.33-.732.875.875,0,0,0,.271-.3v-.128a3.038,3.038,0,0,0-.235-.593l-.425-.885a15.2,15.2,0,0,0-.916-1.642,6.889,6.889,0,0,0-1.1-1.315,5.244,5.244,0,0,0-.634-.512,2.783,2.783,0,0,0-.6-.322,1.632,1.632,0,0,0-1.069-.077,3.255,3.255,0,0,0-1.141.675,22.267,22.267,0,0,0-4.036,4.486c-1.949,2.885-2.389,5.115-2.793,5.054-.174,0-.3-.619-.184-1.683a13.039,13.039,0,0,1,1.35-4.312,19.438,19.438,0,0,1,4.041-5.392,5.586,5.586,0,0,1,1.99-1.253,4.18,4.18,0,0,1,2.727.046,5.333,5.333,0,0,1,1.161.573,7.809,7.809,0,0,1,.962.732A9.027,9.027,0,0,1,95.8,333.99a16.731,16.731,0,0,1,1.084,1.959l.43.941a4.952,4.952,0,0,1,.414,1.274,2.737,2.737,0,0,1-.3,1.765,3.407,3.407,0,0,1-1.023,1.11,8.03,8.03,0,0,1-1.944.977,31.383,31.383,0,0,1-6.4,1.6,32.845,32.845,0,0,1-4.364.373C82.7,344.016,82.11,343.929,82.085,343.745Z" transform="translate(-54.72 -187.068)" fill="#fafafa"/>
      <rect id="Rectangle_27267" data-name="Rectangle 27267" width="43.369" height="12.328" transform="translate(43.368 167.611) rotate(-179.55)" fill="#e0e0e0"/>
      <rect id="Rectangle_27268" data-name="Rectangle 27268" width="39.205" height="12.328" transform="translate(55.145 167.7) rotate(-179.55)" fill="#ebebeb"/>
      <path id="Path_35982" data-name="Path 35982" d="M108.514,353.516l-.271,12.385-4.573-.1.317-12.323Z" transform="translate(-65.307 -198.236)" fill="#fafafa"/>
      <path id="Path_35983" data-name="Path 35983" d="M44.418,353.077l-.44,12.277-5.028-.041.271-12.333Z" transform="translate(-33.694 -197.992)" fill="#fafafa"/>
      <g id="Group_15154" data-name="Group 15154">
        <path id="Path_35984" data-name="Path 35984" d="M128.27,69.365l.512,1.949-7.8,2.005-.4-1.535L123.6,67a2.631,2.631,0,0,0,.588-2.179c-.21-.813-.89-1.141-1.98-.859a2.594,2.594,0,0,0-1.872,1.581l-2.046-.675a4.989,4.989,0,0,1,3.581-2.972c2.3-.588,4.138.2,4.6,2.046.261,1.023.215,1.99-.89,3.7l-1.8,2.849Z" transform="translate(-72.448 -55.717)" fill="#efeaf1"/>
        <path id="Path_35985" data-name="Path 35985" d="M137.81,63.591c-.875-3.412.512-5.827,3.069-6.476s4.921.793,5.8,4.2-.512,5.821-3.069,6.476S138.684,67,137.81,63.591Zm6.445-1.657c-.6-2.348-1.678-3.105-2.875-2.8s-1.755,1.489-1.151,3.831,1.678,3.105,2.86,2.8S144.859,64.277,144.255,61.934Z" transform="translate(-81.854 -53.401)" fill="#efeaf1"/>
        <path id="Path_35986" data-name="Path 35986" d="M156.383,55.172c-.435-1.683.225-3.069,1.611-3.4s2.614.512,3.069,2.2-.24,3.069-1.611,3.4S156.813,56.85,156.383,55.172Zm3.924-1.023c-.348-1.345-1.187-1.98-2.143-1.729s-1.386,1.217-1.023,2.558,1.166,1.98,2.143,1.729,1.366-1.2,1.023-2.542Zm3.959-3.929.87-.22-4.41,12.149-.87.225Zm-.307,8.185c-.43-1.683.24-3.069,1.611-3.4s2.619.512,3.069,2.2-.225,3.069-1.611,3.4-2.634-.512-3.069-2.189Zm3.924-1.023c-.343-1.33-1.166-1.98-2.143-1.729s-1.386,1.2-1.023,2.558,1.187,1.975,2.143,1.729,1.366-1.207,1.028-2.532Z" transform="translate(-90.99 -50)" fill="#efeaf1"/>
      </g>
      <path id="Path_35987" data-name="Path 35987" d="M317.769,131.606c.041,2.113-1.535,4.092-5.115,4.133a8.574,8.574,0,0,1-4.793-1.258l1.084-2.235a6.139,6.139,0,0,0,3.581,1.064c1.448-.026,2.333-.629,2.317-1.652,0-.946-.726-1.535-2.368-1.494h-1.325l-.031-1.913,2.522-2.957-5.33.092-.036-2.328,8.758-.148.036,1.877-2.757,3.284C316.572,128.394,317.738,129.765,317.769,131.606Z" transform="translate(-165.045 -85.613)" fill="#efeaf1"/>
      <path id="Path_35988" data-name="Path 35988" d="M329.768,128.847c-.072-4.154,2.164-6.512,5.233-6.568s5.4,2.251,5.474,6.379-2.159,6.517-5.248,6.568S329.84,132.975,329.768,128.847Zm7.816-.138c-.051-2.839-1.074-4.005-2.522-3.98s-2.409,1.223-2.358,4.092,1.069,4.005,2.5,3.98,2.43-1.248,2.384-4.092Z" transform="translate(-175.745 -85.304)" fill="#efeaf1"/>
      <path id="Path_35989" data-name="Path 35989" d="M353.509,125.609c-.036-2.046,1.084-3.417,2.767-3.448s2.849,1.294,2.885,3.351-1.1,3.417-2.767,3.443S353.545,127.645,353.509,125.609Zm4.757-.082c-.031-1.627-.813-2.558-1.975-2.558s-1.918,1.023-1.888,2.629.793,2.558,1.975,2.558S358.292,127.174,358.267,125.527Zm5.591-3.407h1.054l-8.328,12.661H355.53Zm-2.558,9.254c-.031-2.046,1.1-3.417,2.767-3.443s2.849,1.31,2.885,3.346-1.084,3.417-2.767,3.448-2.87-1.31-2.906-3.351Zm4.757-.082c-.026-1.606-.793-2.558-1.975-2.558s-1.913,1-1.888,2.624.813,2.558,1.975,2.558,1.9-1.013,1.867-2.624Z" transform="translate(-187.342 -85.227)" fill="#efeaf1"/>
      <g id="Group_15152" data-name="Group 15152">
        <path id="Path_35990" data-name="Path 35990" d="M438.414,57.536c-.246,1.6-1.632,2.808-4.21,2.415a6.307,6.307,0,0,1-3.294-1.489l1.069-1.473a4.389,4.389,0,0,0,2.44,1.2c1.049.159,1.76-.179,1.872-.916s-.286-1.243-1.923-1.494l-2.307-.353L433.3,50.42l5.5.839-.256,1.678-3.765-.573-.4,1.688.737.113C437.785,54.574,438.66,55.934,438.414,57.536Z" transform="translate(-225.148 -50.205)" fill="#efeaf1"/>
        <path id="Path_35991" data-name="Path 35991" d="M447.658,57.359c.455-2.982,2.363-4.42,4.6-4.092s3.612,2.276,3.156,5.259-2.353,4.415-4.6,4.092S447.208,60.336,447.658,57.359Zm5.627.859c.312-2.046-.281-3.013-1.325-3.172s-1.883.583-2.195,2.634.276,3.008,1.31,3.166,1.908-.578,2.22-2.624Z" transform="translate(-233.287 -51.573)" fill="#efeaf1"/>
        <path id="Path_35992" data-name="Path 35992" d="M465.529,57.7c.225-1.468,1.2-2.322,2.414-2.138s1.888,1.279,1.663,2.762-1.212,2.322-2.414,2.138S465.3,59.178,465.529,57.7Zm7.893-1.238.762.118-7.566,8.082-.762-.118Zm-4.435,1.765c.179-1.177-.271-1.954-1.11-2.082s-1.5.512-1.678,1.657.256,1.949,1.11,2.082,1.473-.486,1.652-1.657Zm1.448,4.573c.225-1.468,1.212-2.322,2.414-2.138s1.888,1.294,1.663,2.762-1.2,2.322-2.414,2.138A2.188,2.188,0,0,1,470.41,62.8Zm3.432.512c.174-1.161-.256-1.954-1.11-2.082s-1.5.481-1.678,1.652.271,1.959,1.11,2.087,1.473-.5,1.652-1.642Z" transform="translate(-242.038 -52.707)" fill="#efeaf1"/>
      </g>
      <g id="Group_15153" data-name="Group 15153">
        <path id="Path_35993" data-name="Path 35993" d="M40.64,148.428l-1.872,8L36.937,156l1.535-6.512-1.6-.373.348-1.489Z" transform="translate(-32.678 -97.688)" fill="#efeaf1"/>
        <path id="Path_35994" data-name="Path 35994" d="M44.975,154.371c.614-2.64,2.43-3.8,4.394-3.335s3.069,2.3,2.455,4.936-2.414,3.8-4.394,3.335S44.356,157.011,44.975,154.371Zm4.993,1.166c.425-1.816-.041-2.721-.967-2.936s-1.729.389-2.154,2.2.036,2.721.951,2.936S49.538,157.353,49.968,155.537Z" transform="translate(-36.553 -99.303)" fill="#efeaf1"/>
        <path id="Path_35995" data-name="Path 35995" d="M68.19,155.254l.675.159-7.336,6.717-.67-.159Zm-7.162.558c.307-1.3,1.243-2,2.317-1.749a1.949,1.949,0,0,1,1.294,2.594c-.307,1.315-1.248,2-2.312,1.749a1.959,1.959,0,0,1-1.284-2.594Zm3.039.711c.246-1.023-.1-1.77-.844-1.944s-1.381.338-1.622,1.366.092,1.77.849,1.944,1.391-.3,1.632-1.366Zm.982,4.2a1.616,1.616,0,1,0,.015,0Zm3.044.711c.24-1.023-.092-1.77-.844-1.944s-1.381.327-1.622,1.366.1,1.77.844,1.944S67.863,162.466,68.093,161.438Z" transform="translate(-44.396 -100.805)" fill="#efeaf1"/>
      </g>
    </g>
    <g id="freepik--Plant--inject-4" transform="translate(37.534 111.662)">
      <path id="Path_35996" data-name="Path 35996" d="M105.324,300.544A36.866,36.866,0,0,0,70.16,290.9a64.071,64.071,0,0,0,35.578,11.116" transform="translate(-58.21 -228.759)" fill="#00ae9f"/>
      <path id="Path_35997" data-name="Path 35997" d="M105.718,200.092c1.468-10.364-2.558-22-10.318-29.552-.256,10.272,4.092,21.828,10.318,29.552" transform="translate(-70.534 -170.54)" fill="#00ae9f"/>
      <path id="Path_35998" data-name="Path 35998" d="M103.429,243.383A55.329,55.329,0,0,0,78,219.1a34.923,34.923,0,0,0,25.506,24.4" transform="translate(-62.04 -194.259)" fill="#00ae9f"/>
      <path id="Path_35999" data-name="Path 35999" d="M97.274,263.381a65.722,65.722,0,0,1-18.646-1.647c-6.052-1.6-11.847-4.681-15.858-9.474a62.327,62.327,0,0,1,34.391,10.492" transform="translate(-54.601 -210.456)" fill="#00ae9f"/>
      <path id="Path_36000" data-name="Path 36000" d="M124,224.035c3.177-11.909,8.42-20.145,17.776-26.815A24.759,24.759,0,0,1,124,224.035" transform="translate(-84.509 -183.572)" fill="#00ae9f"/>
      <path id="Path_36001" data-name="Path 36001" d="M159.967,274.193A17.618,17.618,0,0,0,149.26,257.87c.512,6.139,5.351,13.259,10.707,16.323" transform="translate(-96.847 -213.197)" fill="#00ae9f"/>
      <path id="Path_36002" data-name="Path 36002" d="M176,248.761a26.259,26.259,0,0,1,17.2-22.4c-2.143,9.95-7.893,18.232-17.2,22.4" transform="translate(-109.908 -197.805)" fill="#00ae9f"/>
      <path id="Path_36003" data-name="Path 36003" d="M167.23,298.088a16.593,16.593,0,0,1,9.535-6.1,48.975,48.975,0,0,1,11.474-1.141,26.82,26.82,0,0,1-20.718,8.63" transform="translate(-105.624 -229.306)" fill="#00ae9f"/>
      <path id="Path_36004" data-name="Path 36004" d="M158.48,353.338a29.393,29.393,0,0,1,35.885,17c-13.034-2.466-25.9-8.261-35.885-17" transform="translate(-101.351 -259.188)" fill="#00ae9f"/>
      <path id="Path_36005" data-name="Path 36005" d="M126.7,337.35c2.164,6.4,1.749,14.139-3.069,19.654A23.47,23.47,0,0,1,126.7,337.35" transform="translate(-83.873 -252.019)" fill="#00ae9f"/>
      <path id="Path_36006" data-name="Path 36006" d="M99.611,330.4a24.094,24.094,0,0,1-13.3,19.541,1.494,1.494,0,0,1-1.177.189c-.588-.235-.639-1.023-.568-1.668.941-8.185,7.018-16.129,15.045-18.063" transform="translate(-65.235 -248.624)" fill="#00ae9f"/>
      <path id="Path_36007" data-name="Path 36007" d="M75.646,327.907a19.751,19.751,0,0,1-28.846.148c9.167-1.023,19.751-1.673,28.846-.148" transform="translate(-46.8 -246.965)" fill="#00ae9f"/>
      <path id="Path_36008" data-name="Path 36008" d="M100.51,185.47a1.67,1.67,0,0,0,.082.271c.072.189.164.445.281.772.261.7.629,1.693,1.1,2.972s1.064,2.865,1.724,4.706l1.059,2.941c.363,1.023.747,2.159,1.146,3.32,1.627,4.645,3.427,10.231,5.376,16.421s3.924,13.08,5.9,20.319,3.678,14.19,5.146,20.528,2.66,12.072,3.545,16.912q.343,1.811.65,3.448c.189,1.09.363,2.123.512,3.069.332,1.923.614,3.581.808,4.947s.368,2.4.481,3.131c.056.343.1.614.133.813a1.721,1.721,0,0,0,.056.276,1.659,1.659,0,0,0,0-.281c-.026-.2-.056-.471-.1-.818-.1-.737-.235-1.79-.414-3.141s-.435-3.028-.747-4.957c-.159-.967-.322-2-.512-3.095s-.4-2.241-.624-3.453c-.859-4.849-2.046-10.584-3.473-16.937s-3.177-13.3-5.115-20.549-4-14.108-5.929-20.324S107.8,205,106.147,200.356q-.614-1.739-1.171-3.31l-1.084-2.936c-.68-1.836-1.269-3.412-1.78-4.691s-.9-2.256-1.166-2.947l-.312-.762A2,2,0,0,0,100.51,185.47Z" transform="translate(-73.035 -177.833)" fill="#263238"/>
      <path id="Path_36009" data-name="Path 36009" d="M175.022,236.75a.984.984,0,0,0-.159.148l-.44.46c-.384.409-.936,1.023-1.627,1.821a64.016,64.016,0,0,0-5.4,7.2,48.141,48.141,0,0,0-5.627,12.078,114.309,114.309,0,0,0-3.386,15.981c-1.867,11.433-4.154,21.674-5.811,29.081-.834,3.688-1.535,6.676-1.985,8.773-.225,1.023-.4,1.816-.512,2.384-.056.261-.1.465-.133.624a1.106,1.106,0,0,0-.031.215,1.023,1.023,0,0,0,.067-.21c.041-.153.1-.358.164-.614.143-.563.338-1.356.593-2.368.512-2.087,1.212-5.069,2.092-8.747,1.719-7.392,4.046-17.633,5.913-29.081a121.194,121.194,0,0,1,3.351-15.945,48.9,48.9,0,0,1,5.545-12.037,68.485,68.485,0,0,1,5.294-7.243c.675-.818,1.212-1.443,1.581-1.867.169-.2.307-.358.409-.486A1.165,1.165,0,0,0,175.022,236.75Z" transform="translate(-97.164 -202.881)" fill="#263238"/>
      <path id="Path_36010" data-name="Path 36010" d="M97.84,327.99a1.1,1.1,0,0,0,.327.061l.951.1.685.072.808.118c.583.087,1.248.174,1.969.333l1.141.23,1.217.307c.849.189,1.724.512,2.66.783a39.034,39.034,0,0,1,5.806,2.558,32.566,32.566,0,0,1,5.208,3.622,25.752,25.752,0,0,1,2,1.918,20.139,20.139,0,0,1,1.581,1.826,18.358,18.358,0,0,1,1.171,1.611,12.85,12.85,0,0,1,.8,1.294l.486.824a1.285,1.285,0,0,0,.189.276,1.13,1.13,0,0,0-.128-.312l-.43-.854a10.26,10.26,0,0,0-.757-1.315,17.639,17.639,0,0,0-1.136-1.657,20.789,20.789,0,0,0-1.565-1.872,25.185,25.185,0,0,0-2-1.959,31.27,31.27,0,0,0-5.248-3.678,37.4,37.4,0,0,0-5.873-2.558c-.946-.276-1.831-.578-2.691-.757l-1.233-.292-1.151-.2c-.732-.148-1.4-.215-1.99-.286l-.818-.092-.691-.036-.957-.061a1.273,1.273,0,0,0-.333,0Z" transform="translate(-71.731 -247.441)" fill="#263238"/>
      <path id="Path_36011" data-name="Path 36011" d="M92.73,237.17a4.471,4.471,0,0,0,.65.639l1.888,1.637c1.606,1.371,3.837,3.243,6.312,5.3s4.737,3.9,6.379,5.223l1.959,1.535a4.212,4.212,0,0,0,.747.512,4.47,4.47,0,0,0-.66-.639l-1.888-1.637c-1.606-1.371-3.837-3.243-6.312-5.3s-4.732-3.9-6.374-5.218l-1.959-1.535a5.064,5.064,0,0,0-.742-.517Z" transform="translate(-69.235 -203.086)" fill="#263238"/>
      <path id="Path_36012" data-name="Path 36012" d="M88.32,260.886c0,.092,4.788,1.6,10.742,3.361s10.829,3.115,10.855,3.023-4.788-1.6-10.742-3.361S88.351,260.794,88.32,260.886Z" transform="translate(-67.081 -214.668)" fill="#263238"/>
      <path id="Path_36013" data-name="Path 36013" d="M123.08,235.082a4.323,4.323,0,0,0,.512-.691l1.269-1.934c1.074-1.632,2.6-3.852,4.415-6.22s3.55-4.425,4.834-5.893c.6-.7,1.115-1.279,1.535-1.739a4.409,4.409,0,0,0,.512-.665,3.372,3.372,0,0,0-.634.568c-.389.384-.941.951-1.611,1.668-1.33,1.432-3.11,3.479-4.926,5.852s-3.315,4.63-4.343,6.292c-.512.834-.916,1.535-1.177,2a3.622,3.622,0,0,0-.384.762Z" transform="translate(-84.059 -193.693)" fill="#263238"/>
      <path id="Path_36014" data-name="Path 36014" d="M155.76,264.61a16.636,16.636,0,0,0,1.131,1.857c.721,1.131,1.7,2.7,2.706,4.476s1.862,3.422,2.471,4.6a16.376,16.376,0,0,0,1.023,1.918,11.369,11.369,0,0,0-.8-2.046c-.547-1.228-1.371-2.9-2.384-4.686s-2.046-3.34-2.8-4.44A11.252,11.252,0,0,0,155.76,264.61Z" transform="translate(-100.022 -216.489)" fill="#263238"/>
      <path id="Path_36015" data-name="Path 36015" d="M167,299.89c.026.046.941-.4,2.445-1.079s3.581-1.535,5.975-2.394,4.568-1.448,6.164-1.852a22.324,22.324,0,0,0,2.558-.685,2.755,2.755,0,0,0-.716.077c-.46.066-1.115.189-1.923.363a52.688,52.688,0,0,0-6.226,1.77,53.535,53.535,0,0,0-5.965,2.5c-.742.368-1.33.68-1.734.916a2.942,2.942,0,0,0-.578.389Z" transform="translate(-105.512 -230.785)" fill="#263238"/>
      <path id="Path_36016" data-name="Path 36016" d="M158.14,354.67a1.169,1.169,0,0,0,.3.1l.87.22,3.2.742a105.33,105.33,0,0,1,10.456,2.762,46.3,46.3,0,0,1,9.76,4.6c1.166.742,2.077,1.4,2.691,1.872a9.995,9.995,0,0,0,.967.716,2.34,2.34,0,0,0-.215-.23c-.148-.143-.368-.348-.67-.593a28.183,28.183,0,0,0-2.64-1.975,42.774,42.774,0,0,0-9.776-4.706,86.461,86.461,0,0,0-10.522-2.67l-3.228-.67A8.089,8.089,0,0,0,158.14,354.67Z" transform="translate(-101.184 -260.479)" fill="#263238"/>
      <path id="Path_36017" data-name="Path 36017" d="M126.3,352.3c.092,0,.665-3.361,1.279-7.54s1.023-7.581.931-7.6-.665,3.366-1.279,7.545S126.2,352.286,126.3,352.3Z" transform="translate(-85.623 -251.926)" fill="#263238"/>
      <path id="Path_36018" data-name="Path 36018" d="M93.16,342.895a18.127,18.127,0,0,0,1.535-1.816c.916-1.141,2.184-2.711,3.622-4.42s2.762-3.233,3.729-4.333a16.975,16.975,0,0,0,1.535-1.816,2.442,2.442,0,0,0-.512.414c-.3.286-.711.706-1.223,1.238-1.023,1.059-2.374,2.558-3.816,4.271s-2.68,3.31-3.55,4.491c-.435.593-.778,1.079-1.023,1.417a2.189,2.189,0,0,0-.3.552Z" transform="translate(-69.445 -248.678)" fill="#263238"/>
      <path id="Path_36019" data-name="Path 36019" d="M146.444,385.46v8.379h-2.1L136.9,417.345H120.386l-7.213-23.275-2.793-.23V385.46Z" transform="translate(-77.856 -275.518)" fill="#455a64"/>
      <path id="Path_36020" data-name="Path 36020" d="M113.11,402.124c0,.1,7.29.179,16.283.179s16.288-.082,16.288-.179-7.29-.174-16.288-.174S113.11,402.027,113.11,402.124Z" transform="translate(-79.189 -283.573)" fill="#263238"/>
      <path id="Path_36021" data-name="Path 36021" d="M89.89,296.94a6.582,6.582,0,0,0,1.059.286l2.9.7c2.445.6,5.8,1.535,9.438,2.742s6.87,2.522,9.208,3.519l2.732,1.192a6.992,6.992,0,0,0,1.023.414,6.182,6.182,0,0,0-.957-.537c-.624-.327-1.535-.772-2.691-1.3a95.191,95.191,0,0,0-18.661-6.277c-1.228-.271-2.23-.471-2.926-.588A6.828,6.828,0,0,0,89.89,296.94Z" transform="translate(-67.847 -232.281)" fill="#263238"/>
      <path id="Path_36022" data-name="Path 36022" d="M123.83,427.644c0,.1,5.115.174,11.423.174s11.428-.077,11.428-.174-5.115-.174-11.428-.174S123.83,427.547,123.83,427.644Z" transform="translate(-84.426 -296.038)" fill="#fafafa"/>
      <path id="Path_36023" data-name="Path 36023" d="M122.57,423.834c0,.1,5.422.174,12.108.174s12.113-.077,12.113-.174-5.422-.174-12.113-.174S122.57,423.742,122.57,423.834Z" transform="translate(-83.81 -294.177)" fill="#fafafa"/>
    </g>
    <g id="freepik--Label--inject-4" transform="translate(183.182 78.524)">
      <path id="Path_36024" data-name="Path 36024" d="M472.288,279.787l-34.1-38.315a14.446,14.446,0,0,0-10.681-4.839l-112.279-.813a14.436,14.436,0,0,0-14.543,14.472l.189,79.5a14.436,14.436,0,0,0,14.5,14.405l111.891-.471a14.431,14.431,0,0,0,10.886-5l34.309-39.9A14.446,14.446,0,0,0,472.288,279.787ZM453.31,293.6a21.786,21.786,0,1,1,0-.02Z" transform="translate(-300.68 -169.288)" fill="#ea3224"/>
      <g id="Group_12358" data-name="Group 12358" transform="translate(0 66.531)" opacity="0.4">
        <path id="Path_36025" data-name="Path 36025" d="M472.288,279.787l-34.1-38.315a14.446,14.446,0,0,0-10.681-4.839l-112.279-.813a14.436,14.436,0,0,0-14.543,14.472l.189,79.5a14.436,14.436,0,0,0,14.5,14.405l111.891-.471a14.431,14.431,0,0,0,10.886-5l34.309-39.9A14.446,14.446,0,0,0,472.288,279.787ZM453.31,293.6a21.786,21.786,0,1,1,0-.02Z" transform="translate(-300.68 -235.819)"/>
      </g>
      <path id="Path_36026" data-name="Path 36026" d="M483.824,279.787,449.7,241.472a14.456,14.456,0,0,0-10.681-4.839l-112.279-.813A14.431,14.431,0,0,0,312.2,250.291l.184,79.5A14.441,14.441,0,0,0,326.933,344.2l111.885-.471a14.441,14.441,0,0,0,10.886-5l34.3-39.9a14.441,14.441,0,0,0-.184-19.045ZM464.851,293.6a21.631,21.631,0,1,1,0-.02Z" transform="translate(-306.307 -169.288)" fill="#ea3224"/>
      <path id="Path_36027" data-name="Path 36027" d="M385.239,301.637c.087-9.638,6.026-15.71,14.354-15.628s14.073,6.174,13.986,15.889-5.954,15.71-14.277,15.633S385.147,311.275,385.239,301.637Zm20.17.189c.056-6.139-2.281-9.09-5.878-9.121-3.509-.036-5.99,2.962-6.046,9.008s2.368,9.085,5.878,9.121C402.959,310.865,405.353,307.949,405.409,301.826Zm28.232-14.835,9.719.092-39.568,56.782-9.719-.092Zm-9.781,41.983c.092-9.638,6.026-15.71,14.277-15.633,8.328.082,14.149,6.261,14.062,15.894s-6.026,15.684-14.359,15.6C429.621,344.765,423.774,338.586,423.861,328.974Zm20.088.184c.056-6.041-2.281-9.085-5.878-9.116-3.509-.036-5.985,2.88-6.041,9.008s2.363,9.085,5.873,9.121c3.6.01,5.99-2.993,6.041-9.039Z" transform="translate(-341.983 -193.803)" fill="#fff"/>
      <path id="Path_36028" data-name="Path 36028" d="M613.258,357.2a5.212,5.212,0,0,1,1.12.8c.7.558,1.724,1.4,3.018,2.507s2.87,2.481,4.64,4.133,3.755,3.581,5.806,5.867a59.459,59.459,0,0,1,6.1,7.965l.726,1.161.685,1.212a26.6,26.6,0,0,1,1.3,2.558,16.007,16.007,0,0,1,1.463,5.9,9.321,9.321,0,0,1-.471,3.218,8.292,8.292,0,0,1-1.688,2.9,10.885,10.885,0,0,1-5.852,3.346,15.918,15.918,0,0,1-6.911-.164,30.232,30.232,0,0,1-6.563-2.42,41.016,41.016,0,0,1-11-8.185,52.916,52.916,0,0,1-4.251-4.942q-1.923-2.522-3.663-5.018a95.657,95.657,0,0,1-10.436-18.764c-.563-1.427-1.049-2.8-1.468-4.118-.2-.66-.4-1.3-.558-1.944a12.072,12.072,0,0,1-.373-1.888,4.681,4.681,0,0,1,.844-3.433,4.992,4.992,0,0,1,2.425-1.688,6.792,6.792,0,0,1,1.218-.281,6.647,6.647,0,0,1,1.095-.026,5.147,5.147,0,0,1,1.668.363,3.387,3.387,0,0,1,.89.547c.174.159.251.246.235.266s-.123-.036-.317-.153a3.937,3.937,0,0,0-.9-.4,5.27,5.27,0,0,0-1.586-.225,7.357,7.357,0,0,0-1.023.082,6.649,6.649,0,0,0-1.11.317,4.506,4.506,0,0,0-2.087,1.576,4.005,4.005,0,0,0-.614,2.967,11.217,11.217,0,0,0,.4,1.775c.169.614.379,1.238.593,1.883q.67,1.934,1.535,4.031a98.633,98.633,0,0,0,10.563,18.416q1.739,2.455,3.668,4.947a52.261,52.261,0,0,0,4.179,4.809,40.254,40.254,0,0,0,10.661,7.919,29.293,29.293,0,0,0,6.292,2.322,14.717,14.717,0,0,0,6.343.179,9.683,9.683,0,0,0,5.177-2.916,7.519,7.519,0,0,0,1.883-5.248,14.9,14.9,0,0,0-1.351-5.479,25.873,25.873,0,0,0-1.223-2.476l-.639-1.182-.7-1.156a60.267,60.267,0,0,0-5.878-7.924c-1.975-2.292-3.893-4.256-5.627-5.954s-3.233-3.12-4.476-4.282l-2.824-2.681A5.624,5.624,0,0,1,613.258,357.2Z" transform="translate(-439.475 -223.056)" fill="#263238"/>
      <path id="Path_36029" data-name="Path 36029" d="M530.365,170.055c-.072,0-1.5-10-3.2-22.36s-3.013-22.385-2.936-22.4,1.5,10,3.2,22.36S530.442,170.045,530.365,170.055Z" transform="translate(-409.871 -115.304)" fill="#263238"/>
      <path id="Path_36030" data-name="Path 36030" d="M598.131,105.76a.645.645,0,0,1-.046.153l-.164.445-.65,1.7-2.435,6.251c-2.046,5.279-4.85,12.584-7.827,20.7s-5.56,15.5-7.4,20.856c-.916,2.665-1.657,4.829-2.174,6.348-.256.731-.455,1.31-.6,1.724-.067.184-.123.327-.164.445a.757.757,0,0,1-.061.148.537.537,0,0,1,.036-.159l.138-.455c.128-.414.312-1.023.547-1.739.481-1.509,1.2-3.688,2.1-6.374,1.8-5.371,4.358-12.789,7.336-20.886s5.8-15.418,7.893-20.682c1.023-2.629,1.913-4.757,2.522-6.22l.7-1.683c.077-.179.143-.322.189-.435Z" transform="translate(-435.459 -105.76)" fill="#263238"/>
      <path id="Path_36031" data-name="Path 36031" d="M646.357,182.72c.046.056-7.274,5.791-16.369,12.789S613.516,208.164,613.47,208.1s7.279-5.791,16.37-12.789S646.316,182.658,646.357,182.72Z" transform="translate(-453.463 -143.351)" fill="#263238"/>
      <path id="Path_36032" data-name="Path 36032" d="M489.621,200.892c-.061.046-2.89-3.581-6.323-8.062s-6.174-8.185-6.139-8.221,2.89,3.581,6.323,8.062S489.677,200.846,489.621,200.892Z" transform="translate(-386.882 -144.274)" fill="#263238"/>
      <path id="Path_36033" data-name="Path 36033" d="M651.936,266c0,.072-4.507-1.177-10.021-2.783s-9.965-2.967-9.944-3.039,4.507,1.177,10.021,2.783S651.961,265.927,651.936,266Z" transform="translate(-462.5 -181.184)" fill="#263238"/>
      <path id="Path_36034" data-name="Path 36034" d="M544.99,266.16l3.325-1.913,1.765-3.407L552,264.165l3.407,1.77-3.325,1.913-1.77,3.407L548.4,267.93Z" transform="translate(-420.014 -181.509)" fill="#fff"/>
      <path id="Path_36035" data-name="Path 36035" d="M509.85,259.142l1.166-.67.619-1.192.67,1.161,1.192.619-1.166.67-.619,1.192-.67-1.161Z" transform="translate(-402.85 -179.77)" fill="#fff"/>
      <path id="Path_36036" data-name="Path 36036" d="M532.29,303.411l2.251-1.294,1.2-2.307,1.294,2.251,2.307,1.2-2.251,1.294-1.2,2.307-1.294-2.251Z" transform="translate(-413.811 -200.544)" fill="#fff"/>
    </g>
    <g id="freepik--Floor--inject-4" transform="translate(27.83 253.355)">
      <path id="Path_36037" data-name="Path 36037" d="M380.275,447.663c0,.072-78.906.133-176.217.133s-176.228-.061-176.228-.133,78.886-.133,176.228-.133S380.275,447.586,380.275,447.663Z" transform="translate(-27.83 -447.53)" fill="#263238"/>
    </g>
    <g id="freepik--Character--inject-4" transform="translate(85.003 114.901)">
      <path id="Path_36038" data-name="Path 36038" d="M206.725,430.06s-21.337,5.913-22.222,6.215c-1.284.45-1.069,5.167.936,5.115.946-.036,16.405.573,18.359.45s7.213-2.195,7.213-2.195Z" transform="translate(-161.138 -300.543)" fill="#455a64"/>
      <path id="Path_36039" data-name="Path 36039" d="M208.967,441.929a18.682,18.682,0,0,0-.941-2.292c-.691-1.177-1.576-1.883-1.509-1.964a3.65,3.65,0,0,1,1.821,1.785A3.884,3.884,0,0,1,208.967,441.929Z" transform="translate(-172.281 -304.258)" fill="#263238"/>
      <path id="Path_36040" data-name="Path 36040" d="M213.7,440.1c-.107,0-.322-.992-.89-2.108s-1.243-1.9-1.166-1.969a3.9,3.9,0,0,1,1.483,1.811A4.148,4.148,0,0,1,213.7,440.1Z" transform="translate(-174.784 -303.454)" fill="#263238"/>
      <path id="Path_36041" data-name="Path 36041" d="M218.143,438.86a14.027,14.027,0,0,0-.512-2.261,20.051,20.051,0,0,0-1.166-2,3.06,3.06,0,0,1,1.5,1.867A3.51,3.51,0,0,1,218.143,438.86Z" transform="translate(-177.139 -302.759)" fill="#263238"/>
      <path id="Path_36042" data-name="Path 36042" d="M218.772,432.793a3.857,3.857,0,0,1-.23-1.586,7.674,7.674,0,0,1,.23-1.755,6.735,6.735,0,0,1,.317-.992,1.171,1.171,0,0,1,.343-.512.568.568,0,0,1,.732.036.962.962,0,0,1,.286.6,4.212,4.212,0,0,1,0,.563,4.6,4.6,0,0,1-.133,1.023,6.409,6.409,0,0,1-.655,1.632,4.333,4.333,0,0,1-.962,1.284c-.046-.031.312-.512.737-1.4a6.894,6.894,0,0,0,.558-1.586,4.687,4.687,0,0,0,.107-.977c0-.327,0-.737-.2-.9a.2.2,0,0,0-.281-.026.885.885,0,0,0-.235.373,7.329,7.329,0,0,0-.322.941,8.344,8.344,0,0,0-.281,1.668C218.737,432.179,218.834,432.788,218.772,432.793Z" transform="translate(-178.153 -299.455)" fill="#263238"/>
      <path id="Path_36043" data-name="Path 36043" d="M219.06,436.887a3.013,3.013,0,0,1,1.381-.225,6.168,6.168,0,0,1,1.535.189,3.158,3.158,0,0,1,.875.322.9.9,0,0,1,.481.972,1.069,1.069,0,0,1-.772.762,1.948,1.948,0,0,1-.957,0,4.558,4.558,0,0,1-2.379-1.663,9.632,9.632,0,0,1,1.136.772,3.8,3.8,0,0,0,1.31.568,1.662,1.662,0,0,0,.793,0,.732.732,0,0,0,.512-.512.547.547,0,0,0-.317-.593,3.109,3.109,0,0,0-.778-.3,6.976,6.976,0,0,0-1.437-.251C219.592,436.857,219.07,436.944,219.06,436.887Z" transform="translate(-178.41 -303.764)" fill="#263238"/>
      <path id="Path_36044" data-name="Path 36044" d="M203.51,443a11.534,11.534,0,0,0-.425-1.923c-.425-1-1.11-1.591-1.023-1.673s.926.419,1.376,1.535A2.468,2.468,0,0,1,203.51,443Z" transform="translate(-170.104 -305.102)" fill="#263238"/>
      <path id="Path_36045" data-name="Path 36045" d="M212.107,448.365a5.061,5.061,0,0,1-.829.389,18.763,18.763,0,0,1-2.379.737,33.688,33.688,0,0,1-8.154.772c-3.2-.036-6.087-.179-8.185-.266l-2.476-.128a4.551,4.551,0,0,1-.905-.1,4.142,4.142,0,0,1,.931-.061h2.481l8.185.159a38.1,38.1,0,0,0,8.1-.66C210.911,448.825,212.107,448.3,212.107,448.365Z" transform="translate(-163.815 -309.481)" fill="#263238"/>
      <path id="Path_36046" data-name="Path 36046" d="M225.369,447.6a17.224,17.224,0,0,1-1.6-.726,7.49,7.49,0,0,0-4.041-.67,6.407,6.407,0,0,0-3.494,2.077A11.964,11.964,0,0,1,215,449.54a6.7,6.7,0,0,1,1.049-1.427,8.39,8.39,0,0,1,1.417-1.325,5.075,5.075,0,0,1,2.2-.936,7.07,7.07,0,0,1,4.2.8,5.658,5.658,0,0,1,1.494.952Z" transform="translate(-176.426 -308.231)" fill="#263238"/>
      <path id="Path_36047" data-name="Path 36047" d="M192.445,446.083a7.672,7.672,0,0,1,.312-.808,3.934,3.934,0,0,0-.706-3.826c-.338-.409-.609-.6-.583-.645s.338.113.732.512a3.642,3.642,0,0,1,.747,4.041C192.717,445.858,192.471,446.1,192.445,446.083Z" transform="translate(-164.932 -305.787)" fill="#263238"/>
      <path id="Path_36048" data-name="Path 36048" d="M268.67,431.3s21.915,3.33,22.8,3.53c1.335.3,1.678,5-.317,5.167-.946.077-16.226,2.522-18.18,2.634s-8.082-1.494-8.082-1.494Z" transform="translate(-200.795 -301.148)" fill="#455a64"/>
      <path id="Path_36049" data-name="Path 36049" d="M291.368,440.725a20.14,20.14,0,0,1,.66-2.389c.542-1.253,1.345-2.046,1.269-2.133a3.67,3.67,0,0,0-1.6,2A3.859,3.859,0,0,0,291.368,440.725Z" transform="translate(-213.687 -303.54)" fill="#263238"/>
      <path id="Path_36050" data-name="Path 36050" d="M286.829,439.51c.107,0,.2-1.023.634-2.2s1.023-2.046.921-2.092a3.851,3.851,0,0,0-1.258,1.969A4.123,4.123,0,0,0,286.829,439.51Z" transform="translate(-211.48 -303.061)" fill="#263238"/>
      <path id="Path_36051" data-name="Path 36051" d="M282.465,438.77a14.359,14.359,0,0,1,.225-2.3,22.818,22.818,0,0,1,.921-2.123,3.041,3.041,0,0,0-1.264,2.046A3.282,3.282,0,0,0,282.465,438.77Z" transform="translate(-209.255 -302.633)" fill="#263238"/>
      <path id="Path_36052" data-name="Path 36052" d="M280.743,432.966a3.693,3.693,0,0,0,.041-1.6,7.376,7.376,0,0,0-.425-1.7,7.084,7.084,0,0,0-.435-.951,1.177,1.177,0,0,0-.4-.476.573.573,0,0,0-.726.123.956.956,0,0,0-.21.634,4.053,4.053,0,0,0,.041.563,4.6,4.6,0,0,0,.256,1.023,6.419,6.419,0,0,0,.844,1.535,4.424,4.424,0,0,0,1.1,1.166,14.234,14.234,0,0,0-.9-1.3,7.076,7.076,0,0,1-.747-1.535,4.666,4.666,0,0,1-.215-.957c-.031-.327-.082-.731.087-.911a.2.2,0,0,1,.276-.056.89.89,0,0,1,.281.343,7.16,7.16,0,0,1,.43.9,8.635,8.635,0,0,1,.481,1.622C280.707,432.358,280.687,432.966,280.743,432.966Z" transform="translate(-207.487 -299.613)" fill="#263238"/>
      <path id="Path_36053" data-name="Path 36053" d="M278.787,437.032a2.992,2.992,0,0,0-1.381-.077,6.346,6.346,0,0,0-1.484.363,3.355,3.355,0,0,0-.829.425.9.9,0,0,0-.363,1.023,1.085,1.085,0,0,0,.859.67,2,2,0,0,0,.951-.118,4.6,4.6,0,0,0,2.164-1.934,9.656,9.656,0,0,0-1.023.9,3.776,3.776,0,0,1-1.233.721,1.719,1.719,0,0,1-.788.082.742.742,0,0,1-.578-.44.563.563,0,0,1,.246-.634,3.335,3.335,0,0,1,.732-.389,6.82,6.82,0,0,1,1.4-.42C278.255,437.068,278.787,437.088,278.787,437.032Z" transform="translate(-205.581 -303.888)" fill="#263238"/>
      <path id="Path_36054" data-name="Path 36054" d="M297.609,441.149a12.167,12.167,0,0,1,.189-1.964,13.446,13.446,0,0,1,.844-1.78c-.077-.072-.875.512-1.187,1.688A2.529,2.529,0,0,0,297.609,441.149Z" transform="translate(-216.644 -304.127)" fill="#263238"/>
      <path id="Path_36055" data-name="Path 36055" d="M269.17,448.838a4.484,4.484,0,0,0,.87.286,18.169,18.169,0,0,0,2.445.45,33.731,33.731,0,0,0,8.185-.2c3.177-.419,6.021-.905,8.088-1.238l2.445-.425a4.205,4.205,0,0,0,.885-.2,4.275,4.275,0,0,0-.905.067l-2.461.312-8.1,1.131a38.133,38.133,0,0,1-8.118.307C270.434,449.15,269.185,448.782,269.17,448.838Z" transform="translate(-202.886 -309.064)" fill="#263238"/>
      <path id="Path_36056" data-name="Path 36056" d="M268.06,448.895c.036.046.573-.363,1.5-.911a7.406,7.406,0,0,1,3.934-1.146,6.4,6.4,0,0,1,3.714,1.647,13.25,13.25,0,0,0,1.371,1.1,6.423,6.423,0,0,0-1.207-1.294,8.4,8.4,0,0,0-1.565-1.151,5.116,5.116,0,0,0-2.3-.665,7.074,7.074,0,0,0-4.092,1.289,5.657,5.657,0,0,0-1.356,1.125Z" transform="translate(-202.344 -308.563)" fill="#263238"/>
      <path id="Path_36057" data-name="Path 36057" d="M357.837,244.845a1.346,1.346,0,0,0-.639-.629l.512-1.023a2.994,2.994,0,0,0-.3-1.054c-.256-.44-1.151-.4-1.151-.4l.138-.292a1.32,1.32,0,0,0-.113-1.289c-.041-.056-.082-.113-.133-.174a2.133,2.133,0,0,0-1.131-.573s.512-.982.281-1.4a2.128,2.128,0,0,0-2.179-.859,30.9,30.9,0,0,0-3.964,1.893.936.936,0,0,1-1.33-.512,13.454,13.454,0,0,0-1.939-3.642,2.01,2.01,0,0,0-2.389-.859.435.435,0,0,0-.215.629,23.334,23.334,0,0,1,1.391,2.558,57.33,57.33,0,0,1,.512,5.714l-1.381,2.629-13.929,22s-21.05-14.185-20.973-14.538l-.992,16.267,15.858,10.538A11.172,11.172,0,0,0,340.184,275l10.676-23.173,1.294-1.893,5.028-3.223S358.016,245.269,357.837,244.845Z" transform="translate(-221.809 -204.73)" fill="#ffbe9d"/>
      <path id="Path_36058" data-name="Path 36058" d="M395.082,243.2a.933.933,0,0,1-.1.092l-.3.246c-.281.215-.665.512-1.125.875l-1.683,1.279a10.563,10.563,0,0,1-1.023.737,1.478,1.478,0,0,1-1.335.179,1.023,1.023,0,0,1-.512-.512,1.469,1.469,0,0,1-.118-.67,1.934,1.934,0,0,1,.512-1.146,7.167,7.167,0,0,1,.839-.767l.757-.629,1.1-.905.3-.24c.072-.051.107-.082.113-.077l-.1.1-.286.261-1.074.931-.747.639a7.117,7.117,0,0,0-.818.767,1.8,1.8,0,0,0-.512,1.074,1.059,1.059,0,0,0,.537,1.059,1.1,1.1,0,0,0,.629.061,1.791,1.791,0,0,0,.593-.23c.358-.22.685-.512,1.023-.721l1.693-1.264,1.151-.839.317-.225Z" transform="translate(-261.361 -208.518)" fill="#eb996e"/>
      <path id="Path_36059" data-name="Path 36059" d="M397.826,249.3a1.339,1.339,0,0,1-.235.194c-.153.118-.384.286-.67.486-.568.394-1.371.926-2.287,1.463-.23.133-.45.271-.685.379a1.484,1.484,0,0,1-.732.138,1.146,1.146,0,0,1-.946-.762,1.125,1.125,0,0,1,.061-.829,1.065,1.065,0,0,1,.128-.189c.036-.041.056-.056.061-.056a2.26,2.26,0,0,0-.143.266,1.121,1.121,0,0,0,0,.778,1.023,1.023,0,0,0,.87.675,1.386,1.386,0,0,0,.67-.138,7.353,7.353,0,0,0,.67-.368c.916-.537,1.724-1.054,2.307-1.432l.685-.45A1.788,1.788,0,0,1,397.826,249.3Z" transform="translate(-262.99 -212.25)" fill="#eb996e"/>
      <path id="Path_36060" data-name="Path 36060" d="M399.534,253.82a1.3,1.3,0,0,1-.24.138l-.68.343c-.578.286-1.381.67-2.266,1.09a6.211,6.211,0,0,1-.665.286,1.284,1.284,0,0,1-.691.056.742.742,0,0,1-.512-.368.864.864,0,0,1-.082-.542,1.172,1.172,0,0,1,.4-.66c.138-.118.23-.164.235-.154a2.636,2.636,0,0,1-.2.189,1.2,1.2,0,0,0-.343.639.757.757,0,0,0,.082.476.65.65,0,0,0,.445.307,1.156,1.156,0,0,0,.624-.061,5.867,5.867,0,0,0,.65-.286c.89-.414,1.693-.788,2.281-1.054l.7-.3a.942.942,0,0,1,.261-.1Z" transform="translate(-264.048 -214.458)" fill="#eb996e"/>
      <path id="Path_36061" data-name="Path 36061" d="M400.862,257.614a5.334,5.334,0,0,1-.8.21c-.512.113-1.187.261-1.949.414l-.558.113a2.138,2.138,0,0,1-.537.061.757.757,0,0,1-.476-.169.511.511,0,0,1-.184-.4.731.731,0,0,1,.307-.537.384.384,0,0,1,.2-.092,1.126,1.126,0,0,0-.174.133.7.7,0,0,0-.246.512.409.409,0,0,0,.159.322.655.655,0,0,0,.409.133,2.3,2.3,0,0,0,.512-.066l.558-.118c.762-.153,1.453-.286,1.954-.379A5.877,5.877,0,0,1,400.862,257.614Z" transform="translate(-265.012 -216.114)" fill="#eb996e"/>
      <path id="Path_36062" data-name="Path 36062" d="M391.779,255.731a7.362,7.362,0,0,0-1.432-.143,6.886,6.886,0,0,0-1.407.281,2.624,2.624,0,0,1,1.4-.409A2.691,2.691,0,0,1,391.779,255.731Z" transform="translate(-261.388 -215.253)" fill="#eb996e"/>
      <path id="Path_36063" data-name="Path 36063" d="M242.128,212.531s-7.08-5.97-5.443-10.083,6.185-6.139,8.42-13.633c1.785-5.975,12.42-17.505,25.025-8.809,0,0,4.266-.67,6.691,1.274s3.013,5.821,4.041,10.3c1.586,6.9,2.455,12.206-.614,15.582s-4.195,4.282-4.031,8.118c.215,5.008,2.425,4.338.512,7.99l-10.569-3.448-.113-2.911-1.069,2.737-6.139-2.21Z" transform="translate(-186.899 -176.872)" fill="#263238"/>
      <path id="Path_36064" data-name="Path 36064" d="M299.416,197.36c-.685,1.576-.123,3.4.512,4.993s1.407,3.279,1.079,4.967c-.583,2.993-4.3,4.66-4.711,7.673-.22,1.617.588,3.264.276,4.87a5.474,5.474,0,0,1-2.977,3.5c-1.376.778-2.9,1.3-4.19,2.21,0,0-2.844,2.333-7.745-1.509" transform="translate(-208.987 -186.88)" fill="#263238"/>
      <path id="Path_36065" data-name="Path 36065" d="M264.288,189.645a2.609,2.609,0,0,0-3.069,1.734h0L251.064,225.09c-1.315,3.944,3.647,8.154,7.878,9.525h0c4.276,1.386,5.141-.645,6.5-4.358,2.271-6.2,3.069-8.543,3.069-8.507s5.668.972,9.208-5.627c1.76-3.289,3.581-9.054,4.9-13.812,1.2-4.287.2-10.4-4.128-11.413Z" transform="translate(-193.937 -183.078)" fill="#ffbe9d"/>
      <path id="Path_36066" data-name="Path 36066" d="M304.163,220.23a.946.946,0,0,1-1.182.6.911.911,0,0,1-.645-1.131.952.952,0,0,1,1.182-.6.911.911,0,0,1,.645,1.131Z" transform="translate(-219.069 -197.477)" fill="#263238"/>
      <path id="Path_36067" data-name="Path 36067" d="M305.31,217.376c-.148.077-.655-.66-1.622-.992s-1.842-.1-1.9-.251c-.036-.072.153-.246.512-.363a2.624,2.624,0,0,1,1.576.056,2.527,2.527,0,0,1,1.243.941C305.356,217.074,305.387,217.325,305.31,217.376Z" transform="translate(-218.815 -195.826)" fill="#263238"/>
      <path id="Path_36068" data-name="Path 36068" d="M285.448,214.252a.951.951,0,0,1-1.177.609.911.911,0,0,1-.645-1.131.951.951,0,0,1,1.177-.609.91.91,0,0,1,.645,1.131Z" transform="translate(-209.93 -194.558)" fill="#263238"/>
      <path id="Path_36069" data-name="Path 36069" d="M286.486,211.689c-.153.082-.66-.66-1.627-.992s-1.842-.1-1.9-.251c-.036-.072.153-.24.537-.358a2.583,2.583,0,0,1,1.576.056,2.491,2.491,0,0,1,1.243.936C286.526,211.408,286.557,211.658,286.486,211.689Z" transform="translate(-209.618 -193.049)" fill="#263238"/>
      <path id="Path_36070" data-name="Path 36070" d="M291.84,221.86a6.651,6.651,0,0,1,1.668.261c.256.061.512.092.6-.061a1.345,1.345,0,0,0,.087-.788c0-.675-.046-1.386-.072-2.128a33.816,33.816,0,0,1,.066-5.484,33.777,33.777,0,0,1,.373,5.474c0,.742.026,1.453.041,2.133a1.494,1.494,0,0,1-.21,1.023.639.639,0,0,1-.512.22,1.632,1.632,0,0,1-.435-.087A6.682,6.682,0,0,1,291.84,221.86Z" transform="translate(-213.959 -194.841)" fill="#263238"/>
      <path id="Path_36071" data-name="Path 36071" d="M277.267,246.975a18.789,18.789,0,0,1-8.5-5.755s.691,5.627,7.919,7.412Z" transform="translate(-202.691 -208.303)" fill="#eb996e"/>
      <path id="Path_36072" data-name="Path 36072" d="M286.466,232.818a1.826,1.826,0,0,0-1.335-1.187,1.678,1.678,0,0,0-1.3.2,1.054,1.054,0,0,0-.476,1.125,1.228,1.228,0,0,0,1.151.757,3.785,3.785,0,0,0,1.489-.307,1.146,1.146,0,0,0,.379-.189.348.348,0,0,0,.123-.358" transform="translate(-209.803 -203.595)" fill="#ea3224"/>
      <path id="Path_36073" data-name="Path 36073" d="M286.8,206.766c-.148.256-1.125-.067-2.333-.148s-2.215.056-2.327-.215c-.046-.133.169-.358.6-.547a3.831,3.831,0,0,1,1.806-.271,3.878,3.878,0,0,1,1.744.547C286.7,206.388,286.876,206.644,286.8,206.766Z" transform="translate(-209.22 -190.889)" fill="#263238"/>
      <path id="Path_36074" data-name="Path 36074" d="M307.607,211.049c-.266.164-1.023-.3-1.99-.583s-1.847-.358-1.975-.645c-.051-.138.143-.327.563-.435a3.525,3.525,0,0,1,3.2.987C307.684,210.691,307.73,210.962,307.607,211.049Z" transform="translate(-219.72 -192.721)" fill="#263238"/>
      <path id="Path_36075" data-name="Path 36075" d="M254,210.492q2.854-9.561,5.714-19.132a6.517,6.517,0,0,1,1.929-3.53,6.022,6.022,0,0,1,3.7-.9,70.006,70.006,0,0,1,16.574,1.637,2.86,2.86,0,0,1-2.123,2.952,12.677,12.677,0,0,1-3.939.286,4.947,4.947,0,0,0-3.663,1.228c-.9.977-1.049,2.64-1.949,3.724-1.535,1.862-4.793,1.468-6.333,3.34-1.161,1.417-.849,3.489-1.233,5.279-.435,2.046-.435,2.046-2.046,5.023-.977,1.831,1.478,5.33-.967,9.868l-4.747-1.35L257,211.914l-2.824,6.573Z" transform="translate(-195.476 -181.78)" fill="#263238"/>
      <path id="Path_36076" data-name="Path 36076" d="M285.608,229.45c.1.056.046.312.041.68a2.471,2.471,0,0,0,1.2,2.292c.3.2.542.307.512.419s-.292.21-.747.1a2.246,2.246,0,0,1-1.535-2.936C285.271,229.568,285.521,229.394,285.608,229.45Z" transform="translate(-210.592 -202.549)" fill="#263238"/>
      <path id="Path_36077" data-name="Path 36077" d="M275.885,199.4a1.024,1.024,0,0,1-.266.148,7.786,7.786,0,0,0-.752.419,9.1,9.1,0,0,0-4.19,6.318,10.315,10.315,0,0,0,0,2.747,16.484,16.484,0,0,1,.179,3.008,5.437,5.437,0,0,1-.322,1.535,9.605,9.605,0,0,1-.68,1.335,6.65,6.65,0,0,0-1.074,2.5,8.469,8.469,0,0,0,.066,2.476c.107.783.246,1.535.3,2.184a5.775,5.775,0,0,1-.466,3.151,3.3,3.3,0,0,1-.512.711c-.148.138-.23.2-.235.194a4.6,4.6,0,0,0,.65-.951,5.923,5.923,0,0,0,.373-3.069c-.066-.665-.215-1.386-.332-2.169a8.573,8.573,0,0,1-.087-2.558c.2-1.882,2.016-3.264,2.046-5.33a16.678,16.678,0,0,0-.169-2.962,10.366,10.366,0,0,1,0-2.814,9.014,9.014,0,0,1,1.939-4.307,8.538,8.538,0,0,1,2.44-2.046,5.5,5.5,0,0,1,.783-.373,1.089,1.089,0,0,1,.312-.148Z" transform="translate(-202.28 -187.876)" fill="#263238"/>
      <path id="Path_36078" data-name="Path 36078" d="M321.317,223.573l-.087.072c-.061.041-.148.113-.271.184a4.287,4.287,0,0,1-1.161.471,4.829,4.829,0,0,1-1.99.072,4.384,4.384,0,0,1-2.353-1.171,4.788,4.788,0,0,1-1.407-2.849,4.388,4.388,0,0,1,.118-1.8,5.536,5.536,0,0,1,.839-1.709,22.759,22.759,0,0,1,2.829-2.885,10.74,10.74,0,0,0,1.391-1.57,7.764,7.764,0,0,0,.957-1.923,12.491,12.491,0,0,0,.537-4.22,30.5,30.5,0,0,0-.414-3.985,37.241,37.241,0,0,0-1.7-6.563,39.616,39.616,0,0,0-1.79-4.22c-.24-.486-.435-.859-.568-1.11a2.349,2.349,0,0,1-.2-.368,2.613,2.613,0,0,1,.235.368c.148.24.358.609.614,1.09a34.47,34.47,0,0,1,1.877,4.2,36.164,36.164,0,0,1,1.77,6.589,29.965,29.965,0,0,1,.435,4.021,12.567,12.567,0,0,1-.547,4.307,7.774,7.774,0,0,1-.987,1.99,11.137,11.137,0,0,1-1.432,1.611,22.908,22.908,0,0,0-2.808,2.839,5.279,5.279,0,0,0-.813,1.627,4.328,4.328,0,0,0-.128,1.709,4.655,4.655,0,0,0,1.325,2.742,4.317,4.317,0,0,0,2.246,1.161,4.757,4.757,0,0,0,1.939-.031,5.494,5.494,0,0,0,1.545-.65Z" transform="translate(-224.786 -183.285)" fill="#263238"/>
      <path id="Path_36079" data-name="Path 36079" d="M243.23,215.078a4.42,4.42,0,0,0,1.642-.818,6.543,6.543,0,0,0,2.179-4.394,25.625,25.625,0,0,0,.092-3.494,15.428,15.428,0,0,1,.312-4.041,7.53,7.53,0,0,1,.824-2.046,4.86,4.86,0,0,1,1.616-1.657c1.386-.849,3.069-.808,4.6-1.335a4.865,4.865,0,0,0,1.959-1.284,12.227,12.227,0,0,0,1.381-1.867,10.538,10.538,0,0,1,2.854-3.448,4.885,4.885,0,0,1,1.98-.721,10.744,10.744,0,0,1,1.969-.082,20.2,20.2,0,0,0,3.494-.031,10.389,10.389,0,0,0,4.645-1.852,12.888,12.888,0,0,0,1.064-.87l.261-.246.1-.082a7.161,7.161,0,0,1-1.361,1.279,10.323,10.323,0,0,1-4.681,1.959,20.459,20.459,0,0,1-3.525.061,6.533,6.533,0,0,0-3.811.793,10.868,10.868,0,0,0-2.767,3.376,12.362,12.362,0,0,1-1.412,1.913,5.115,5.115,0,0,1-2.046,1.35c-1.576.542-3.253.512-4.548,1.31a5.571,5.571,0,0,0-2.338,3.54,15.279,15.279,0,0,0-.333,3.975,24.361,24.361,0,0,1-.123,3.525,6.583,6.583,0,0,1-2.3,4.45,3.683,3.683,0,0,1-1.233.639,3.39,3.39,0,0,1-.353.082A.379.379,0,0,1,243.23,215.078Z" transform="translate(-190.215 -181.726)" fill="#ea3224"/>
      <path id="Path_36080" data-name="Path 36080" d="M253.25,192.742a6.722,6.722,0,0,0,1.023.271,4.982,4.982,0,0,0,2.762-.455,11.555,11.555,0,0,0,3.3-2.6c.563-.573,1.151-1.187,1.816-1.765a8.277,8.277,0,0,1,2.307-1.473,7.473,7.473,0,0,1,2.7-.512,22.235,22.235,0,0,1,2.532.138c.8.077,1.535.159,2.261.164a10.134,10.134,0,0,0,1.959-.159,5.4,5.4,0,0,0,2.558-1.136,9.847,9.847,0,0,0,.721-.752,1.226,1.226,0,0,1-.138.235,2.1,2.1,0,0,1-.2.266,2.663,2.663,0,0,1-.317.327,5.32,5.32,0,0,1-2.6,1.243,10,10,0,0,1-2,.194c-.721,0-1.483-.072-2.287-.138a21.971,21.971,0,0,0-2.5-.123,7.238,7.238,0,0,0-2.6.481,13.174,13.174,0,0,0-4.046,3.166,11.28,11.28,0,0,1-3.4,2.6,4.906,4.906,0,0,1-2.854.389,3.3,3.3,0,0,1-.757-.24A1.334,1.334,0,0,1,253.25,192.742Z" transform="translate(-195.11 -180.578)" fill="#ea3224"/>
      <path id="Path_36081" data-name="Path 36081" d="M316.388,208.175a3.861,3.861,0,0,0,.251-.977,4.2,4.2,0,0,0-.726-2.583,16.679,16.679,0,0,0-2.808-2.972,7.536,7.536,0,0,1-1.489-1.964,6.9,6.9,0,0,1-.634-2.558c-.118-1.816.194-3.514.153-5.054a6.138,6.138,0,0,0-1.125-3.816,3.8,3.8,0,0,0-2.246-1.437,4.355,4.355,0,0,0-1.023-.026.88.88,0,0,1,.261-.072,2.8,2.8,0,0,1,.762,0,3.806,3.806,0,0,1,2.379,1.422,6.22,6.22,0,0,1,1.223,3.929c.02,1.56-.251,3.269-.133,5.039a6.7,6.7,0,0,0,.6,2.476,7.249,7.249,0,0,0,1.427,1.908,15.949,15.949,0,0,1,2.793,3.069,4.179,4.179,0,0,1,.67,2.7,2.426,2.426,0,0,1-.215.731A.919.919,0,0,1,316.388,208.175Z" transform="translate(-221.237 -181.667)" fill="#455a64"/>
      <path id="Path_36082" data-name="Path 36082" d="M235.027,208.8a3.043,3.043,0,0,1-.327-.179,3.806,3.806,0,0,1-.793-.716,4.635,4.635,0,0,1-.982-3.734,4.517,4.517,0,0,1,.435-1.253,4.982,4.982,0,0,1,.9-1.115,11.474,11.474,0,0,1,2.66-1.637,10.39,10.39,0,0,0,2.844-1.811,6.707,6.707,0,0,0,1.611-3.182c.307-1.212.512-2.44.916-3.581a15.517,15.517,0,0,1,1.489-3.115,16.241,16.241,0,0,1,3.888-4.323,15.141,15.141,0,0,1,3.386-1.985,9.473,9.473,0,0,1,1-.373,1.632,1.632,0,0,1,.358-.1c0,.031-.481.184-1.315.573a15.7,15.7,0,0,0-3.31,2.046,16.329,16.329,0,0,0-3.8,4.3,15.28,15.28,0,0,0-1.448,3.069c-.389,1.115-.593,2.328-.911,3.581a6.9,6.9,0,0,1-1.683,3.3,10.543,10.543,0,0,1-2.916,1.847,11.493,11.493,0,0,0-2.624,1.581,4.91,4.91,0,0,0-.87,1.054,4.256,4.256,0,0,0-.43,1.187,4.773,4.773,0,0,0,.118,2.164,4.374,4.374,0,0,0,.757,1.468,5.468,5.468,0,0,0,1.044.936Z" transform="translate(-185.148 -179.225)" fill="#263238"/>
      <path id="Path_36083" data-name="Path 36083" d="M323.01,209.613c-.026,0,.215-.246.542-.732a6.189,6.189,0,0,0,.911-2.266,8.588,8.588,0,0,0-.128-3.612,14.543,14.543,0,0,0-1.831-4.067c-.844-1.356-1.755-2.583-2.522-3.745a21.117,21.117,0,0,1-1.806-3.233,10.662,10.662,0,0,1-.742-2.389,6.145,6.145,0,0,1-.082-.675.826.826,0,0,1,0-.235s.061.322.189.89a12.03,12.03,0,0,0,.8,2.353,23.028,23.028,0,0,0,1.842,3.172c.772,1.151,1.693,2.374,2.558,3.745a14.43,14.43,0,0,1,1.847,4.149,8.619,8.619,0,0,1,.072,3.709,5.929,5.929,0,0,1-1.023,2.287,3.985,3.985,0,0,1-.45.512A.86.86,0,0,1,323.01,209.613Z" transform="translate(-226.417 -182.63)" fill="#263238"/>
      <path id="Path_36084" data-name="Path 36084" d="M183.053,368.692l-4.2,7.31s-20.876-7.637-33.1-5.412c-4.65.844-9.622,11.387-2.849,18.16,6.6,6.6,18.416,15.945,40.581,18.968.552.072,9.632,2.021,9.07,1.954s12.727,2.046,12.727,2.046l3.12-11.8,24.754,3.883c14.589-.992,21.73-16.595,12.942-21.618-8.185-4.681-23.6-5.059-23.6-5.059l-5.586-8.758Z" transform="translate(-139.594 -270.41)" fill="#263238"/>
      <path id="Path_36085" data-name="Path 36085" d="M225.406,419.061c.061-.4.24-1.473.6-3.678.2-1.177.44-2.609.752-4.256.159-.829.333-1.7.542-2.629.107-.465.22-.936.358-1.422.066-.24.138-.481.225-.726a2.155,2.155,0,0,1,.379-.726l.036.179c-5.269-1.872-11.858-4.343-18.876-7.3-4.317-1.836-8.389-3.688-11.975-5.627a38.875,38.875,0,0,1-4.911-3.044c-1.453-1.074-2.752-2.148-3.97-3.069a21.549,21.549,0,0,0-6.226-3.652,10.574,10.574,0,0,0-1.09-.322,6.594,6.594,0,0,0-.813-.174l-.512-.092-.174-.041a.786.786,0,0,1,.179,0l.512.067a5.993,5.993,0,0,1,.829.148,9.458,9.458,0,0,1,1.1.3,14.949,14.949,0,0,1,2.865,1.274,29.672,29.672,0,0,1,3.443,2.328c1.228.926,2.527,1.99,3.985,3.069a38.77,38.77,0,0,0,4.9,3.008c3.581,1.913,7.648,3.76,11.96,5.591,7.013,2.957,13.592,5.448,18.845,7.346l.148.056-.113.123a2.112,2.112,0,0,0-.322.645c-.087.235-.159.476-.23.711-.138.476-.256.951-.363,1.407-.215.921-.4,1.8-.563,2.619-.327,1.647-.583,3.069-.8,4.246s-.389,2.072-.512,2.711c-.061.312-.107.552-.148.711A1.732,1.732,0,0,1,225.406,419.061Z" transform="translate(-159.208 -277.297)" fill="#455a64"/>
      <path id="Path_36086" data-name="Path 36086" d="M290.459,397.525h-.138l-.384-.061c-.338-.046-.829-.169-1.478-.235a28.782,28.782,0,0,0-5.489-.194,40.981,40.981,0,0,0-8.042,1.33c-1.483.394-3.028.865-4.6,1.412s-3.192,1.177-4.844,1.836a44.538,44.538,0,0,1-4.936,1.632c-1.622.445-3.2.793-4.716,1.084-3.028.593-5.786.957-8.1,1.238s-4.19.471-5.484.6l-1.494.148-.389.031a.441.441,0,0,1-.133,0h.128l.389-.056,1.483-.2,5.474-.685c2.312-.307,5.059-.691,8.072-1.294,1.509-.3,3.069-.65,4.7-1.1a45.89,45.89,0,0,0,4.911-1.622c1.647-.66,3.269-1.294,4.86-1.836s3.136-1.023,4.63-1.407a39.852,39.852,0,0,1,8.093-1.274,27.071,27.071,0,0,1,5.514.276c.65.082,1.136.225,1.473.286l.384.087A.461.461,0,0,1,290.459,397.525Z" transform="translate(-188.75 -284.315)" fill="#455a64"/>
      <path id="Path_36087" data-name="Path 36087" d="M244.657,387.756c0,.174-1.1.455-2.962.629a38.724,38.724,0,0,1-14.385-1.535c-1.775-.563-2.814-1.079-2.762-1.248.118-.368,4.5.8,10.026,1.371S244.621,387.368,244.657,387.756Z" transform="translate(-181.089 -278.793)" fill="#263238"/>
      <path id="Path_36088" data-name="Path 36088" d="M284.448,385.83a5.617,5.617,0,0,1-.819.22,9.483,9.483,0,0,0-.957.246c-.368.107-.793.22-1.248.384a31.086,31.086,0,0,0-3.161,1.253c-1.156.552-2.4,1.207-3.678,1.964a58.067,58.067,0,0,0-6.195,4.358c-.757.6-1.366,1.1-1.78,1.453a4.85,4.85,0,0,1-.67.512,5.674,5.674,0,0,1,.6-.6c.4-.373.987-.9,1.734-1.535a49.242,49.242,0,0,1,6.18-4.445,39.269,39.269,0,0,1,3.709-1.954,26.976,26.976,0,0,1,3.207-1.212c.46-.153.89-.256,1.269-.348a8.37,8.37,0,0,1,.972-.2A4.906,4.906,0,0,1,284.448,385.83Z" transform="translate(-201.308 -278.938)" fill="#455a64"/>
      <path id="Path_36089" data-name="Path 36089" d="M247.782,402a5.915,5.915,0,0,1-1.468-.419,31.545,31.545,0,0,1-3.351-1.509l-3.238-1.7a11.5,11.5,0,0,1-1.335-.726,7.452,7.452,0,0,1,1.422.558c.854.389,2.01.982,3.284,1.632s2.435,1.212,3.3,1.576A12.438,12.438,0,0,1,247.782,402Z" transform="translate(-187.851 -284.707)" fill="#455a64"/>
      <path id="Path_36090" data-name="Path 36090" d="M260.689,370.72c.041,0-.031.767-.107,2s-.148,2.936-.113,4.819.174,3.581.3,4.819a19.9,19.9,0,0,1,.189,1.995,1.953,1.953,0,0,1-.133-.512c-.072-.338-.154-.834-.24-1.448a40.863,40.863,0,0,1-.379-4.834,42.028,42.028,0,0,1,.189-4.839c.066-.619.128-1.115.184-1.458A2.279,2.279,0,0,1,260.689,370.72Z" transform="translate(-198.503 -271.558)" fill="#455a64"/>
      <path id="Path_36091" data-name="Path 36091" d="M264.96,371.99a2.389,2.389,0,0,0-.22.235,1.452,1.452,0,0,0-.327.752,1.417,1.417,0,0,0,.322,1.12,1.32,1.32,0,0,0,2.184-.808,1.427,1.427,0,0,0-.512-1.059,1.448,1.448,0,0,0-.737-.358c-.2-.031-.312,0-.317-.036s.107-.066.327-.066a1.407,1.407,0,0,1,.849.317,1.48,1.48,0,1,1-2,2.174,1.565,1.565,0,0,1-.322-1.315,1.412,1.412,0,0,1,.44-.8C264.832,372.01,264.955,371.98,264.96,371.99Z" transform="translate(-200.446 -272.071)" fill="#455a64"/>
      <path id="Path_36092" data-name="Path 36092" d="M264.287,355.729a2.918,2.918,0,0,1-.4.512,15.538,15.538,0,0,1-1.228,1.3,19.152,19.152,0,0,1-2.046,1.693,22.2,22.2,0,0,1-2.788,1.683,21.741,21.741,0,0,1-3.018,1.212,19.442,19.442,0,0,1-2.588.614,14.645,14.645,0,0,1-1.775.2,3.387,3.387,0,0,1-.655,0c0-.051.926-.1,2.4-.389a22.56,22.56,0,0,0,2.558-.665,21.863,21.863,0,0,0,7.786-4.486C263.648,356.409,264.246,355.7,264.287,355.729Z" transform="translate(-193.42 -264.235)" fill="#263238"/>
      <path id="Path_36093" data-name="Path 36093" d="M292.609,366.772c0,.077-.921.077-2.005.353s-1.9.685-1.944.619a5.315,5.315,0,0,1,3.949-.972Z" transform="translate(-212.406 -269.6)" fill="#263238"/>
      <g id="Group_12359" data-name="Group 12359" transform="translate(57.961 91.862)" opacity="0.3">
        <path id="Path_36094" data-name="Path 36094" d="M253.672,363.039a19.592,19.592,0,0,0,11.4-6.589,4.6,4.6,0,0,1-1.12,4.7c1.3.614,2.824.2,4.246,0s3.161,0,3.842,1.263a150.392,150.392,0,0,1-19.142.547" transform="translate(-252.9 -356.45)"/>
      </g>
      <path id="Path_36095" data-name="Path 36095" d="M215.942,347.677a7.187,7.187,0,0,0-2.2-1.427,7.091,7.091,0,0,0-2.8-.476,7.673,7.673,0,0,0-3.34.9,14.227,14.227,0,0,0-4.563,4.394,13.672,13.672,0,0,0-1.023,1.668,4.134,4.134,0,0,1-.353.624,3.578,3.578,0,0,1,.261-.67,11.251,11.251,0,0,1,.941-1.729c.476-.685,1.09-1.453,1.8-2.292a9.965,9.965,0,0,1,2.8-2.235,7.754,7.754,0,0,1,3.463-.905,7.08,7.08,0,0,1,2.875.547,5.478,5.478,0,0,1,1.657,1.059,2.912,2.912,0,0,1,.368.389C215.912,347.621,215.953,347.672,215.942,347.677Z" transform="translate(-169.91 -259.252)" fill="#263238"/>
      <path id="Path_36096" data-name="Path 36096" d="M248.941,253.81l-7.141,1.519,3.571,13.367,12.645,2.716,8.676-6.154,1.192-7.371-7.438-2.814Z" transform="translate(-189.517 -214.453)" fill="#ffbe9d"/>
      <path id="Path_36097" data-name="Path 36097" d="M226.255,255.71s4.834,14.037,13.766,12.738,8.185-10.395,8.185-10.395,9.32,2.844,12.2,5.867,1.182,9.6,1.182,9.6L259.173,285.4l-5.259,22.754s2.01,6.21-3.131,7.745l-1.622-2.558-30.831.87s-6.594,7.6-8.65,4.982a38.215,38.215,0,0,1-4.031-7.735l14.165-54.06Z" transform="translate(-171.859 -215.381)" fill="#5e2d77"/>
      <path id="Path_36098" data-name="Path 36098" d="M303.08,268.25c.251.143,21.889,15.858,21.889,15.858s-1.7,12.932,8.7,10.876c0,0-4.195,10.814-9.873,8.543-1.616-.645-21.562-13.264-21.562-13.264L298,281.254Z" transform="translate(-216.968 -221.506)" fill="#5e2d77"/>
      <path id="Path_36099" data-name="Path 36099" d="M222.611,257.06a12.789,12.789,0,0,0-1.315.092c-4.236.409-19.868,3.647-21.316,14.681-.757,5.77-.972,22.646-1.79,29.721,0,0,1.3,9.832,1.79,11.653.865,3.243,16.528-1.954,16.528-1.954l.031-31.2,5.6-22.974" transform="translate(-168.216 -216.04)" fill="#5e2d77"/>
      <path id="Path_36100" data-name="Path 36100" d="M226.512,312.48a.753.753,0,0,1,0,.251,6.739,6.739,0,0,0,.051.726,10.476,10.476,0,0,0,.66,2.558c.4,1.054,1.023,2.251,1.616,3.622a16.374,16.374,0,0,1,.818,2.22,13.587,13.587,0,0,1,.425,2.5,29.722,29.722,0,0,1-.128,4.88c-.128,1.494-.251,2.839-.435,3.959a17.625,17.625,0,0,1-.619,2.614c-.1.3-.189.512-.256.685a.881.881,0,0,1-.113.23s.1-.338.271-.946a19.861,19.861,0,0,0,.512-2.614c.164-1.115.266-2.455.384-3.944a31.947,31.947,0,0,0,.1-4.844,13.448,13.448,0,0,0-.409-2.455,16.7,16.7,0,0,0-.793-2.189c-.593-1.366-1.187-2.583-1.57-3.652a9.515,9.515,0,0,1-.583-2.629,4.264,4.264,0,0,1,0-.731A1.407,1.407,0,0,1,226.512,312.48Z" transform="translate(-182.009 -243.11)" fill="#263238"/>
      <path id="Path_36101" data-name="Path 36101" d="M227.979,304.78c.046,0,.082.793.261,2.046a27.424,27.424,0,0,0,1.141,4.855c.159.465.322.911.512,1.34a2.853,2.853,0,0,0,.128.292l.184.281a6.621,6.621,0,0,1,.327.578,4.844,4.844,0,0,1,.578,2.21,3.944,3.944,0,0,1-.3,1.535,2.2,2.2,0,0,1-.281.512,5.316,5.316,0,0,0,.394-2,4.813,4.813,0,0,0-.6-2.1c-.1-.184-.21-.368-.327-.552l-.184-.281a1.86,1.86,0,0,1-.153-.333c-.179-.43-.343-.885-.512-1.35a23.017,23.017,0,0,1-1.074-4.921c-.072-.639-.092-1.166-.1-1.535A2.488,2.488,0,0,1,227.979,304.78Z" transform="translate(-182.755 -239.349)" fill="#263238"/>
      <path id="Path_36102" data-name="Path 36102" d="M222.483,286.159c-.041,0-.276-.639-.737-1.647a23.164,23.164,0,0,0-2.164-3.755,23.532,23.532,0,0,0-2.839-3.269c-.8-.767-1.345-1.2-1.315-1.238a1.831,1.831,0,0,1,.409.266,12.71,12.71,0,0,1,1.023.834,19.372,19.372,0,0,1,5.049,7.085,13,13,0,0,1,.45,1.248A1.974,1.974,0,0,1,222.483,286.159Z" transform="translate(-176.635 -225.414)" fill="#263238"/>
      <path id="Path_36103" data-name="Path 36103" d="M315,277.7a5.771,5.771,0,0,1-.1,1.238c-.092.762-.225,1.811-.343,2.972s-.215,2.215-.281,2.982a5.93,5.93,0,0,1-.153,1.233,5.557,5.557,0,0,1-.036-1.243c0-.772.082-1.831.2-3s.281-2.22.419-2.972A5.555,5.555,0,0,1,315,277.7Z" transform="translate(-224.814 -226.122)" fill="#263238"/>
      <path id="Path_36104" data-name="Path 36104" d="M316.877,303.375c0,.046-.675.113-1.724.409a8.15,8.15,0,0,0-3.606,2.113,9.965,9.965,0,0,0-1.376,1.872,14.338,14.338,0,0,0-.788,1.739l-.251.7c-.061.189-.113.368-.164.512a1.852,1.852,0,0,1-.169.45,1.436,1.436,0,0,1,.072-.476l.118-.547.215-.716a12.39,12.39,0,0,1,.752-1.8,9.44,9.44,0,0,1,1.4-1.893,7.745,7.745,0,0,1,3.745-2.108,5.368,5.368,0,0,1,.737-.148,4.607,4.607,0,0,1,.558-.072A1.536,1.536,0,0,1,316.877,303.375Z" transform="translate(-222.243 -238.66)" fill="#263238"/>
      <path id="Path_36105" data-name="Path 36105" d="M350.221,315.487a3.07,3.07,0,0,1-.343-.573c-.107-.184-.23-.42-.358-.7s-.281-.588-.414-.951a18.635,18.635,0,0,1-.824-2.583,21.169,21.169,0,0,1-.512-3.289,20.822,20.822,0,0,1,.056-3.32,19.121,19.121,0,0,1,.471-2.67c.082-.379.2-.711.286-1.023a6.436,6.436,0,0,1,.256-.742,3.2,3.2,0,0,1,.266-.614c.051,0-.292.905-.624,2.4a21.735,21.735,0,0,0-.409,2.65,23.149,23.149,0,0,0-.041,3.284,22.9,22.9,0,0,0,.481,3.248,21.435,21.435,0,0,0,.757,2.558C349.812,314.627,350.267,315.466,350.221,315.487Z" transform="translate(-241.259 -236.536)" fill="#263238"/>
      <path id="Path_36106" data-name="Path 36106" d="M341.022,311.708a2.159,2.159,0,0,1-.2-.547,10.792,10.792,0,0,1-.317-1.535,12.1,12.1,0,0,1,.481-5.2,11.765,11.765,0,0,1,2.614-4.522A2.24,2.24,0,0,1,345,299.15a.992.992,0,0,1,.435.087c.087.046.133.077.128.087a1.535,1.535,0,0,0-.558-.072,2.276,2.276,0,0,0-1.274.783,12.446,12.446,0,0,0-2.5,4.471,13.054,13.054,0,0,0-.552,5.115C340.817,310.9,341.068,311.693,341.022,311.708Z" transform="translate(-237.681 -236.599)" fill="#263238"/>
      <path id="Path_36107" data-name="Path 36107" d="M262.807,318.72a2.411,2.411,0,0,1-.128.609,6.022,6.022,0,0,1-.2.7,9.484,9.484,0,0,1-.343.9,14.277,14.277,0,0,1-1.166,2.22,15.142,15.142,0,0,1-4.282,4.379,14.442,14.442,0,0,1-2.195,1.223,8.569,8.569,0,0,1-.9.358,4.627,4.627,0,0,1-.691.225,3.069,3.069,0,0,1-.6.143c0-.051.839-.281,2.108-.9a16.069,16.069,0,0,0,2.138-1.253,18.186,18.186,0,0,0,2.312-1.954,17.753,17.753,0,0,0,1.9-2.358,15.7,15.7,0,0,0,1.2-2.164C262.546,319.564,262.756,318.7,262.807,318.72Z" transform="translate(-194.646 -246.158)" fill="#263238"/>
      <g id="Group_12360" data-name="Group 12360" transform="translate(45.477 65.645)" opacity="0.3">
        <path id="Path_36108" data-name="Path 36108" d="M233.465,317.18l-2.947-10.742c-.143-.512-.384-1.141-.921-1.238a1.023,1.023,0,0,0-1.049.88,5.766,5.766,0,0,0,0,1.57c.23,2.338.414,3.924,1.5,5.734,2.123,3.53.726,5.243.726,5.243a48.363,48.363,0,0,1-1.535,14.574l1.264,5.325c1.2-3.959,3.934-7.259,4.394-11.372C235.255,323.784,234.38,320.443,233.465,317.18Z" transform="translate(-228.495 -305.199)"/>
      </g>
      <g id="Group_12361" data-name="Group 12361" transform="translate(87.324 68.714)" opacity="0.3">
        <path id="Path_36109" data-name="Path 36109" d="M310.3,312.57c3.5,1.821,6.619,4.338,10.031,6.287a16.005,16.005,0,0,0-6.282-7.024,3.975,3.975,0,0,0-2.374-.629c-.829.118-1.422.583-1.294,1.407" transform="translate(-310.3 -311.198)"/>
      </g>
      <g id="Group_12362" data-name="Group 12362" transform="translate(102.672 62.172)" opacity="0.3">
        <path id="Path_36110" data-name="Path 36110" d="M345.033,298.615c-1.2-.031-2.1,1.059-2.686,2.1a16.17,16.17,0,0,0-1.934,9.76c.072.6.3,1.33.9,1.448a1.023,1.023,0,0,0,1.059-.629,2.906,2.906,0,0,0,.2-1.294,42.34,42.34,0,0,1,.153-6.139,9.16,9.16,0,0,1,2.558-5.453" transform="translate(-340.303 -298.41)"/>
      </g>
      <path id="Path_36111" data-name="Path 36111" d="M243.78,305.245h.123l.353-.026,1.386-.072,5.238-.24,18.554-.788h.123v.118c.153,6.241.333,13.423.512,21.025v.9h-.087a181.612,181.612,0,0,0-22.846,1.708h-.1l-.026-.1a81.685,81.685,0,0,1-2.727-16.451c-.123-2.016-.143-3.581-.143-4.676V304.99a.435.435,0,0,1,0,.107v1.545c0,1.079.066,2.66.2,4.665a83.969,83.969,0,0,0,2.814,16.405l-.128-.087a177.758,177.758,0,0,1,22.948-1.755l-.133.138v-.762c-.179-7.6-.343-14.784-.512-21.025l.123.118-18.559.691-5.243.174-1.386.041H243.8Z" transform="translate(-190.484 -239.027)" fill="#fff"/>
      <path id="Path_36112" data-name="Path 36112" d="M254.517,321.844c-.072,0-.711-3.443-1.427-7.719s-1.238-7.75-1.166-7.765.711,3.443,1.427,7.724S254.568,321.834,254.517,321.844Z" transform="translate(-194.459 -240.121)" fill="#fff"/>
      <path id="Path_36113" data-name="Path 36113" d="M257.625,344.162a15.39,15.39,0,0,1-.568-2.788,15.617,15.617,0,0,1-.307-2.834,15.387,15.387,0,0,1,.568,2.793A14.529,14.529,0,0,1,257.625,344.162Z" transform="translate(-196.819 -255.839)" fill="#fff"/>
      <path id="Path_36114" data-name="Path 36114" d="M265.829,318a1.569,1.569,0,0,1-.143-.476c-.077-.307-.174-.762-.281-1.32-.215-1.12-.455-2.675-.629-4.4s-.24-3.3-.256-4.44v-1.35a2.192,2.192,0,0,1,.046-.512,14.115,14.115,0,0,1,.128,1.836c.061,1.136.159,2.7.332,4.425s.384,3.274.547,4.4A15.552,15.552,0,0,1,265.829,318Z" transform="translate(-200.614 -239.701)" fill="#fff"/>
      <path id="Path_36115" data-name="Path 36115" d="M265.085,341.254a25.371,25.371,0,0,1-.578-3.617,24.218,24.218,0,0,1-.317-3.647,25.542,25.542,0,0,1,.578,3.617,24.21,24.21,0,0,1,.317,3.647Z" transform="translate(-200.453 -253.617)" fill="#fff"/>
      <path id="Path_36116" data-name="Path 36116" d="M274.891,326.938a6.117,6.117,0,0,1-.1-.844l-.2-2.3c-.169-1.939-.419-4.6-.757-7.576s-.706-5.627-.982-7.556c-.133-.931-.246-1.7-.327-2.287a5.559,5.559,0,0,1-.092-.844,4.74,4.74,0,0,1,.194.829c.107.512.246,1.31.409,2.271.327,1.929.721,4.6,1.064,7.556s.558,5.627.68,7.6c.056.972.1,1.76.113,2.307A4.511,4.511,0,0,1,274.891,326.938Z" transform="translate(-204.478 -239.716)" fill="#fff"/>
      <path id="Path_36117" data-name="Path 36117" d="M285.9,327.1a5.277,5.277,0,0,1-.041-.859v-2.343c0-1.975-.072-4.706-.21-7.714s-.353-5.734-.512-7.7c-.082-.946-.148-1.734-.2-2.328a5.966,5.966,0,0,1-.046-.859,4.668,4.668,0,0,1,.148.844c.082.547.179,1.345.286,2.328.215,1.964.45,4.691.6,7.7s.164,5.75.133,7.729c0,.987-.036,1.79-.061,2.343a5.891,5.891,0,0,1-.1.859Z" transform="translate(-210.563 -239.598)" fill="#fff"/>
      <g id="Group_12363" data-name="Group 12363" transform="translate(57.884 73.407)" opacity="0.3">
        <path id="Path_36118" data-name="Path 36118" d="M252.924,330.315a4.292,4.292,0,0,0,2.7.655,8.565,8.565,0,0,0,2.721-.711,8.221,8.221,0,0,0,3.095-2.046,7.2,7.2,0,0,0,1.535-3.622,21.265,21.265,0,0,0,.133-4,.26.26,0,0,0-.041-.164.2.2,0,0,0-.286,0,.639.639,0,0,0-.159.281,14.835,14.835,0,0,1-9.868,9.331" transform="translate(-252.75 -320.371)"/>
      </g>
      <path id="Path_36119" data-name="Path 36119" d="M225.966,385.752l-3.126-5.862-7.029-32.9s-6.466-3.714-11.766,4.425c-.21.327,7.284,23.889,9.377,30.442l.292,6.272s-.368,7.423,0,8.072a3.018,3.018,0,0,0,1.3,1.023,1.8,1.8,0,0,0,1.857,2.046s.184,2.046,1.76,1.765a3.033,3.033,0,0,0,2.138-1.3s0,2.594,1.391,2.317,1.616-1.391,1.872-1.76a28.749,28.749,0,0,0,.552-4.179l-.026-6.282,3.622,2.936c1.023.512,2.583,1.166,3.453.384Z" transform="translate(-171.074 -259.555)" fill="#ffbe9d"/>
      <path id="Path_36120" data-name="Path 36120" d="M244.041,430.92a11.305,11.305,0,0,1,.2,3.386c-.041.87-.077,1.663-.113,2.389a3.9,3.9,0,0,1-.092.987,15.685,15.685,0,0,1-.061-3.386C244.071,432.434,243.959,430.93,244.041,430.92Z" transform="translate(-190.55 -300.963)" fill="#eb996e"/>
      <path id="Path_36121" data-name="Path 36121" d="M236.269,439.48a36.368,36.368,0,0,1,.082,6.215A36.367,36.367,0,0,1,236.269,439.48Z" transform="translate(-186.769 -305.144)" fill="#eb996e"/>
      <path id="Path_36122" data-name="Path 36122" d="M229.409,441.71a8.461,8.461,0,0,1-.414,4.3c-.072,0,.113-.967.22-2.148A19.639,19.639,0,0,1,229.409,441.71Z" transform="translate(-183.254 -306.233)" fill="#eb996e"/>
      <path id="Path_36123" data-name="Path 36123" d="M225.282,440.29a7.464,7.464,0,0,1-.276,2.8,3.724,3.724,0,0,1,0-1.412,3.893,3.893,0,0,1,.276-1.386Z" transform="translate(-181.281 -305.54)" fill="#eb996e"/>
    </g>
    <g id="freepik--speech-bubble--inject-4" transform="translate(90.123 79.275)">
      <path id="Path_36124" data-name="Path 36124" d="M195.561,149.461l-4.706-8.3a22.222,22.222,0,1,0-5.325,5.924h0Z" transform="translate(-149.657 -107.257)" fill="#fff"/>
      <path id="Path_36125" data-name="Path 36125" d="M195.508,149.431l-10.052-2.3a.061.061,0,0,1-.051-.077s0,0,0-.026h0l.092.092a22.553,22.553,0,0,1-4.563,2.752,22.242,22.242,0,0,1-6.062,1.744,19.777,19.777,0,0,1-3.509.174c-.609-.031-1.223-.046-1.842-.1l-1.877-.286a22.385,22.385,0,0,1-13.868-8.9,22.145,22.145,0,0,1-3.75-8.574,22.625,22.625,0,0,1,.261-9.873,21.915,21.915,0,0,1,4.757-9.126l.905-1.023c.3-.338.655-.614.977-.921a8.02,8.02,0,0,1,1.023-.875l1.064-.8a9.389,9.389,0,0,1,1.1-.732l1.125-.68,1.177-.573a10.327,10.327,0,0,1,1.192-.512,22.611,22.611,0,0,1,9.944-1.535,21.848,21.848,0,0,1,9.131,2.7A22.508,22.508,0,0,1,193.2,122.969a23.9,23.9,0,0,1,.967,7.218,22.16,22.16,0,0,1-1.084,6.231,22.559,22.559,0,0,1-2.23,4.778v-.066l4.65,8.328-4.773-8.292a.067.067,0,0,1,0-.061,22.6,22.6,0,0,0,2.184-4.757,21.918,21.918,0,0,0,1.054-6.19,23.94,23.94,0,0,0-.977-7.162,22.339,22.339,0,0,0-10.446-12.814,21.644,21.644,0,0,0-9.029-2.655,22.391,22.391,0,0,0-9.832,1.535,10.472,10.472,0,0,0-1.177.512l-1.161.563-1.115.675a9.558,9.558,0,0,0-1.09.721l-1.054.788c-.358.256-.66.583-.992.87a9.455,9.455,0,0,0-.962.905l-.9.987a21.654,21.654,0,0,0-4.706,9.019,22.405,22.405,0,0,0-.266,9.755,21.956,21.956,0,0,0,3.7,8.481,22.206,22.206,0,0,0,13.709,8.84l1.857.286c.614.051,1.223.067,1.821.1a19.563,19.563,0,0,0,3.489-.164,22.058,22.058,0,0,0,6.041-1.7A22.509,22.509,0,0,0,185.43,147a.066.066,0,0,1,.1,0,.077.077,0,0,1,0,.082h0l-.036-.107Z" transform="translate(-149.604 -107.228)" fill="#263238"/>
      <path id="Path_36126" data-name="Path 36126" d="M176.489,142.227a3.07,3.07,0,0,0-1.1-.286,3.3,3.3,0,0,0-3.044,1.125c2.4,1.391,5.668,3.238,8.006,4.573l2.952-1.688C181.169,144.779,178.5,143.306,176.489,142.227Z" transform="translate(-160.709 -124.163)" fill="#00ae9f"/>
      <g id="Group_12364" data-name="Group 12364" transform="translate(11.631 17.736)">
        <path id="Path_36127" data-name="Path 36127" d="M176.489,142.227a3.07,3.07,0,0,0-1.1-.286,3.3,3.3,0,0,0-3.044,1.125c2.4,1.391,5.668,3.238,8.006,4.573l2.952-1.688C181.169,144.779,178.5,143.306,176.489,142.227Z" transform="translate(-172.34 -141.898)" fill="#5e2d77"/>
      </g>
      <path id="Path_36128" data-name="Path 36128" d="M185.376,147.9l-.107-.092c-.737-.425-1.535-1.233-2.261-1.217-.281,0-.588.251-1.32.66-1.217.691-3.269,1.893-4.5,2.558a4.515,4.515,0,0,1-3.514.634,5.034,5.034,0,0,1-1.647-1l13.341-7.735c-.067-.2-.138-.389-.2-.583a3.821,3.821,0,1,1,3.2,2.558,1.744,1.744,0,0,0-.89.179c-.512.246-.982.558-1.591.905,1.023.46,1.724,1.2,2.926,1.084a3.607,3.607,0,0,1,3.632,2.65,3.821,3.821,0,1,1-7.274-.087C185.228,148.268,185.315,148.094,185.376,147.9Zm3.407-6.139a1.826,1.826,0,0,0,1.847-1.862,1.852,1.852,0,0,0-1.831-1.821,1.882,1.882,0,0,0-1.862,1.872,1.857,1.857,0,0,0,1.847,1.8Zm0,9.76a1.852,1.852,0,0,0,1.867-1.785,1.821,1.821,0,0,0-1.811-1.9,1.862,1.862,0,0,0-1.882,1.775,1.883,1.883,0,0,0,1.806,1.9Z" transform="translate(-160.558 -121.313)" fill="#5e2d77"/>
      <path id="Path_36129" data-name="Path 36129" d="M193.272,152.062a1.189,1.189,0,0,0-.4-.614.778.778,0,0,0-.721-.087.757.757,0,0,0,0,1.407.778.778,0,0,0,.721-.087c.379-.271.358-.629.4-.619s.041.082,0,.225a.854.854,0,0,1-.307.542.957.957,0,0,1-.921.169.987.987,0,0,1,0-1.867.957.957,0,0,1,.921.169.844.844,0,0,1,.307.537C193.313,151.98,193.287,152.062,193.272,152.062Z" transform="translate(-170.008 -128.647)" fill="#efeaf1"/>
      <path id="Path_36130" data-name="Path 36130" d="M194.6,151.73a2.632,2.632,0,0,1-.271.179l-.762.46-2.522,1.483-2.558,1.453-.778.43a1.9,1.9,0,0,1-.292.148,2.161,2.161,0,0,1,.271-.184l.762-.46,2.522-1.478,2.558-1.453.778-.435a2.118,2.118,0,0,1,.292-.143Z" transform="translate(-168.075 -128.965)" fill="#efeaf1"/>
      <path id="Path_36131" data-name="Path 36131" d="M184.85,147.73a1.022,1.022,0,0,1-.123.087l-.368.23-1.361.844c-1.146.7-2.737,1.647-4.522,2.655l-4.558,2.588-1.407.747-.379.2-.133.067s.041-.031.123-.082l.368-.225,1.371-.8,4.548-2.614c1.78-1.023,3.376-1.949,4.537-2.624l1.376-.793.379-.215Z" transform="translate(-160.543 -127.011)" fill="#efeaf1"/>
    </g>
    <g id="freepik--Stars--inject-4" transform="translate(196.19 89.865)">
      <path id="Path_36132" data-name="Path 36132" d="M359.7,202.18l.972,1.775,1.775.972-1.775.972-.972,1.775-.972-1.775-1.775-.972,1.775-.972Z" transform="translate(-356.95 -164.198)" fill="#fcb116"/>
      <path id="Path_36133" data-name="Path 36133" d="M375,154.02l1.008-.066.813-.6.066,1.013.6.813-1.013.067-.813.6-.066-1.008Z" transform="translate(-365.767 -140.346)" fill="#00ae9f"/>
      <path id="Path_36134" data-name="Path 36134" d="M694.86,311.82l1.008-.066.813-.6.067,1.013.6.813-1.013.067-.813.6-.067-1.008Z" transform="translate(-522.003 -217.424)" fill="#fcb116"/>
      <path id="Path_36135" data-name="Path 36135" d="M469.55,213.1l1.008-.066.818-.6.066,1.008.6.813-1.008.066-.818.6-.061-1.008Z" transform="translate(-411.95 -169.204)" fill="#fcb116"/>
      <path id="Path_36136" data-name="Path 36136" d="M481.57,128.6l1.008-.066.813-.6.066,1.008.6.813-1.008.066-.813.6-.067-1.013Z" transform="translate(-417.821 -127.93)" fill="#fcb116"/>
      <path id="Path_36137" data-name="Path 36137" d="M421.02,179.325l1.535-.885.813-1.57.885,1.535,1.576.818-1.535.88-.818,1.576-.885-1.535Z" transform="translate(-388.245 -151.835)" fill="#fcb116"/>
      <path id="Path_36138" data-name="Path 36138" d="M673.07,349.835l1.535-.885.813-1.57.885,1.535,1.57.813-1.535.885-.813,1.57-.885-1.535Z" transform="translate(-511.36 -235.121)" fill="#fcb116"/>
      <path id="Path_36139" data-name="Path 36139" d="M658,294.985l1.535-.885.818-1.57.885,1.535,1.57.813-1.535.885-.819,1.576-.88-1.54Z" transform="translate(-503.999 -208.329)" fill="#fcb116"/>
    </g>
  </g>
</svg>
