<svg xmlns="http://www.w3.org/2000/svg" width="56" height="56" viewBox="0 0 56 56">
    <g id="Group_6328" data-name="Group 6328" transform="translate(-318.016 9.273)">
        <g id="Group_7706" data-name="Group 7706">
            <rect id="Rectangle" width="56" height="56" rx="10" transform="translate(318.016 -9.273)" fill="#EFEAF1"/>
            <g id="repeat-svgrepo-com" transform="translate(332.016 -47.52)">
                <g id="Group_11329" data-name="Group 11329" transform="translate(0 55.246)">
                    <path id="Path_27689" data-name="Path 27689" d="M17.946,56.041c.051-.046-.006-.262-.08-.387a.809.809,0,0,0-.6-.381,2.188,2.188,0,0,0-1.718.432A21.661,21.661,0,0,0,13.1,57.743l-.04.046h0a1.051,1.051,0,0,0,.04,1.485c.188.176.381.341.586.5.1.131.2.262.3.387a9.917,9.917,0,0,0,2.27,2.117.73.73,0,0,0,.962-.233c.319-.347.415-.74.245-.99a8.263,8.263,0,0,0-1.013-1.286c-.41-.393-.854-.757-1.3-1.121h.006a10.017,10.017,0,0,0,3.92.62c1.064.023,2.134.051,3.2.074l1.6.034.4.006.2.006.125.011a1.513,1.513,0,0,1,.472.142,1.375,1.375,0,0,1,.66.694,1.408,1.408,0,0,1,.114.427l.006.176v.182l-.006.4c-.011,1.07-.011,2.139-.011,3.209l.028,5.155.023,2.578.006.643.006.324c0,.108.006.228,0,.279a1.452,1.452,0,0,1-.859,1.275,1.645,1.645,0,0,1-.358.108.666.666,0,0,1-.137.011l-.08.006h-.034l-.324.006-2.578.034-5.155.063c-3.078-.165-6.179-.262-9.286-.319l-2.333-.034L3.6,74.75l-.29-.006H3.237l-.04-.006-.074-.006a1.216,1.216,0,0,1-1.036-.95,6.619,6.619,0,0,1-.023-.939V71.672q-.009-4.686-.017-9.383V60.827a1.4,1.4,0,0,1,.011-.154,1.2,1.2,0,0,1,.688-.933c.046-.023.1-.034.142-.057l.074-.017a.476.476,0,0,1,.057-.011.105.105,0,0,0,.04-.011.926.926,0,0,1,.137-.006l.074-.006h.751l1.172.006,2.339.017a5.2,5.2,0,0,0,1.7-.33c.541-.279-.165-.512-1.218-.688-.871-.148-1.787-.273-2.743-.381-.478-.051-.962-.1-1.457-.148l-.37-.034-.188-.017-.211-.006a2.233,2.233,0,0,0-.467.046,2.5,2.5,0,0,0-.45.119,2.884,2.884,0,0,0-1.457,1.2,2.965,2.965,0,0,0-.358.927,3.073,3.073,0,0,0-.057.5l-.017.393C.2,62.283.17,63.353.153,64.428Q.085,68.312.022,72.19l-.017.973a4.087,4.087,0,0,0,.1,1.212,3.266,3.266,0,0,0,3,2.447l.165.006h.119l.245.006.484.006,1.94.023c5.184.063,10.373.074,15.579-.017l1.929.034.484.006.239.006h.3l.119-.006a.905.905,0,0,0,.154-.011,3.551,3.551,0,0,0,.393-.063,3.222,3.222,0,0,0,.671-.228,3.354,3.354,0,0,0,1.6-1.525,3.418,3.418,0,0,0,.347-1.07,2.315,2.315,0,0,0,.028-.279c.006-.091.011-.2.011-.25l.006-.381.023-3.061c.011-2.043.017-4.08.011-6.122l-.017-3.056-.006-.1V60.69l-.006-.1a2.56,2.56,0,0,0-.034-.279,2.086,2.086,0,0,0-.063-.307c-.028-.091-.046-.182-.08-.273a3.509,3.509,0,0,0-.535-1,3.355,3.355,0,0,0-1.855-1.212,3.1,3.1,0,0,0-.552-.091l-.279-.011h-.2l-.762.011-1.525.028c-1.019.023-2.031.051-3.05.074a21.847,21.847,0,0,0-2.765.222C16.791,57.191,17.325,56.565,17.946,56.041Z" transform="translate(0 -55.246)" fill="#FCB116"/>
                </g>
            </g>
        </g>
    </g>
</svg>
